<svg width="42" height="42" viewBox="0 0 42 42" fill="none" xmlns="http://www.w3.org/2000/svg">
<path fill-rule="evenodd" clip-rule="evenodd" d="M3.89599 15.8874L5.84759 15.5595C6.02026 15.0758 6.21783 14.6014 6.43957 14.1382L5.28771 12.5289C4.29192 11.1374 4.4511 9.22918 5.66369 8.02184L8.00719 5.6791C9.20879 4.46625 11.1126 4.30404 12.5022 5.296L14.118 6.45174C14.6139 6.2174 15.1258 6.00704 15.6297 5.82706L15.9496 3.91385C16.2326 2.22762 17.6951 0.994406 19.4049 1.00004H22.7162C24.4253 0.9923 25.8866 2.22745 26.1637 3.91382L26.4995 5.89747C26.9811 6.07119 27.4536 6.26926 27.9152 6.49093L29.4989 5.35839C30.8934 4.35776 32.8077 4.51668 34.0181 5.73353L36.3695 8.07703C37.5817 9.28425 37.7408 11.1919 36.7454 12.5833L35.5776 14.2238C35.7977 14.686 35.9901 15.1609 36.1537 15.6459L38.0731 15.9658C39.758 16.2483 40.9903 17.7095 40.9845 19.4179L40.9846 22.7301C40.9928 24.4393 39.7593 25.9019 38.0731 26.1822L36.0896 26.5181C35.9137 26.998 35.7137 27.4715 35.4897 27.9322L36.6255 29.5103C37.6255 30.9005 37.4662 32.8113 36.2497 34.0166L33.906 36.3601C32.7045 37.573 30.8005 37.7352 29.411 36.7432L27.7712 35.5787C27.3393 35.7818 26.8915 35.9618 26.4355 36.1258L26.1075 38.0782C25.8282 39.7676 24.3647 41.0052 22.6523 41H19.3329C17.6196 41.0076 16.1548 39.769 15.8776 38.0782L15.5497 36.1258C15.068 35.9548 14.5955 35.7594 14.1339 35.5403L12.5263 36.6881C11.1375 37.6888 9.22704 37.5296 8.02312 36.313L5.67962 33.9702C4.46728 32.7627 4.30822 30.8547 5.30382 29.4631L6.45544 27.8458C6.23107 27.3865 6.03344 26.9147 5.8637 26.4325L3.91991 26.1046C2.2304 25.8278 0.992668 24.3638 1.0006 22.6517L1.00048 19.3476C0.972099 17.635 2.20531 16.1614 3.89599 15.8874ZM3.33617 22.6517C3.33404 23.2154 3.7401 23.6979 4.29595 23.7922L6.87939 24.2217C7.35467 24.2974 7.74554 24.6368 7.8872 25.0968C8.13647 25.8737 8.44945 26.6286 8.82305 27.3539C9.04809 27.7748 9.01391 28.2871 8.73504 28.6744L7.20733 30.814C6.88067 31.2762 6.93462 31.9066 7.33538 32.3064L9.67895 34.6492C10.0723 35.0513 10.6998 35.1076 11.1586 34.7819L13.2942 33.2623C13.6824 32.9796 14.1979 32.9433 14.6219 33.1686C15.3462 33.5436 16.1006 33.8572 16.8774 34.106C17.3365 34.2457 17.6771 34.6328 17.7573 35.1059L18.1892 37.691C18.2817 38.2504 18.7659 38.6605 19.333 38.6595H22.6523C23.2165 38.6609 23.6996 38.2556 23.7961 37.6997L24.2201 35.1138C24.2972 34.6421 24.635 34.2547 25.0918 34.114C25.8441 33.8779 26.5747 33.5774 27.2755 33.2159C27.4567 33.1247 27.6565 33.0767 27.8594 33.0759C28.1233 33.074 28.381 33.1561 28.5952 33.3102L30.7627 34.8483C31.2186 35.1739 31.8441 35.1175 32.2344 34.7156L34.5859 32.3649C34.9864 31.9714 35.0406 31.3448 34.7139 30.8883L33.1942 28.7872C32.9114 28.3955 32.8772 27.8767 33.1062 27.4514C33.4879 26.7317 33.8038 25.9789 34.0502 25.2023C34.1913 24.7466 34.5787 24.4106 35.0498 24.3352L37.6654 23.8897C38.2242 23.7993 38.6345 23.3161 38.633 22.75L38.6332 19.4378C38.6345 18.8715 38.2244 18.3881 37.6654 18.2972L35.1139 17.8678C34.6377 17.7941 34.2476 17.4508 34.1141 16.9879C33.8723 16.2069 33.5619 15.4489 33.1863 14.7228C32.968 14.2997 33.005 13.7901 33.2822 13.4031L34.818 11.2435C35.1514 10.7876 35.1003 10.1562 34.698 9.75982L32.3465 7.41627L32.3385 7.40827C32.1262 7.19083 31.8345 7.06946 31.5306 7.07232C31.2902 7.07122 31.0553 7.14501 30.8588 7.28348L28.7472 8.80317C28.3558 9.08683 27.8363 9.12041 27.4116 8.8895C26.6907 8.50521 25.9355 8.18873 25.156 7.94414C24.7029 7.80022 24.3689 7.4137 24.2924 6.94434L23.8442 4.32728C23.7578 3.76764 23.2747 3.35564 22.7084 3.35866H19.3971C18.8292 3.35537 18.3437 3.76658 18.2533 4.32728L17.8213 6.88195C17.7462 7.3574 17.4036 7.74682 16.9415 7.88175C16.1318 8.13068 15.3472 8.45498 14.598 8.85033C14.1757 9.07107 13.6652 9.03486 13.2782 8.75676L11.1426 7.23708C10.9495 7.09791 10.7168 7.02419 10.4788 7.02672C10.1706 7.02126 9.8745 7.14582 9.66289 7.36982L7.31145 9.72136C6.91033 10.1175 6.85613 10.7461 7.18334 11.2051L8.71117 13.3374C8.98894 13.7273 9.02593 14.2395 8.80712 14.6652C8.43084 15.3906 8.11517 16.1458 7.86327 16.9231C7.72491 17.3819 7.3366 17.7215 6.86346 17.7973L4.28002 18.2348C3.73089 18.3252 3.33001 18.8029 3.33617 19.3594V22.6517Z" fill="#14213D"/>
<path d="M3.89599 15.8874L3.93597 16.1342L3.93741 16.134L3.89599 15.8874ZM5.84759 15.5595L5.88901 15.806L6.0337 15.7817L6.08303 15.6436L5.84759 15.5595ZM6.43957 14.1382L6.66506 14.2461L6.72887 14.1129L6.64286 13.9927L6.43957 14.1382ZM5.28771 12.5289L5.0844 12.6744L5.08442 12.6744L5.28771 12.5289ZM5.66369 8.02184L5.84008 8.199L5.84044 8.19865L5.66369 8.02184ZM8.00719 5.6791L8.18394 5.85591L8.18479 5.85505L8.00719 5.6791ZM12.5022 5.296L12.6476 5.09266L12.6474 5.09252L12.5022 5.296ZM14.118 6.45174L13.9725 6.65508L14.092 6.74053L14.2248 6.67778L14.118 6.45174ZM15.6297 5.82706L15.7138 6.0625L15.852 6.01311L15.8763 5.8683L15.6297 5.82706ZM15.9496 3.91385L15.7031 3.87248L15.7031 3.87262L15.9496 3.91385ZM19.4049 1.00004L19.4041 1.25004H19.4049V1.00004ZM22.7162 1.00004V1.25004L22.7174 1.25003L22.7162 1.00004ZM26.1637 3.91382L25.917 3.95436L25.9172 3.95555L26.1637 3.91382ZM26.4995 5.89747L26.253 5.9392L26.2774 6.0831L26.4147 6.13263L26.4995 5.89747ZM27.9152 6.49093L27.8069 6.71628L27.9403 6.78032L28.0606 6.69428L27.9152 6.49093ZM29.4989 5.35839L29.6443 5.56174L29.6446 5.56151L29.4989 5.35839ZM34.0181 5.73353L33.8408 5.90983L33.8416 5.9106L34.0181 5.73353ZM36.3695 8.07703L36.193 8.25411L36.1931 8.25417L36.3695 8.07703ZM36.7454 12.5833L36.542 12.4378L36.5417 12.4383L36.7454 12.5833ZM35.5776 14.2238L35.374 14.0788L35.2887 14.1985L35.3519 14.3313L35.5776 14.2238ZM36.1537 15.6459L35.9168 15.7258L35.9647 15.8679L36.1126 15.8925L36.1537 15.6459ZM38.0731 15.9658L38.1144 15.7193L38.1142 15.7192L38.0731 15.9658ZM40.9845 19.4179L40.7345 19.4171V19.418L40.9845 19.4179ZM40.9846 22.7301L40.7346 22.7301L40.7346 22.7313L40.9846 22.7301ZM38.0731 26.1822L38.0321 25.9355L38.0314 25.9357L38.0731 26.1822ZM36.0896 26.5181L36.0478 26.2716L35.9048 26.2959L35.8549 26.4321L36.0896 26.5181ZM35.4897 27.9322L35.2649 27.8229L35.1996 27.9571L35.2868 28.0783L35.4897 27.9322ZM36.6255 29.5103L36.8284 29.3643L36.8284 29.3643L36.6255 29.5103ZM36.2497 34.0166L36.0738 33.839L36.073 33.8398L36.2497 34.0166ZM33.906 36.3601L33.7292 36.1833L33.7284 36.1842L33.906 36.3601ZM29.411 36.7432L29.5563 36.5397L29.5558 36.5394L29.411 36.7432ZM27.7712 35.5787L27.916 35.3749L27.7969 35.2903L27.6648 35.3525L27.7712 35.5787ZM26.4355 36.1258L26.3509 35.8905L26.2132 35.94L26.189 36.0843L26.4355 36.1258ZM26.1075 38.0782L25.861 38.0368L25.8609 38.0374L26.1075 38.0782ZM22.6523 41L22.6531 40.75H22.6523V41ZM19.3329 41V40.75L19.3318 40.75L19.3329 41ZM15.8776 38.0782L16.1243 38.0377L16.1241 38.0368L15.8776 38.0782ZM15.5497 36.1258L15.7962 36.0844L15.7719 35.9394L15.6333 35.8902L15.5497 36.1258ZM14.1339 35.5403L14.2411 35.3145L14.1083 35.2514L13.9886 35.3368L14.1339 35.5403ZM12.5263 36.6881L12.381 36.4846L12.3801 36.4852L12.5263 36.6881ZM8.02312 36.313L8.20083 36.1371L8.19987 36.1362L8.02312 36.313ZM5.67962 33.9702L5.85637 33.7934L5.85604 33.7931L5.67962 33.9702ZM5.30382 29.4631L5.50715 29.6086L5.50747 29.6081L5.30382 29.4631ZM6.45544 27.8458L6.65908 27.9909L6.74534 27.8697L6.68007 27.7361L6.45544 27.8458ZM5.8637 26.4325L6.09951 26.3495L6.05058 26.2105L5.90529 26.186L5.8637 26.4325ZM3.91991 26.1046L3.9615 25.8581L3.96034 25.8579L3.91991 26.1046ZM1.0006 22.6517L1.2506 22.6529L1.2506 22.6517L1.0006 22.6517ZM1.00048 19.3476L1.25051 19.3476L1.25045 19.3434L1.00048 19.3476ZM3.33617 22.6517L3.58617 22.6526V22.6517H3.33617ZM4.29595 23.7922L4.25414 24.0387L4.25495 24.0388L4.29595 23.7922ZM6.87939 24.2217L6.83838 24.4684L6.84006 24.4686L6.87939 24.2217ZM7.8872 25.0968L7.64826 25.1704L7.64915 25.1732L7.8872 25.0968ZM8.82305 27.3539L8.60077 27.4684L8.60258 27.4718L8.82305 27.3539ZM8.73504 28.6744L8.53215 28.5284L8.53158 28.5292L8.73504 28.6744ZM7.20733 30.814L7.00387 30.6687L7.00317 30.6697L7.20733 30.814ZM7.33538 32.3064L7.51213 32.1296L7.51195 32.1295L7.33538 32.3064ZM9.67895 34.6492L9.85767 34.4743L9.85569 34.4724L9.67895 34.6492ZM11.1586 34.7819L11.3033 34.9858L11.3036 34.9856L11.1586 34.7819ZM13.2942 33.2623L13.4391 33.466L13.4413 33.4644L13.2942 33.2623ZM14.6219 33.1686L14.5046 33.3894L14.507 33.3907L14.6219 33.1686ZM16.8774 34.106L16.8012 34.3441L16.8047 34.3452L16.8774 34.106ZM17.7573 35.1059L18.0038 35.0647L18.0037 35.0641L17.7573 35.1059ZM18.1892 37.691L18.4359 37.6502L18.4358 37.6498L18.1892 37.691ZM19.333 38.6595V38.4095H19.3326L19.333 38.6595ZM22.6523 38.6595L22.6529 38.4095H22.6523V38.6595ZM23.7961 37.6997L24.0425 37.7425L24.0428 37.7402L23.7961 37.6997ZM24.2201 35.1138L24.4668 35.1543L24.4668 35.1542L24.2201 35.1138ZM25.0918 34.114L25.1654 34.353L25.1667 34.3526L25.0918 34.114ZM27.2755 33.2159L27.1631 32.9926L27.1609 32.9937L27.2755 33.2159ZM27.8594 33.0759L27.8604 33.3259L27.8612 33.3259L27.8594 33.0759ZM28.5952 33.3102L28.4492 33.5132L28.4505 33.5141L28.5952 33.3102ZM30.7627 34.8483L30.908 34.6449L30.9074 34.6445L30.7627 34.8483ZM32.2344 34.7156L32.0576 34.5387L32.055 34.5414L32.2344 34.7156ZM34.5859 32.3649L34.4107 32.1865L34.4092 32.188L34.5859 32.3649ZM34.7139 30.8883L34.9171 30.7428L34.9164 30.7418L34.7139 30.8883ZM33.1942 28.7872L32.9915 28.9335L32.9916 28.9337L33.1942 28.7872ZM33.1062 27.4514L33.3263 27.5699L33.3271 27.5686L33.1062 27.4514ZM34.0502 25.2023L34.2885 25.2779L34.289 25.2763L34.0502 25.2023ZM35.0498 24.3352L35.0893 24.5821L35.0918 24.5817L35.0498 24.3352ZM37.6654 23.8897L37.6255 23.6429L37.6234 23.6433L37.6654 23.8897ZM38.633 22.75L38.383 22.75L38.383 22.7506L38.633 22.75ZM38.6332 19.4378L38.3832 19.4372V19.4378L38.6332 19.4378ZM37.6654 18.2972L37.6239 18.5438L37.6253 18.544L37.6654 18.2972ZM35.1139 17.8678L35.1554 17.6212L35.1521 17.6207L35.1139 17.8678ZM34.1141 16.9879L34.3544 16.9187L34.3529 16.914L34.1141 16.9879ZM33.1863 14.7228L32.9641 14.8374L32.9642 14.8377L33.1863 14.7228ZM33.2822 13.4031L33.4855 13.5486L33.486 13.5479L33.2822 13.4031ZM34.818 11.2435L34.6162 11.0959L34.6143 11.0986L34.818 11.2435ZM34.698 9.75982L34.5215 9.93689L34.5225 9.9379L34.698 9.75982ZM32.3465 7.41627L32.523 7.23919L32.5227 7.23882L32.3465 7.41627ZM32.3385 7.40827L32.1596 7.58293L32.1624 7.58572L32.3385 7.40827ZM31.5306 7.07232L31.5295 7.32234L31.533 7.32231L31.5306 7.07232ZM30.8588 7.28348L30.7148 7.07911L30.7127 7.08057L30.8588 7.28348ZM28.7472 8.80317L28.6011 8.60025L28.6005 8.60075L28.7472 8.80317ZM27.4116 8.8895L27.531 8.66986L27.5292 8.66889L27.4116 8.8895ZM25.156 7.94414L25.0803 8.18241L25.0812 8.18268L25.156 7.94414ZM24.2924 6.94434L24.5391 6.9041L24.5388 6.90215L24.2924 6.94434ZM23.8442 4.32728L23.5971 4.36544L23.5978 4.36947L23.8442 4.32728ZM22.7084 3.35866V3.60867L22.7098 3.60866L22.7084 3.35866ZM19.3971 3.35866L19.3956 3.60866H19.3971V3.35866ZM18.2533 4.32728L18.4999 4.36896L18.5002 4.36704L18.2533 4.32728ZM17.8213 6.88195L17.5748 6.84026L17.5744 6.84293L17.8213 6.88195ZM16.9415 7.88175L16.8714 7.64175L16.8681 7.64279L16.9415 7.88175ZM14.598 8.85033L14.7138 9.07189L14.7146 9.07144L14.598 8.85033ZM13.2782 8.75676L13.4241 8.55375L13.4231 8.55307L13.2782 8.75676ZM11.1426 7.23708L10.9964 7.4399L10.9976 7.44077L11.1426 7.23708ZM10.4788 7.02672L10.4743 7.27679L10.4814 7.27671L10.4788 7.02672ZM9.66289 7.36982L9.83975 7.54666L9.84463 7.5415L9.66289 7.36982ZM7.31145 9.72136L7.48712 9.89925L7.48823 9.89814L7.31145 9.72136ZM7.18334 11.2051L6.97977 11.3502L6.98012 11.3507L7.18334 11.2051ZM8.71117 13.3374L8.91477 13.1924L8.91439 13.1918L8.71117 13.3374ZM8.80712 14.6652L9.02904 14.7803L9.02947 14.7795L8.80712 14.6652ZM7.86327 16.9231L7.6254 16.846L7.62392 16.8509L7.86327 16.9231ZM6.86346 17.7973L6.82389 17.5504L6.82171 17.5508L6.86346 17.7973ZM4.28002 18.2348L4.32062 18.4815L4.32177 18.4813L4.28002 18.2348ZM3.33617 19.3594H3.58619L3.58616 19.3566L3.33617 19.3594ZM3.93741 16.134L5.88901 15.806L5.80616 15.313L3.85456 15.6409L3.93741 16.134ZM6.08303 15.6436C6.2528 15.168 6.44705 14.7016 6.66506 14.2461L6.21407 14.0303C5.9886 14.5013 5.78771 14.9837 5.61214 15.4754L6.08303 15.6436ZM6.64286 13.9927L5.491 12.3834L5.08442 12.6744L6.23627 14.2837L6.64286 13.9927ZM5.49102 12.3834C4.56652 11.0915 4.7143 9.31991 5.84008 8.199L5.4873 7.84468C4.1879 9.13845 4.01733 11.1832 5.0844 12.6744L5.49102 12.3834ZM5.84044 8.19865L8.18394 5.8559L7.83045 5.50229L5.48694 7.84504L5.84044 8.19865ZM8.18479 5.85505C9.30008 4.72932 11.0671 4.57875 12.3569 5.49947L12.6474 5.09252C11.1581 4.02933 9.11751 4.20318 7.8296 5.50315L8.18479 5.85505ZM12.3567 5.49933L13.9725 6.65508L14.2634 6.2484L12.6476 5.09266L12.3567 5.49933ZM14.2248 6.67778C14.713 6.44706 15.2173 6.23982 15.7138 6.0625L15.5456 5.59163C15.0343 5.77426 14.5148 5.98773 14.0112 6.22571L14.2248 6.67778ZM15.8763 5.8683L16.1962 3.95509L15.7031 3.87262L15.3831 5.78583L15.8763 5.8683ZM16.1962 3.95523C16.4589 2.38974 17.8166 1.24481 19.4041 1.25003L19.4057 0.750037C17.5735 0.744004 16.0063 2.0655 15.7031 3.87248L16.1962 3.95523ZM19.4049 1.25004H22.7162V0.750036H19.4049V1.25004ZM22.7174 1.25003C24.3036 1.24285 25.6598 2.38922 25.917 3.95436L26.4104 3.87329C26.1134 2.06569 24.547 0.741746 22.7151 0.750039L22.7174 1.25003ZM25.9172 3.95555L26.253 5.9392L26.746 5.85574L26.4102 3.87209L25.9172 3.95555ZM26.4147 6.13263C26.8883 6.30349 27.353 6.49829 27.8069 6.71628L28.0234 6.26557C27.5542 6.04024 27.0739 5.83889 26.5843 5.6623L26.4147 6.13263ZM28.0606 6.69428L29.6443 5.56174L29.3535 5.15503L27.7697 6.28757L28.0606 6.69428ZM29.6446 5.56151C30.9395 4.63239 32.717 4.77996 33.8408 5.90983L34.1953 5.55722C32.8985 4.2534 30.8473 4.08313 29.3531 5.15527L29.6446 5.56151ZM33.8416 5.9106L36.193 8.25411L36.546 7.89996L34.1945 5.55645L33.8416 5.9106ZM36.1931 8.25417C37.3185 9.37496 37.4662 11.1461 36.542 12.4378L36.9487 12.7288C38.0154 11.2378 37.8448 9.19353 36.5459 7.89989L36.1931 8.25417ZM36.5417 12.4383L35.374 14.0788L35.7813 14.3688L36.949 12.7283L36.5417 12.4383ZM35.3519 14.3313C35.5677 14.7845 35.7564 15.2502 35.9168 15.7258L36.3906 15.566C36.2238 15.0716 36.0277 14.5874 35.8033 14.1163L35.3519 14.3313ZM36.1126 15.8925L38.032 16.2124L38.1142 15.7192L36.1948 15.3993L36.1126 15.8925ZM38.0318 16.2124C39.596 16.4746 40.7399 17.8311 40.7345 19.4171L41.2345 19.4188C41.2408 17.588 39.9201 16.022 38.1144 15.7193L38.0318 16.2124ZM40.7345 19.418L40.7346 22.7301L41.2346 22.7301L41.2345 19.4179L40.7345 19.418ZM40.7346 22.7313C40.7422 24.3178 39.5972 25.6754 38.0321 25.9355L38.1141 26.4288C39.9213 26.1284 41.2434 24.5608 41.2346 22.7289L40.7346 22.7313ZM38.0314 25.9357L36.0478 26.2716L36.1313 26.7646L38.1149 26.4287L38.0314 25.9357ZM35.8549 26.4321C35.6817 26.9044 35.485 27.3701 35.2649 27.8229L35.7146 28.0415C35.9424 27.5729 36.1456 27.0916 36.3243 26.6042L35.8549 26.4321ZM35.2868 28.0783L36.4226 29.6563L36.8284 29.3643L35.6926 27.7862L35.2868 28.0783ZM36.4225 29.6563C37.3507 30.9466 37.2029 32.7203 36.0738 33.839L36.4257 34.1942C37.7295 32.9024 37.9002 30.8543 36.8284 29.3643L36.4225 29.6563ZM36.073 33.8398L33.7292 36.1833L34.0828 36.5369L36.4265 34.1934L36.073 33.8398ZM33.7284 36.1842C32.6132 37.3099 30.846 37.4605 29.5563 36.5397L29.2657 36.9467C30.7551 38.0099 32.7958 37.836 34.0836 36.5361L33.7284 36.1842ZM29.5558 36.5394L27.916 35.3749L27.6265 35.7825L29.2662 36.947L29.5558 36.5394ZM27.6648 35.3525C27.2416 35.5515 26.8012 35.7286 26.3509 35.8905L26.5201 36.361C26.9817 36.195 27.4371 36.0121 27.8776 35.8049L27.6648 35.3525ZM26.189 36.0843L25.861 38.0368L26.3541 38.1196L26.6821 36.1672L26.189 36.0843ZM25.8609 38.0374C25.6016 39.6059 24.2429 40.7548 22.6531 40.75L22.6516 41.25C24.4866 41.2555 26.0549 39.9294 26.3542 38.1189L25.8609 38.0374ZM22.6523 40.75H19.3329V41.25H22.6523V40.75ZM19.3318 40.75C17.7414 40.7571 16.3816 39.6073 16.1243 38.0377L15.6308 38.1186C15.928 39.9307 17.4979 41.2581 19.334 41.25L19.3318 40.75ZM16.1241 38.0368L15.7962 36.0844L15.3031 36.1672L15.631 38.1196L16.1241 38.0368ZM15.6333 35.8902C15.1597 35.7221 14.695 35.5299 14.2411 35.3145L14.0267 35.7662C14.496 35.9889 14.9764 36.1876 15.4661 36.3614L15.6333 35.8902ZM13.9886 35.3368L12.381 36.4846L12.6716 36.8915L14.2792 35.7438L13.9886 35.3368ZM12.3801 36.4852C11.0912 37.414 9.31815 37.2663 8.20083 36.1371L7.84542 36.4888C9.13593 37.793 11.1838 37.9635 12.6724 36.8909L12.3801 36.4852ZM8.19987 36.1362L5.85637 33.7934L5.50287 34.147L7.84638 36.4898L8.19987 36.1362ZM5.85604 33.7931C4.73048 32.672 4.5828 30.9006 5.50715 29.6086L5.1005 29.3176C4.03364 30.8089 4.20408 32.8534 5.5032 34.1473L5.85604 33.7931ZM5.50747 29.6081L6.65908 27.9909L6.25179 27.7008L5.10018 29.3181L5.50747 29.6081ZM6.68007 27.7361C6.45993 27.2855 6.26603 26.8225 6.09951 26.3495L5.62789 26.5155C5.80084 27.0068 6.00221 27.4876 6.2308 27.9556L6.68007 27.7361ZM5.90529 26.186L3.9615 25.8581L3.87833 26.3511L5.82211 26.679L5.90529 26.186ZM3.96034 25.8579C2.39212 25.6009 1.24323 24.2421 1.2506 22.6529L0.750605 22.6506C0.742101 24.4856 2.06868 26.0546 3.87949 26.3513L3.96034 25.8579ZM1.2506 22.6517L1.25048 19.3476L0.75048 19.3476L0.750602 22.6517L1.2506 22.6517ZM1.25045 19.3434C1.22412 17.7551 2.36791 16.3883 3.93597 16.1342L3.856 15.6406C2.04272 15.9345 0.720075 17.515 0.750514 19.3517L1.25045 19.3434ZM3.08618 22.6507C3.08358 23.3368 3.57775 23.924 4.25414 24.0387L4.33777 23.5457C3.90246 23.4719 3.5845 23.094 3.58617 22.6526L3.08618 22.6507ZM4.25495 24.0388L6.83839 24.4683L6.92039 23.9751L4.33695 23.5456L4.25495 24.0388ZM6.84006 24.4686C7.22121 24.5293 7.53467 24.8015 7.64827 25.1704L8.12612 25.0232C7.95641 24.4722 7.48813 24.0656 6.91872 23.9748L6.84006 24.4686ZM7.64915 25.1732C7.90263 25.9631 8.2209 26.7308 8.6008 27.4684L9.0453 27.2394C8.67801 26.5264 8.37031 25.7842 8.12525 25.0204L7.64915 25.1732ZM8.60258 27.4718C8.78263 27.8085 8.7553 28.2184 8.53215 28.5284L8.93793 28.8205C9.27252 28.3558 9.31355 27.7411 9.04352 27.236L8.60258 27.4718ZM8.53158 28.5292L7.00387 30.6687L7.41079 30.9592L8.9385 28.8197L8.53158 28.5292ZM7.00317 30.6697C6.60622 31.2314 6.67175 31.9975 7.15881 32.4834L7.51195 32.1295C7.1975 31.8157 7.15511 31.321 7.41149 30.9583L7.00317 30.6697ZM7.15863 32.4833L9.5022 34.826L9.85569 34.4724L7.51213 32.1296L7.15863 32.4833ZM9.50023 34.824C9.97962 35.3141 10.7443 35.3826 11.3033 34.9858L11.0139 34.5781C10.6554 34.8326 10.165 34.7886 9.85766 34.4744L9.50023 34.824ZM11.3036 34.9856L13.4391 33.466L13.1492 33.0586L11.0137 34.5782L11.3036 34.9856ZM13.4413 33.4644C13.7522 33.238 14.1651 33.2089 14.5046 33.3894L14.7393 32.9479C14.2308 32.6776 13.6126 32.7212 13.147 33.0601L13.4413 33.4644ZM14.507 33.3907C15.2437 33.7721 16.011 34.091 16.8012 34.3441L16.9537 33.8679C16.1902 33.6234 15.4488 33.3152 14.7369 32.9466L14.507 33.3907ZM16.8047 34.3452C17.1731 34.4573 17.4465 34.768 17.5108 35.1476L18.0037 35.0641C17.9078 34.4977 17.4999 34.0341 16.9502 33.8669L16.8047 34.3452ZM17.5107 35.1471L17.9426 37.7322L18.4358 37.6498L18.0038 35.0647L17.5107 35.1471ZM17.9425 37.7317C18.055 38.4121 18.6439 38.9107 19.3334 38.9095L19.3326 38.4095C18.888 38.4103 18.5083 38.0888 18.4359 37.6502L17.9425 37.7317ZM19.333 38.9095H22.6523V38.4095H19.333V38.9095ZM22.6517 38.9095C23.3377 38.9112 23.925 38.4184 24.0424 37.7425L23.5498 37.6569C23.4741 38.0928 23.0954 38.4106 22.6529 38.4095L22.6517 38.9095ZM24.0428 37.7402L24.4668 35.1543L23.9734 35.0734L23.5494 37.6593L24.0428 37.7402ZM24.4668 35.1542C24.5286 34.7761 24.7993 34.4657 25.1654 34.353L25.0182 33.8751C24.4707 34.0438 24.0658 34.508 23.9734 35.0735L24.4668 35.1542ZM25.1667 34.3526C25.9327 34.1121 26.6766 33.8062 27.3901 33.438L27.1609 32.9937C26.4728 33.3486 25.7555 33.6437 25.0169 33.8755L25.1667 34.3526ZM27.3879 33.4392C27.5345 33.3653 27.6962 33.3266 27.8604 33.3259L27.8583 32.8259C27.6167 32.8269 27.3788 32.884 27.1631 32.9926L27.3879 33.4392ZM27.8612 33.3259C28.0721 33.3244 28.278 33.3899 28.4492 33.5132L28.7412 33.1073C28.484 32.9222 28.1745 32.8236 27.8576 32.8259L27.8612 33.3259ZM28.4505 33.5141L30.618 35.0522L30.9074 34.6445L28.7399 33.1064L28.4505 33.5141ZM30.6174 35.0518C31.1739 35.4492 31.9374 35.3803 32.4137 34.8897L32.055 34.5414C31.7509 34.8547 31.2633 34.8987 30.908 34.6449L30.6174 35.0518ZM32.4111 34.8924L34.7627 32.5417L34.4092 32.188L32.0576 34.5388L32.4111 34.8924ZM34.7611 32.5432C35.2495 32.0634 35.3156 31.2994 34.9171 30.7428L34.5106 31.0338C34.7657 31.3903 34.7234 31.8794 34.4107 32.1865L34.7611 32.5432ZM34.9164 30.7418L33.3968 28.6407L32.9916 28.9337L34.5113 31.0348L34.9164 30.7418ZM33.3969 28.6408C33.1701 28.3268 33.1427 27.9109 33.3263 27.5699L32.8861 27.3329C32.6117 27.8426 32.6526 28.4643 32.9915 28.9335L33.3969 28.6408ZM33.3271 27.5686C33.7158 26.8355 34.0376 26.0688 34.2885 25.2779L33.8119 25.1267C33.5701 25.889 33.26 26.6278 32.8853 27.3343L33.3271 27.5686ZM34.289 25.2763C34.4019 24.9115 34.7121 24.6424 35.0893 24.5821L35.0103 24.0884C34.4453 24.1788 33.9806 24.5818 33.8114 25.1283L34.289 25.2763ZM35.0918 24.5817L37.7074 24.1362L37.6234 23.6433L35.0078 24.0888L35.0918 24.5817ZM37.7053 24.1365C38.3855 24.0264 38.8848 23.4383 38.883 22.7493L38.383 22.7506C38.3842 23.1938 38.063 23.5721 37.6255 23.6429L37.7053 24.1365ZM38.883 22.75L38.8832 19.4378L38.3832 19.4378L38.383 22.75L38.883 22.75ZM38.8832 19.4384C38.8848 18.7493 38.3857 18.161 37.7055 18.0505L37.6253 18.544C38.063 18.6151 38.3842 18.9937 38.3832 19.4372L38.8832 19.4384ZM37.7069 18.0507L35.1554 17.6212L35.0724 18.1143L37.6239 18.5438L37.7069 18.0507ZM35.1521 17.6207C34.7721 17.5619 34.4608 17.288 34.3544 16.9187L33.8739 17.0572C34.0343 17.6137 34.5033 18.0263 35.0757 18.1148L35.1521 17.6207ZM34.3529 16.914C34.1068 16.1189 33.7907 15.3472 33.4083 14.6079L32.9642 14.8377C33.333 15.5506 33.6379 16.2949 33.8753 17.0619L34.3529 16.914ZM33.4084 14.6082C33.2332 14.2685 33.2629 13.8593 33.4855 13.5486L33.079 13.2575C32.7471 13.7208 32.7028 14.331 32.9641 14.8374L33.4084 14.6082ZM33.486 13.5479L35.0217 11.3884L34.6143 11.0986L33.0785 13.2582L33.486 13.5479ZM35.0198 11.3911C35.4263 10.8351 35.3641 10.0652 34.8734 9.58173L34.5225 9.9379C34.8366 10.2473 34.8764 10.7401 34.6162 11.0959L35.0198 11.3911ZM34.8745 9.58274L32.523 7.23919L32.1701 7.59334L34.5215 9.93689L34.8745 9.58274ZM32.5227 7.23882L32.5146 7.23082L32.1624 7.58572L32.1704 7.59371L32.5227 7.23882ZM32.5174 7.23363C32.2575 6.96745 31.9003 6.81883 31.5283 6.82233L31.533 7.32231C31.7686 7.32009 31.9949 7.41421 32.1596 7.58291L32.5174 7.23363ZM31.5318 6.82232C31.2394 6.82098 30.9538 6.9107 30.7148 7.07912L31.0028 7.48785C31.1568 7.37932 31.3409 7.32145 31.5295 7.32231L31.5318 6.82232ZM30.7127 7.08057L28.6011 8.60025L28.8932 9.00608L31.0048 7.4864L30.7127 7.08057ZM28.6005 8.60075C28.2871 8.82787 27.8711 8.85477 27.531 8.66987L27.2922 9.10913C27.8015 9.38605 28.4245 9.34578 28.8939 9.00559L28.6005 8.60075ZM27.5292 8.66889C26.7946 8.27731 26.0252 7.95483 25.2308 7.70561L25.0812 8.18268C25.8459 8.42263 26.5867 8.73311 27.294 9.11012L27.5292 8.66889ZM25.2317 7.70587C24.8683 7.59046 24.6005 7.28048 24.5391 6.90411L24.0456 6.98458C24.1373 7.54692 24.5374 8.00998 25.0803 8.18241L25.2317 7.70587ZM24.5388 6.90215L24.0906 4.28508L23.5978 4.36947L24.0459 6.98654L24.5388 6.90215ZM24.0913 4.28912C23.986 3.60709 23.3972 3.10498 22.7071 3.10867L22.7098 3.60866C23.1521 3.6063 23.5296 3.9282 23.5972 4.36543L24.0913 4.28912ZM22.7084 3.10866H19.3971V3.60866H22.7084V3.10866ZM19.3985 3.10867C18.7074 3.10466 18.1165 3.60514 18.0065 4.28751L18.5002 4.36704C18.5709 3.92802 18.9511 3.60608 19.3956 3.60866L19.3985 3.10867ZM18.0068 4.28559L17.5748 6.84026L18.0678 6.92363L18.4998 4.36896L18.0068 4.28559ZM17.5744 6.84293C17.5144 7.22283 17.2406 7.53397 16.8714 7.64177L17.0116 8.12173C17.5665 7.95966 17.978 7.49196 18.0683 6.92097L17.5744 6.84293ZM16.8681 7.64279C16.0434 7.89631 15.2444 8.22659 14.4813 8.62922L14.7146 9.07144C15.4501 8.68337 16.2202 8.36505 17.015 8.12071L16.8681 7.64279ZM14.4821 8.62877C14.1436 8.80573 13.7343 8.77672 13.4241 8.55375L13.1323 8.95978C13.596 9.293 14.2077 9.3364 14.7138 9.07189L14.4821 8.62877ZM13.4231 8.55307L11.2875 7.03339L10.9976 7.44077L13.1332 8.96046L13.4231 8.55307ZM11.2887 7.03426C11.0523 6.86387 10.7675 6.77364 10.4761 6.77674L10.4814 7.27671C10.6661 7.27474 10.8466 7.33194 10.9964 7.4399L11.2887 7.03426ZM10.4832 6.77676C10.1048 6.77005 9.74105 6.92304 9.48116 7.19814L9.84463 7.5415C10.008 7.3686 10.2365 7.27247 10.4743 7.27668L10.4832 6.77676ZM9.48611 7.19304L7.13467 9.54459L7.48823 9.89814L9.83967 7.54659L9.48611 7.19304ZM7.13579 9.54349C6.64733 10.0259 6.58135 10.7913 6.97977 11.3502L7.38691 11.06C7.13091 10.7009 7.17333 10.2091 7.48712 9.89924L7.13579 9.54349ZM6.98012 11.3507L8.50795 13.483L8.91439 13.1918L7.38656 11.0595L6.98012 11.3507ZM8.50757 13.4825C8.73108 13.7962 8.76085 14.2083 8.58477 14.5509L9.02947 14.7795C9.29102 14.2706 9.24681 13.6583 8.91477 13.1924L8.50757 13.4825ZM8.5852 14.5501C8.20258 15.2877 7.88158 16.0556 7.62545 16.8461L8.1011 17.0002C8.34875 16.2359 8.6591 15.4934 9.02904 14.7803L8.5852 14.5501ZM7.62392 16.8509C7.5132 17.2181 7.20247 17.4898 6.82389 17.5504L6.90302 18.0441C7.47073 17.9531 7.93662 17.5458 8.10263 16.9953L7.62392 16.8509ZM6.82171 17.5508L4.23827 17.9883L4.32177 18.4813L6.9052 18.0438L6.82171 17.5508ZM4.23942 17.9882C3.56845 18.0986 3.07866 18.6823 3.08619 19.3622L3.58616 19.3566C3.58136 18.9236 3.89332 18.5518 4.32062 18.4815L4.23942 17.9882ZM3.08617 19.3594V22.6517H3.58617V19.3594H3.08617Z" fill="white"/>
<path fill-rule="evenodd" clip-rule="evenodd" d="M20.9885 13.224C25.2805 13.2253 28.759 16.7056 28.7581 20.9977C28.7581 25.2881 25.2789 28.7677 20.9868 28.7681C16.694 28.7681 13.2145 25.2889 13.214 20.9968C13.2205 16.7061 16.6976 13.2296 20.9884 13.224L20.9885 13.224ZM20.9885 26.4214C23.9863 26.42 26.4155 23.989 26.4146 20.9913C26.4138 17.9935 23.9831 15.5639 20.9854 15.5644C17.9884 15.5644 15.5581 17.9943 15.5577 20.9921C15.5611 23.9902 17.9903 26.4201 20.9884 26.4245L20.9885 26.4214Z" fill="#14213D"/>
<path d="M20.9885 13.224L20.8767 13.4476L20.9294 13.474L20.9884 13.474L20.9885 13.224ZM28.7581 20.9977L28.5081 20.9976V20.9977H28.7581ZM20.9868 28.7681V29.0181H20.9869L20.9868 28.7681ZM13.214 20.9968L12.964 20.9965L12.964 20.9969L13.214 20.9968ZM20.9884 13.224L21.1002 13.0004L21.0473 12.9739L20.9881 12.974L20.9884 13.224ZM20.9885 26.4214L20.9884 26.1714L20.7432 26.1715L20.7385 26.4165L20.9885 26.4214ZM26.4146 20.9913L26.6646 20.9912L26.4146 20.9913ZM20.9854 15.5644V15.8144H20.9854L20.9854 15.5644ZM15.5577 20.9921L15.3077 20.992L15.3077 20.9924L15.5577 20.9921ZM20.9884 26.4245L20.9881 26.6745L21.2337 26.6749L21.2384 26.4293L20.9884 26.4245ZM20.9884 13.474C25.1423 13.4753 28.509 16.8436 28.5081 20.9976L29.0081 20.9977C29.009 16.5676 25.4186 12.9754 20.9886 12.974L20.9884 13.474ZM28.5081 20.9977C28.5081 25.15 25.1408 28.5177 20.9868 28.5181L20.9869 29.0181C25.4169 29.0176 29.0081 25.4262 29.0081 20.9977H28.5081ZM20.9868 28.5181C16.832 28.5181 13.4645 25.1508 13.464 20.9968L12.964 20.9969C12.9645 25.427 16.5559 29.0181 20.9868 29.0181V28.5181ZM13.464 20.9972C13.4703 16.8442 16.8358 13.4795 20.9887 13.474L20.9881 12.974C16.5595 12.9798 12.9707 16.5679 12.964 20.9965L13.464 20.9972ZM20.8766 13.4476L20.8767 13.4476L21.1003 13.0004L21.1002 13.0004L20.8766 13.4476ZM20.9886 26.6714C24.1244 26.67 26.6655 24.127 26.6646 20.9912L26.1646 20.9913C26.1654 23.851 23.8481 26.1701 20.9884 26.1714L20.9886 26.6714ZM26.6646 20.9912C26.6637 17.8554 24.1211 15.3139 20.9853 15.3144L20.9854 15.8144C23.8451 15.8139 26.1638 18.1316 26.1646 20.9913L26.6646 20.9912ZM20.9854 15.3144C17.8503 15.3144 15.3081 17.8562 15.3077 20.992L15.8077 20.9921C15.808 18.1324 18.1265 15.8144 20.9854 15.8144V15.3144ZM15.3077 20.9924C15.3113 24.1284 17.8521 26.6699 20.9881 26.6745L20.9888 26.1745C18.1285 26.1703 15.811 23.8521 15.8077 20.9918L15.3077 20.9924ZM21.2384 26.4293L21.2384 26.4262L20.7385 26.4165L20.7385 26.4197L21.2384 26.4293Z" fill="white"/>
</svg>
