<svg width="42" height="42" viewBox="0 0 42 42" fill="none" xmlns="http://www.w3.org/2000/svg">
<path fill-rule="evenodd" clip-rule="evenodd" d="M2.14893 7.52761H8.5312C8.99996 9.98934 11.0737 11.7736 13.4992 11.802C15.9248 11.8305 18.0371 10.0954 18.5597 7.64529H39.7554C40.3763 7.62719 40.8706 7.10131 40.8706 6.45876C40.8706 5.81621 40.3763 5.29033 39.7554 5.27223H18.5588C18.0887 2.81193 16.0158 1.02926 13.5915 1.00036C11.1671 0.971455 9.05499 2.70427 8.53025 5.1527H2.14804C1.51399 5.1527 1 5.68433 1 6.34016C1 6.99598 1.51399 7.52761 2.14801 7.52761H2.14893ZM13.5474 3.3721C14.3074 3.36832 15.037 3.68075 15.572 4.23916C16.1069 4.79754 16.4024 5.55494 16.3919 6.34101C16.4371 7.42414 15.9042 8.44563 15.0041 9.00114C14.1041 9.55664 12.9819 9.55664 12.0818 9.00114C11.1817 8.44559 10.6488 7.4241 10.6941 6.34097C10.684 5.55402 10.9805 4.79601 11.5167 4.23771C12.053 3.67939 12.7839 3.36776 13.5447 3.37298L13.5474 3.3721Z" fill="#14213D"/>
<path d="M8.5312 7.52761L8.77679 7.48085L8.73809 7.27761H8.5312V7.52761ZM13.4992 11.802L13.4963 12.052H13.4963L13.4992 11.802ZM18.5597 7.64529V7.39529H18.3574L18.3152 7.59313L18.5597 7.64529ZM39.7554 7.64529V7.89539L39.7626 7.89518L39.7554 7.64529ZM39.7554 5.27223L39.7627 5.02223H39.7554V5.27223ZM18.5588 5.27223L18.3132 5.31915L18.352 5.52223H18.5588V5.27223ZM8.53025 5.1527V5.4027H8.73235L8.7747 5.20509L8.53025 5.1527ZM13.5474 3.3721L13.5462 3.12211L13.5074 3.1223L13.4705 3.13422L13.5474 3.3721ZM15.572 4.23916L15.3914 4.41211L15.3914 4.41212L15.572 4.23916ZM16.3919 6.34101L16.1415 6.33766L16.1421 6.35143L16.3919 6.34101ZM15.0041 9.00114L15.1354 9.21389L15.1354 9.21388L15.0041 9.00114ZM12.0818 9.00114L11.9505 9.21388L11.9505 9.21389L12.0818 9.00114ZM10.6941 6.34097L10.9442 6.35142L10.9441 6.33779L10.6941 6.34097ZM11.5167 4.23771L11.3364 4.06453L11.3364 4.06454L11.5167 4.23771ZM13.5447 3.37298L13.543 3.62298L13.5833 3.62325L13.6216 3.61086L13.5447 3.37298ZM2.14893 7.77761H8.5312V7.27761H2.14893V7.77761ZM8.28562 7.57438C8.77553 10.1473 10.9461 12.0221 13.4963 12.052L13.5022 11.5521C11.2012 11.525 9.22438 9.83141 8.77679 7.48085L8.28562 7.57438ZM13.4963 12.052C16.0465 12.0819 18.258 10.2584 18.8042 7.69744L18.3152 7.59313C17.8163 9.9324 15.803 11.579 13.5022 11.5521L13.4963 12.052ZM18.5597 7.89529H39.7554V7.39529H18.5597V7.89529ZM39.7626 7.89518C40.5263 7.87292 41.1206 7.22887 41.1206 6.45876H40.6206C40.6206 6.97375 40.2263 7.38145 39.7481 7.39539L39.7626 7.89518ZM41.1206 6.45876C41.1206 5.68866 40.5263 5.0446 39.7627 5.02234L39.7481 5.52213C40.2263 5.53606 40.6206 5.94376 40.6206 6.45876H41.1206ZM39.7554 5.02223H18.5588V5.52223H39.7554V5.02223ZM18.8043 5.22532C18.3131 2.65394 16.1434 0.780759 13.5944 0.750374L13.5885 1.25034C15.8883 1.27775 17.8644 2.96993 18.3132 5.31915L18.8043 5.22532ZM13.5944 0.750374C11.0454 0.719987 8.83428 2.54113 8.2858 5.10031L8.7747 5.20509C9.2757 2.86742 11.2887 1.22292 13.5885 1.25034L13.5944 0.750374ZM8.53025 4.9027H2.14804V5.4027H8.53025V4.9027ZM2.14804 4.9027C1.36803 4.9027 0.75 5.55428 0.75 6.34016H1.25C1.25 5.81438 1.65994 5.4027 2.14804 5.4027V4.9027ZM0.75 6.34016C0.75 7.12603 1.36802 7.77761 2.14801 7.77761V7.27761C1.65995 7.27761 1.25 6.86594 1.25 6.34016H0.75ZM2.14801 7.77761H2.14893V7.27761H2.14801V7.77761ZM13.5487 3.6221C14.2387 3.61866 14.903 3.90226 15.3914 4.41211L15.7525 4.06621C15.171 3.45925 14.3761 3.11797 13.5462 3.12211L13.5487 3.6221ZM15.3914 4.41212C15.8802 4.92224 16.1516 5.61598 16.1419 6.33767L16.6419 6.34435C16.6533 5.49389 16.3337 4.67283 15.7525 4.06621L15.3914 4.41212ZM16.1421 6.35143C16.1837 7.34702 15.6936 8.28183 14.8728 8.7884L15.1354 9.21388C16.1148 8.60943 16.6905 7.50126 16.6417 6.33059L16.1421 6.35143ZM14.8728 8.7884C14.0532 9.29422 13.0327 9.29422 12.2131 8.7884L11.9505 9.21389C12.9311 9.81906 14.1549 9.81906 15.1354 9.21389L14.8728 8.7884ZM12.2131 8.7884C11.3923 8.28179 10.9023 7.34699 10.9439 6.35141L10.4443 6.33054C10.3954 7.50122 10.9711 8.60939 11.9505 9.21388L12.2131 8.7884ZM10.9441 6.33779C10.9348 5.61527 11.2072 4.92095 11.697 4.41088L11.3364 4.06454C10.7539 4.67107 10.4332 5.49278 10.4441 6.34416L10.9441 6.33779ZM11.697 4.41089C12.1867 3.9011 12.8521 3.61823 13.543 3.62298L13.5464 3.12299C12.7156 3.11728 11.9193 3.45767 11.3364 4.06453L11.697 4.41089ZM13.6216 3.61086L13.6243 3.60999L13.4705 3.13422L13.4678 3.1351L13.6216 3.61086Z" fill="#F5F6FA"/>
<path fill-rule="evenodd" clip-rule="evenodd" d="M39.8686 19.8741H33.4864C32.9264 17.4687 30.8638 15.76 28.4722 15.7201C26.0676 15.7227 23.9855 17.4476 23.4579 19.8741H2.26311C1.64204 19.8921 1.14758 20.418 1.14758 21.0606C1.14758 21.7033 1.64204 22.2292 2.26311 22.2472H23.4596C24.019 24.6534 26.0817 26.363 28.4739 26.403C30.879 26.4003 32.9612 24.6744 33.4882 22.2472H39.8704C40.4915 22.2292 40.986 21.7033 40.986 21.0606C40.986 20.418 40.4915 19.8921 39.8704 19.8741H39.8686ZM28.4719 24.0277C27.31 24.0355 26.2584 23.3176 25.8085 22.2095C25.3586 21.1014 25.5994 19.8221 26.4183 18.9696C27.2372 18.117 28.4724 17.8596 29.5465 18.3177C30.6207 18.7757 31.3216 19.8588 31.3217 21.0607C31.3319 21.8474 31.0356 22.6053 30.4995 23.1635C29.9634 23.7217 29.2326 24.0331 28.4719 24.0277Z" fill="#14213D"/>
<path d="M33.4864 19.8741L33.2429 19.9308L33.2879 20.1241H33.4864V19.8741ZM28.4722 15.7201L28.4763 15.4701L28.4719 15.4701L28.4722 15.7201ZM23.4579 19.8741V20.1241H23.6594L23.7022 19.9272L23.4579 19.8741ZM2.26311 19.8741V19.624L2.25589 19.6242L2.26311 19.8741ZM2.26311 22.2472L2.25589 22.4972H2.26311V22.2472ZM23.4596 22.2472L23.7032 22.1906L23.6582 21.9972H23.4596V22.2472ZM28.4739 26.403L28.4697 26.653L28.4742 26.653L28.4739 26.403ZM33.4882 22.2472V21.9972H33.2866L33.2438 22.1942L33.4882 22.2472ZM39.8704 22.2472V22.4973L39.8776 22.4971L39.8704 22.2472ZM39.8704 19.8741L39.8777 19.6241H39.8704V19.8741ZM28.4719 24.0277L28.4737 23.7776L28.4702 23.7777L28.4719 24.0277ZM25.8085 22.2095L25.5769 22.3036L25.5769 22.3036L25.8085 22.2095ZM26.4183 18.9696L26.238 18.7964L26.238 18.7964L26.4183 18.9696ZM29.5465 18.3177L29.6446 18.0877V18.0877L29.5465 18.3177ZM31.3217 21.0607L31.0716 21.0607L31.0717 21.0639L31.3217 21.0607ZM30.4995 23.1635L30.6798 23.3367L30.6798 23.3367L30.4995 23.1635ZM39.8686 19.6241H33.4864V20.1241H39.8686V19.6241ZM33.7299 19.8174C33.1451 17.3055 30.9879 15.512 28.4763 15.4702L28.468 15.9701C30.7398 16.008 32.7077 17.6319 33.2429 19.9308L33.7299 19.8174ZM28.4719 15.4701C25.9444 15.4728 23.765 17.2851 23.2136 19.821L23.7022 19.9272C24.206 17.6101 26.1909 15.9726 28.4724 15.9701L28.4719 15.4701ZM23.4579 19.6241H2.26311V20.1241H23.4579V19.6241ZM2.25589 19.6242C1.49206 19.6463 0.897583 20.2904 0.897583 21.0606H1.39758C1.39758 20.5456 1.79201 20.1378 2.27033 20.124L2.25589 19.6242ZM0.897583 21.0606C0.897583 21.8309 1.49206 22.475 2.25589 22.4971L2.27033 21.9973C1.79201 21.9835 1.39758 21.5757 1.39758 21.0606H0.897583ZM2.26311 22.4972H23.4596V21.9972H2.26311V22.4972ZM23.2161 22.3038C23.8002 24.8165 25.9576 26.6109 28.4697 26.653L28.4781 26.1531C26.2058 26.115 24.2377 24.4902 23.7032 22.1906L23.2161 22.3038ZM28.4742 26.653C31.0023 26.6501 33.1818 24.8369 33.7325 22.3002L33.2438 22.1942C32.7407 24.512 30.7556 26.1504 28.4736 26.153L28.4742 26.653ZM33.4882 22.4972H39.8704V21.9972H33.4882V22.4972ZM39.8776 22.4971C40.6415 22.475 41.236 21.8309 41.236 21.0606H40.736C40.736 21.5757 40.3415 21.9835 39.8632 21.9973L39.8776 22.4971ZM41.236 21.0606C41.236 20.2904 40.6415 19.6463 39.8776 19.6242L39.8632 20.124C40.3415 20.1378 40.736 20.5456 40.736 21.0606H41.236ZM39.8704 19.6241H39.8686V20.1241H39.8704V19.6241ZM28.4702 23.7777C27.4146 23.7848 26.453 23.1324 26.0401 22.1155L25.5769 22.3036C26.0637 23.5028 27.2054 24.2862 28.4736 24.2777L28.4702 23.7777ZM26.0401 22.1155C25.6268 21.0974 25.8491 19.9231 26.5986 19.1427L26.238 18.7964C25.3497 19.7212 25.0904 21.1055 25.5769 22.3036L26.0401 22.1155ZM26.5986 19.1427C27.3467 18.3639 28.4715 18.131 29.4485 18.5476L29.6446 18.0877C28.4733 17.5882 27.1277 17.8701 26.238 18.7964L26.5986 19.1427ZM29.4485 18.5476C30.4271 18.9649 31.0716 19.9552 31.0717 21.0607L31.5717 21.0606C31.5716 19.7625 30.8144 18.5865 29.6446 18.0877L29.4485 18.5476ZM31.0717 21.0639C31.0811 21.7862 30.8089 22.4804 30.3192 22.9903L30.6798 23.3367C31.2622 22.7302 31.5827 21.9086 31.5716 21.0574L31.0717 21.0639ZM30.3192 22.9903C29.8297 23.5 29.1643 23.7827 28.4737 23.7777L28.4701 24.2777C29.3008 24.2836 30.097 23.9434 30.6798 23.3367L30.3192 22.9903Z" fill="#F5F6FA"/>
<path fill-rule="evenodd" clip-rule="evenodd" d="M39.8668 34.4709H18.784C18.2241 32.0655 16.1615 30.3568 13.7698 30.3169C11.3528 30.2823 9.25087 32.0237 8.75557 34.471L2.26132 34.4709C1.62723 34.4709 1.11328 35.0026 1.11328 35.6584C1.11328 36.3142 1.62723 36.8459 2.26129 36.8459H8.64181C9.20181 39.2513 11.2644 40.96 13.6561 40.9999C16.0731 41.0344 18.175 39.2931 18.6703 36.8459H39.8668C40.5009 36.8459 41.0149 36.3142 41.0149 35.6584C41.0149 35.0026 40.5009 34.4709 39.8668 34.4709ZM13.6563 38.743C12.4945 38.7509 11.4428 38.033 10.993 36.9249C10.5431 35.8168 10.7839 34.5375 11.6028 33.6849C12.4217 32.8324 13.6569 32.575 14.7311 33.0331C15.8052 33.4912 16.5061 34.5742 16.5061 35.776C16.5159 36.5628 16.2193 37.3206 15.6831 37.8787C15.1469 38.4368 14.4162 38.7483 13.6554 38.743H13.6563Z" fill="#14213D"/>
<path d="M18.784 34.4709L18.5405 34.5276L18.5856 34.7209H18.784V34.4709ZM13.7698 30.3169L13.774 30.0669L13.7734 30.0669L13.7698 30.3169ZM8.75557 34.471L8.75557 34.721L8.96004 34.721L9.0006 34.5206L8.75557 34.471ZM2.26132 34.4709L2.26133 34.2209H2.26132V34.4709ZM8.64181 36.8459L8.88529 36.7892L8.84029 36.5959H8.64181V36.8459ZM13.6561 40.9999L13.6519 41.2498L13.6525 41.2498L13.6561 40.9999ZM18.6703 36.8459V36.5959H18.4658L18.4253 36.7963L18.6703 36.8459ZM13.6563 38.743L13.658 38.993L13.6563 38.493V38.743ZM10.993 36.9249L10.7613 37.019L10.7613 37.019L10.993 36.9249ZM14.7311 33.0331L14.8291 32.8031L14.8291 32.8031L14.7311 33.0331ZM16.5061 35.776H16.2561L16.2562 35.7791L16.5061 35.776ZM15.6831 37.8787L15.5028 37.7055L15.5028 37.7055L15.6831 37.8787ZM13.6554 38.743V38.493L13.6537 38.993L13.6554 38.743ZM39.8668 34.2209H18.784V34.7209H39.8668V34.2209ZM19.0275 34.4143C18.4428 31.9023 16.2856 30.1088 13.774 30.0669L13.7656 30.5669C16.0374 30.6047 18.0054 32.2287 18.5405 34.5276L19.0275 34.4143ZM13.7734 30.0669C11.2303 30.0306 9.02854 31.862 8.51054 34.4214L9.0006 34.5206C9.4732 32.1855 11.4753 30.5341 13.7662 30.5669L13.7734 30.0669ZM8.75557 34.221L2.26133 34.2209L2.26132 34.7209L8.75557 34.721L8.75557 34.221ZM2.26132 34.2209C1.48127 34.2209 0.863281 34.8725 0.863281 35.6584H1.36328C1.36328 35.1326 1.7732 34.7209 2.26132 34.7209V34.2209ZM0.863281 35.6584C0.863281 36.4442 1.48126 37.0959 2.26129 37.0959V36.5959C1.7732 36.5959 1.36328 36.1842 1.36328 35.6584H0.863281ZM2.26129 37.0959H8.64181V36.5959H2.26129V37.0959ZM8.39832 36.9025C8.98311 39.4145 11.1403 41.208 13.6519 41.2498L13.6602 40.7499C11.3884 40.7121 9.4205 39.0881 8.88529 36.7892L8.39832 36.9025ZM13.6525 41.2498C16.1956 41.2862 18.3973 39.4548 18.9153 36.8954L18.4253 36.7963C17.9527 39.1313 15.9506 40.7827 13.6596 40.7499L13.6525 41.2498ZM18.6703 37.0959H39.8668V36.5959H18.6703V37.0959ZM39.8668 37.0959C40.6468 37.0959 41.2649 36.4442 41.2649 35.6584H40.7649C40.7649 36.1842 40.3549 36.5959 39.8668 36.5959V37.0959ZM41.2649 35.6584C41.2649 34.8725 40.6468 34.2209 39.8668 34.2209V34.7209C40.3549 34.7209 40.7649 35.1326 40.7649 35.6584H41.2649ZM13.6546 38.4931C12.5991 38.5002 11.6375 37.8477 11.2246 36.8309L10.7613 37.019C11.2482 38.2182 12.3899 39.0016 13.658 38.993L13.6546 38.4931ZM11.2246 36.8309C10.8113 35.8128 11.0335 34.6385 11.7831 33.8581L11.4225 33.5118C10.5342 34.4366 10.2749 35.8209 10.7613 37.019L11.2246 36.8309ZM11.7831 33.8581C12.5312 33.0792 13.6559 32.8464 14.633 33.263L14.8291 32.8031C13.6578 32.3036 12.3121 32.5855 11.4225 33.5118L11.7831 33.8581ZM14.633 33.263C15.6115 33.6804 16.2561 34.6706 16.2561 35.776H16.7561C16.7561 34.4779 15.9989 33.302 14.8291 32.8031L14.633 33.263ZM16.2562 35.7791C16.2652 36.5015 15.9927 37.1956 15.5028 37.7055L15.8634 38.0519C16.446 37.4456 16.7667 36.6241 16.7561 35.7729L16.2562 35.7791ZM15.5028 37.7055C15.0132 38.2151 14.3479 38.4978 13.6572 38.4931L13.6537 38.993C14.4844 38.9988 15.2805 38.6585 15.8634 38.0519L15.5028 37.7055ZM13.6554 38.993H13.6563V38.493H13.6554V38.993Z" fill="#F5F6FA"/>
</svg>
