<svg width="35" height="40" viewBox="0 0 35 40" fill="none" xmlns="http://www.w3.org/2000/svg">
<path fill-rule="evenodd" clip-rule="evenodd" d="M24.0312 2.81854C20.1372 -0.939558 13.9667 -0.939497 10.0729 2.81862C8.16718 4.52527 7.09101 6.97135 7.12006 9.52931C7.06415 12.0927 8.14521 14.5495 10.0729 16.2401C13.9672 19.998 20.1374 19.998 24.0312 16.2401C25.8852 14.4967 26.9511 12.0743 26.9836 9.52933C27.0129 6.97135 25.937 4.52519 24.0312 2.81844V2.81854ZM22.5549 14.8979C21.0925 16.3379 19.1032 17.1142 17.0522 17.0454C15.0051 17.0896 13.0251 16.3169 11.5493 14.898C10.0759 13.5032 9.24921 11.5581 9.26801 9.52931C9.21528 7.53267 10.051 5.61556 11.5493 4.29485C13.0114 2.85492 15.0009 2.07858 17.0522 2.14748C19.0991 2.10324 21.079 2.87598 22.5549 4.29489C24.0019 5.65244 24.8268 7.54526 24.8364 9.52931C24.8288 11.5528 24.0063 13.488 22.5549 14.8979V14.8979Z" fill="#14213D"/>
<path fill-rule="evenodd" clip-rule="evenodd" d="M34.2318 28.3193C34.088 27.4503 33.8632 26.5966 33.5607 25.7693C33.2594 24.94 32.9005 24.1327 32.4867 23.3533C32.0599 22.6012 31.5162 21.9217 30.8763 21.3401C30.1971 20.7669 29.4259 20.3131 28.5949 19.998C27.6591 19.6143 26.6532 19.4314 25.6422 19.4611C25.0485 19.5121 24.4857 19.7466 24.0316 20.1322C23.6027 20.43 23.1542 20.699 22.6896 20.9375L22.2867 21.2059C21.5851 21.6463 20.8134 21.964 20.0053 22.1454C18.2101 22.6823 16.2972 22.6823 14.5023 22.1454C13.714 21.9047 12.9501 21.5901 12.2211 21.2059C11.5497 20.8033 11.0128 20.4006 10.476 20.1322C10.0219 19.7466 9.45887 19.5121 8.86536 19.4611C7.85413 19.4314 6.84852 19.6143 5.91272 19.998C5.07679 20.303 4.30359 20.7579 3.63123 21.3402C2.9535 21.8853 2.40369 22.5726 2.02063 23.3533C1.75232 24.1587 1.34949 24.964 1.08118 25.7693C0.778691 26.5965 0.553838 27.4502 0.410039 28.3193C0.261113 29.162 0.171514 30.0141 0.141484 30.8694C0.0260059 31.6241 -0.018916 32.388 0.00720707 33.1511C-0.0701855 35.0195 0.663945 36.8303 2.02088 38.117C3.46399 39.3851 5.33533 40.0569 7.2555 39.996H27.3876C29.3075 40.057 31.1788 39.3852 32.622 38.117C33.9791 36.8303 34.713 35.0195 34.6354 33.1511C34.6576 32.3435 34.6127 31.5354 34.5011 30.7352C34.4635 29.925 34.3737 29.118 34.2318 28.3194V28.3193ZM31.1435 36.641C30.0835 37.4946 28.7444 37.925 27.3852 37.8489H7.25314C5.89401 37.9249 4.55514 37.4946 3.49484 36.641C2.54709 35.7378 2.05441 34.457 2.15304 33.1514C2.13058 32.3884 2.17551 31.6249 2.28683 30.8697C2.31784 30.1034 2.40744 29.3406 2.55539 28.5881C2.655 27.8111 2.83493 27.0464 3.09201 26.3064C3.34958 25.6107 3.66379 24.9374 4.03171 24.2932C4.36813 23.7097 4.77365 23.1689 5.23971 22.6826C5.70749 22.2638 6.2551 21.9441 6.84982 21.7431C7.48068 21.4549 8.16989 21.317 8.86349 21.3404C8.99753 21.3405 9.1318 21.4747 9.40036 21.6089L9.80295 21.8773C10.2319 22.1751 10.6804 22.4441 11.145 22.6825C12.0163 23.1353 12.9128 23.5386 13.8296 23.8905C16.0617 24.5616 18.4419 24.5616 20.6743 23.8905C21.6013 23.5646 22.4995 23.1605 23.3586 22.6826C24.0298 22.28 24.5666 21.8773 25.1035 21.6089C25.372 21.4747 25.5063 21.3405 25.6403 21.3405H25.7746C26.4653 21.3444 27.1489 21.4811 27.7878 21.7431C28.3828 21.9442 28.9304 22.2639 29.3982 22.6827C29.9043 23.1335 30.3152 23.6811 30.6059 24.2932C30.9736 24.9375 31.2881 25.6108 31.5456 26.3065C31.8027 27.0465 31.9829 27.8111 32.0827 28.5881C32.2382 29.3394 32.3278 30.1028 32.351 30.8697C32.351 31.6751 32.4853 32.3461 32.4853 33.1514C32.5212 34.447 32.0383 35.7033 31.1435 36.6411V36.641Z" fill="#14213D"/>
</svg>
