<svg width="2211" height="716" viewBox="0 0 2211 716" fill="none" xmlns="http://www.w3.org/2000/svg">
<g filter="url(#filter0_d_29_3340)">
<rect x="1558" y="12" width="635" height="423" rx="4" fill="white"/>
</g>
<g filter="url(#filter1_d_29_3340)">
<rect x="1558" y="12" width="635" height="419" rx="4" fill="white"/>
</g>
<path d="M1585.95 42.091C1585.35 42.091 1584.8 41.987 1584.31 41.779C1583.83 41.5623 1583.45 41.259 1583.17 40.869C1582.89 40.479 1582.75 40.024 1582.75 39.504H1584.34C1584.37 39.894 1584.53 40.2147 1584.8 40.466C1585.07 40.7173 1585.46 40.843 1585.95 40.843C1586.46 40.843 1586.86 40.7217 1587.15 40.479C1587.43 40.2277 1587.58 39.907 1587.58 39.517C1587.58 39.2137 1587.49 38.9667 1587.3 38.776C1587.13 38.5853 1586.91 38.438 1586.64 38.334C1586.38 38.23 1586.02 38.1173 1585.55 37.996C1584.96 37.84 1584.48 37.684 1584.11 37.528C1583.74 37.3633 1583.43 37.112 1583.17 36.774C1582.91 36.436 1582.78 35.9853 1582.78 35.422C1582.78 34.902 1582.91 34.447 1583.17 34.057C1583.43 33.667 1583.79 33.368 1584.26 33.16C1584.73 32.952 1585.27 32.848 1585.89 32.848C1586.76 32.848 1587.48 33.069 1588.03 33.511C1588.6 33.9443 1588.91 34.5423 1588.97 35.305H1587.33C1587.3 34.9757 1587.15 34.694 1586.86 34.46C1586.58 34.226 1586.2 34.109 1585.73 34.109C1585.31 34.109 1584.96 34.2173 1584.69 34.434C1584.42 34.6507 1584.29 34.9627 1584.29 35.37C1584.29 35.6473 1584.37 35.877 1584.54 36.059C1584.71 36.2323 1584.93 36.371 1585.19 36.475C1585.45 36.579 1585.8 36.6917 1586.25 36.813C1586.85 36.9777 1587.33 37.1423 1587.71 37.307C1588.09 37.4717 1588.41 37.7273 1588.67 38.074C1588.94 38.412 1589.07 38.867 1589.07 39.439C1589.07 39.8983 1588.95 40.3317 1588.7 40.739C1588.45 41.1463 1588.09 41.4757 1587.62 41.727C1587.15 41.9697 1586.59 42.091 1585.95 42.091ZM1597.52 38.243C1597.52 38.5117 1597.5 38.7543 1597.46 38.971H1591.99C1592.03 39.543 1592.25 40.0023 1592.63 40.349C1593.01 40.6957 1593.48 40.869 1594.03 40.869C1594.83 40.869 1595.39 40.5353 1595.72 39.868H1597.32C1597.1 40.5267 1596.71 41.0683 1596.14 41.493C1595.57 41.909 1594.87 42.117 1594.03 42.117C1593.35 42.117 1592.73 41.9653 1592.19 41.662C1591.65 41.35 1591.22 40.9167 1590.91 40.362C1590.61 39.7987 1590.46 39.1487 1590.46 38.412C1590.46 37.6753 1590.6 37.0297 1590.9 36.475C1591.2 35.9117 1591.62 35.4783 1592.16 35.175C1592.71 34.8717 1593.33 34.72 1594.03 34.72C1594.71 34.72 1595.31 34.8673 1595.84 35.162C1596.37 35.4567 1596.78 35.8727 1597.07 36.41C1597.37 36.9387 1597.52 37.5497 1597.52 38.243ZM1595.97 37.775C1595.96 37.229 1595.77 36.7913 1595.38 36.462C1595 36.1327 1594.53 35.968 1593.97 35.968C1593.46 35.968 1593.02 36.1327 1592.65 36.462C1592.29 36.7827 1592.07 37.2203 1592 37.775H1595.97ZM1598.61 38.386C1598.61 37.6667 1598.76 37.0297 1599.05 36.475C1599.36 35.9203 1599.76 35.4913 1600.27 35.188C1600.79 34.876 1601.37 34.72 1601.99 34.72C1602.55 34.72 1603.04 34.8327 1603.46 35.058C1603.88 35.2747 1604.22 35.5477 1604.47 35.877V34.837H1605.97V42H1604.47V40.934C1604.22 41.272 1603.88 41.5537 1603.45 41.779C1603.01 42.0043 1602.52 42.117 1601.96 42.117C1601.35 42.117 1600.79 41.961 1600.27 41.649C1599.76 41.3283 1599.36 40.8863 1599.05 40.323C1598.76 39.751 1598.61 39.1053 1598.61 38.386ZM1604.47 38.412C1604.47 37.918 1604.37 37.489 1604.16 37.125C1603.96 36.761 1603.7 36.4837 1603.37 36.293C1603.04 36.1023 1602.68 36.007 1602.3 36.007C1601.92 36.007 1601.57 36.1023 1601.24 36.293C1600.91 36.475 1600.64 36.748 1600.43 37.112C1600.23 37.4673 1600.13 37.892 1600.13 38.386C1600.13 38.88 1600.23 39.3133 1600.43 39.686C1600.64 40.0587 1600.91 40.3447 1601.24 40.544C1601.57 40.7347 1601.93 40.83 1602.3 40.83C1602.68 40.83 1603.04 40.7347 1603.37 40.544C1603.7 40.3533 1603.96 40.076 1604.16 39.712C1604.37 39.3393 1604.47 38.906 1604.47 38.412ZM1609.53 35.877C1609.74 35.513 1610.03 35.2313 1610.38 35.032C1610.75 34.824 1611.18 34.72 1611.67 34.72V36.254H1611.29C1610.71 36.254 1610.27 36.4013 1609.97 36.696C1609.67 36.9907 1609.53 37.502 1609.53 38.23V42H1608.04V34.837H1609.53V35.877ZM1612.67 38.412C1612.67 37.6753 1612.82 37.0297 1613.11 36.475C1613.42 35.9117 1613.83 35.4783 1614.36 35.175C1614.89 34.8717 1615.5 34.72 1616.18 34.72C1617.05 34.72 1617.76 34.928 1618.32 35.344C1618.9 35.7513 1619.28 36.3363 1619.48 37.099H1617.88C1617.75 36.7437 1617.54 36.4663 1617.26 36.267C1616.97 36.0677 1616.61 35.968 1616.18 35.968C1615.57 35.968 1615.09 36.1847 1614.72 36.618C1614.37 37.0427 1614.19 37.6407 1614.19 38.412C1614.19 39.1833 1614.37 39.7857 1614.72 40.219C1615.09 40.6523 1615.57 40.869 1616.18 40.869C1617.04 40.869 1617.61 40.492 1617.88 39.738H1619.48C1619.27 40.466 1618.88 41.0467 1618.31 41.48C1617.74 41.9047 1617.03 42.117 1616.18 42.117C1615.5 42.117 1614.89 41.9653 1614.36 41.662C1613.83 41.35 1613.42 40.9167 1613.11 40.362C1612.82 39.7987 1612.67 39.1487 1612.67 38.412ZM1624.79 34.72C1625.34 34.72 1625.83 34.837 1626.25 35.071C1626.68 35.305 1627.02 35.6517 1627.26 36.111C1627.52 36.5703 1627.64 37.125 1627.64 37.775V42H1626.17V37.996C1626.17 37.3547 1626.01 36.865 1625.69 36.527C1625.37 36.1803 1624.93 36.007 1624.38 36.007C1623.82 36.007 1623.38 36.1803 1623.05 36.527C1622.73 36.865 1622.57 37.3547 1622.57 37.996V42H1621.09V32.38H1622.57V35.669C1622.82 35.3657 1623.14 35.1317 1623.52 34.967C1623.91 34.8023 1624.33 34.72 1624.79 34.72ZM1637.86 42L1635.78 38.386H1634.65V42H1633.17V32.965H1636.29C1636.98 32.965 1637.57 33.0863 1638.04 33.329C1638.53 33.5717 1638.89 33.8967 1639.12 34.304C1639.36 34.7113 1639.49 35.1663 1639.49 35.669C1639.49 36.2583 1639.31 36.7957 1638.97 37.281C1638.63 37.7577 1638.1 38.0827 1637.39 38.256L1639.63 42H1637.86ZM1634.65 37.203H1636.29C1636.84 37.203 1637.26 37.0643 1637.54 36.787C1637.82 36.5097 1637.97 36.137 1637.97 35.669C1637.97 35.201 1637.83 34.837 1637.55 34.577C1637.27 34.3083 1636.85 34.174 1636.29 34.174H1634.65V37.203ZM1648.08 38.243C1648.08 38.5117 1648.06 38.7543 1648.03 38.971H1642.55C1642.6 39.543 1642.81 40.0023 1643.19 40.349C1643.57 40.6957 1644.04 40.869 1644.59 40.869C1645.39 40.869 1645.95 40.5353 1646.28 39.868H1647.88C1647.67 40.5267 1647.27 41.0683 1646.7 41.493C1646.14 41.909 1645.43 42.117 1644.59 42.117C1643.91 42.117 1643.29 41.9653 1642.75 41.662C1642.21 41.35 1641.79 40.9167 1641.47 40.362C1641.17 39.7987 1641.02 39.1487 1641.02 38.412C1641.02 37.6753 1641.17 37.0297 1641.46 36.475C1641.76 35.9117 1642.18 35.4783 1642.72 35.175C1643.27 34.8717 1643.89 34.72 1644.59 34.72C1645.27 34.72 1645.87 34.8673 1646.4 35.162C1646.93 35.4567 1647.34 35.8727 1647.64 36.41C1647.93 36.9387 1648.08 37.5497 1648.08 38.243ZM1646.53 37.775C1646.52 37.229 1646.33 36.7913 1645.95 36.462C1645.56 36.1327 1645.09 35.968 1644.53 35.968C1644.02 35.968 1643.58 36.1327 1643.22 36.462C1642.85 36.7827 1642.63 37.2203 1642.57 37.775H1646.53ZM1652.27 42.117C1651.7 42.117 1651.2 42.0173 1650.74 41.818C1650.3 41.61 1649.95 41.3327 1649.69 40.986C1649.43 40.6307 1649.29 40.2363 1649.28 39.803H1650.81C1650.84 40.1063 1650.98 40.362 1651.24 40.57C1651.51 40.7693 1651.84 40.869 1652.24 40.869C1652.66 40.869 1652.98 40.791 1653.2 40.635C1653.44 40.4703 1653.55 40.2623 1653.55 40.011C1653.55 39.7423 1653.42 39.543 1653.16 39.413C1652.91 39.283 1652.51 39.14 1651.95 38.984C1651.42 38.8367 1650.98 38.6937 1650.64 38.555C1650.3 38.4163 1650.01 38.204 1649.76 37.918C1649.51 37.632 1649.39 37.255 1649.39 36.787C1649.39 36.4057 1649.51 36.059 1649.73 35.747C1649.96 35.4263 1650.28 35.175 1650.69 34.993C1651.12 34.811 1651.6 34.72 1652.15 34.72C1652.96 34.72 1653.62 34.928 1654.11 35.344C1654.61 35.7513 1654.88 36.3103 1654.92 37.021H1653.44C1653.41 36.7003 1653.28 36.4447 1653.05 36.254C1652.81 36.0633 1652.5 35.968 1652.1 35.968C1651.71 35.968 1651.41 36.0417 1651.2 36.189C1650.99 36.3363 1650.89 36.5313 1650.89 36.774C1650.89 36.9647 1650.96 37.125 1651.1 37.255C1651.23 37.385 1651.4 37.489 1651.6 37.567C1651.8 37.6363 1652.1 37.7273 1652.49 37.84C1653.01 37.9787 1653.43 38.1217 1653.76 38.269C1654.1 38.4077 1654.39 38.6157 1654.63 38.893C1654.87 39.1703 1655 39.5387 1655.01 39.998C1655.01 40.4053 1654.9 40.7693 1654.67 41.09C1654.45 41.4107 1654.12 41.662 1653.71 41.844C1653.3 42.026 1652.82 42.117 1652.27 42.117ZM1663.23 34.837V42H1661.74V41.155C1661.51 41.4497 1661.2 41.6837 1660.82 41.857C1660.45 42.0217 1660.05 42.104 1659.63 42.104C1659.06 42.104 1658.56 41.987 1658.1 41.753C1657.66 41.519 1657.31 41.1723 1657.05 40.713C1656.8 40.2537 1656.67 39.699 1656.67 39.049V34.837H1658.14V38.828C1658.14 39.4693 1658.3 39.9633 1658.62 40.31C1658.95 40.648 1659.38 40.817 1659.94 40.817C1660.49 40.817 1660.93 40.648 1661.25 40.31C1661.58 39.9633 1661.74 39.4693 1661.74 38.828V34.837H1663.23ZM1666.79 32.38V42H1665.31V32.38H1666.79ZM1670.6 36.046V40.011C1670.6 40.2797 1670.66 40.4747 1670.78 40.596C1670.91 40.7087 1671.13 40.765 1671.43 40.765H1672.34V42H1671.17C1670.5 42 1669.99 41.844 1669.64 41.532C1669.28 41.22 1669.1 40.713 1669.1 40.011V36.046H1668.26V34.837H1669.1V33.056H1670.6V34.837H1672.34V36.046H1670.6ZM1676.44 42.117C1675.87 42.117 1675.37 42.0173 1674.92 41.818C1674.47 41.61 1674.12 41.3327 1673.86 40.986C1673.6 40.6307 1673.46 40.2363 1673.45 39.803H1674.98C1675.01 40.1063 1675.15 40.362 1675.41 40.57C1675.68 40.7693 1676.01 40.869 1676.41 40.869C1676.83 40.869 1677.15 40.791 1677.37 40.635C1677.61 40.4703 1677.72 40.2623 1677.72 40.011C1677.72 39.7423 1677.59 39.543 1677.33 39.413C1677.08 39.283 1676.68 39.14 1676.12 38.984C1675.59 38.8367 1675.15 38.6937 1674.81 38.555C1674.47 38.4163 1674.18 38.204 1673.93 37.918C1673.69 37.632 1673.56 37.255 1673.56 36.787C1673.56 36.4057 1673.68 36.059 1673.9 35.747C1674.13 35.4263 1674.45 35.175 1674.86 34.993C1675.29 34.811 1675.77 34.72 1676.32 34.72C1677.13 34.72 1677.79 34.928 1678.28 35.344C1678.79 35.7513 1679.05 36.3103 1679.09 37.021H1677.61C1677.58 36.7003 1677.45 36.4447 1677.22 36.254C1676.98 36.0633 1676.67 35.968 1676.27 35.968C1675.88 35.968 1675.58 36.0417 1675.37 36.189C1675.16 36.3363 1675.06 36.5313 1675.06 36.774C1675.06 36.9647 1675.13 37.125 1675.27 37.255C1675.41 37.385 1675.57 37.489 1675.77 37.567C1675.97 37.6363 1676.27 37.7273 1676.66 37.84C1677.18 37.9787 1677.6 38.1217 1677.93 38.269C1678.27 38.4077 1678.56 38.6157 1678.8 38.893C1679.05 39.1703 1679.17 39.5387 1679.18 39.998C1679.18 40.4053 1679.07 40.7693 1678.84 41.09C1678.62 41.4107 1678.3 41.662 1677.88 41.844C1677.47 42.026 1676.99 42.117 1676.44 42.117ZM1689.74 32.965V34.174H1685.9V36.839H1688.89V38.048H1685.9V42H1684.42V32.965H1689.74ZM1694.35 42.117C1693.67 42.117 1693.06 41.9653 1692.51 41.662C1691.97 41.35 1691.54 40.9167 1691.23 40.362C1690.91 39.7987 1690.76 39.1487 1690.76 38.412C1690.76 37.684 1690.92 37.0383 1691.24 36.475C1691.56 35.9117 1692 35.4783 1692.55 35.175C1693.11 34.8717 1693.73 34.72 1694.41 34.72C1695.1 34.72 1695.71 34.8717 1696.27 35.175C1696.82 35.4783 1697.26 35.9117 1697.58 36.475C1697.9 37.0383 1698.06 37.684 1698.06 38.412C1698.06 39.14 1697.9 39.7857 1697.57 40.349C1697.24 40.9123 1696.79 41.35 1696.22 41.662C1695.65 41.9653 1695.03 42.117 1694.35 42.117ZM1694.35 40.83C1694.73 40.83 1695.08 40.739 1695.41 40.557C1695.75 40.375 1696.02 40.102 1696.23 39.738C1696.44 39.374 1696.54 38.932 1696.54 38.412C1696.54 37.892 1696.44 37.4543 1696.24 37.099C1696.04 36.735 1695.78 36.462 1695.45 36.28C1695.12 36.098 1694.77 36.007 1694.38 36.007C1694 36.007 1693.65 36.098 1693.32 36.28C1693 36.462 1692.74 36.735 1692.55 37.099C1692.36 37.4543 1692.27 37.892 1692.27 38.412C1692.27 39.1833 1692.46 39.7813 1692.85 40.206C1693.25 40.622 1693.75 40.83 1694.35 40.83ZM1701.14 35.877C1701.36 35.513 1701.64 35.2313 1702 35.032C1702.36 34.824 1702.79 34.72 1703.29 34.72V36.254H1702.91C1702.33 36.254 1701.89 36.4013 1701.58 36.696C1701.29 36.9907 1701.14 37.502 1701.14 38.23V42H1699.66V34.837H1701.14V35.877ZM1705.38 42.091C1705.11 42.091 1704.88 42 1704.7 41.818C1704.52 41.636 1704.43 41.4107 1704.43 41.142C1704.43 40.8733 1704.52 40.648 1704.7 40.466C1704.88 40.284 1705.11 40.193 1705.38 40.193C1705.64 40.193 1705.86 40.284 1706.04 40.466C1706.22 40.648 1706.31 40.8733 1706.31 41.142C1706.31 41.4107 1706.22 41.636 1706.04 41.818C1705.86 42 1705.64 42.091 1705.38 42.091ZM1705.38 36.631C1705.11 36.631 1704.88 36.54 1704.7 36.358C1704.52 36.176 1704.43 35.9507 1704.43 35.682C1704.43 35.4133 1704.52 35.188 1704.7 35.006C1704.88 34.824 1705.11 34.733 1705.38 34.733C1705.64 34.733 1705.86 34.824 1706.04 35.006C1706.22 35.188 1706.31 35.4133 1706.31 35.682C1706.31 35.9507 1706.22 36.176 1706.04 36.358C1705.86 36.54 1705.64 36.631 1705.38 36.631Z" fill="#14213D"/>
<rect x="1582" y="64" width="587" height="1" rx="0.5" fill="#14213D"/>
<g filter="url(#filter2_d_29_3340)">
<path d="M1582 160C1582 157.791 1583.79 156 1586 156H2165C2167.21 156 2169 157.791 2169 160V200C2169 202.209 2167.21 204 2165 204H1586C1583.79 204 1582 202.209 1582 200V160Z" fill="white"/>
</g>
<rect x="1592" y="174" width="162" height="15" rx="7.5" fill="#D7D7D7"/>
<rect x="1792" y="174" width="127" height="15" rx="7.5" fill="#D7D7D7"/>
<rect x="2071" y="173" width="82" height="15" rx="7.5" fill="#2ED47A"/>
<g filter="url(#filter3_d_29_3340)">
<path d="M1582 230C1582 227.791 1583.79 226 1586 226H2165C2167.21 226 2169 227.791 2169 230V270C2169 272.209 2167.21 274 2165 274H1586C1583.79 274 1582 272.209 1582 270V230Z" fill="white"/>
</g>
<rect x="1592" y="244" width="162" height="15" rx="7.5" fill="#D7D7D7"/>
<rect x="1792" y="244" width="127" height="15" rx="7.5" fill="#D7D7D7"/>
<rect x="2071" y="243" width="82" height="15" rx="7.5" fill="#FCA311"/>
<g filter="url(#filter4_d_29_3340)">
<path d="M1582 300C1582 297.791 1583.79 296 1586 296H2165C2167.21 296 2169 297.791 2169 300V340C2169 342.209 2167.21 344 2165 344H1586C1583.79 344 1582 342.209 1582 340V300Z" fill="white"/>
</g>
<rect x="1592" y="314" width="162" height="15" rx="7.5" fill="#D7D7D7"/>
<rect x="1792" y="314" width="127" height="15" rx="7.5" fill="#D7D7D7"/>
<rect x="2071" y="313" width="82" height="15" rx="7.5" fill="#FCA311"/>
<g filter="url(#filter5_d_29_3340)">
<path d="M1582 370C1582 367.791 1583.79 366 1586 366H2165C2167.21 366 2169 367.791 2169 370V410C2169 412.209 2167.21 414 2165 414H1586C1583.79 414 1582 412.209 1582 410V370Z" fill="white"/>
</g>
<rect x="1592" y="384" width="162" height="15" rx="7.5" fill="#D7D7D7"/>
<rect x="1792" y="384" width="127" height="15" rx="7.5" fill="#D7D7D7"/>
<rect x="2071" y="383" width="82" height="15" rx="7.5" fill="#F7685B"/>
<rect x="1711" y="31" width="162" height="15" rx="7.5" fill="#D7D7D7"/>
<path d="M1590.5 140L1587.27 136.268V140H1585.9V131.66H1587.27V135.464L1590.51 131.66H1592.22L1588.6 135.836L1592.28 140H1590.5ZM1599.67 136.532C1599.67 136.78 1599.66 137.004 1599.63 137.204H1594.57C1594.61 137.732 1594.81 138.156 1595.16 138.476C1595.51 138.796 1595.95 138.956 1596.46 138.956C1597.19 138.956 1597.71 138.648 1598.02 138.032H1599.49C1599.29 138.64 1598.93 139.14 1598.4 139.532C1597.88 139.916 1597.23 140.108 1596.46 140.108C1595.83 140.108 1595.26 139.968 1594.75 139.688C1594.26 139.4 1593.87 139 1593.58 138.488C1593.3 137.968 1593.16 137.368 1593.16 136.688C1593.16 136.008 1593.29 135.412 1593.57 134.9C1593.85 134.38 1594.23 133.98 1594.73 133.7C1595.23 133.42 1595.81 133.28 1596.46 133.28C1597.08 133.28 1597.64 133.416 1598.13 133.688C1598.61 133.96 1598.99 134.344 1599.27 134.84C1599.54 135.328 1599.67 135.892 1599.67 136.532ZM1598.25 136.1C1598.24 135.596 1598.06 135.192 1597.71 134.888C1597.35 134.584 1596.92 134.432 1596.4 134.432C1595.93 134.432 1595.52 134.584 1595.19 134.888C1594.85 135.184 1594.65 135.588 1594.59 136.1H1598.25ZM1607.09 133.388L1603.04 143.108H1601.62L1602.96 139.892L1600.36 133.388H1601.88L1603.74 138.428L1605.68 133.388H1607.09ZM1617.12 133.388L1615.07 140H1613.63L1612.3 135.116L1610.97 140H1609.53L1607.46 133.388H1608.86L1610.24 138.704L1611.64 133.388H1613.07L1614.41 138.68L1615.78 133.388H1617.12ZM1621.13 140.108C1620.51 140.108 1619.95 139.968 1619.44 139.688C1618.94 139.4 1618.54 139 1618.25 138.488C1617.97 137.968 1617.82 137.368 1617.82 136.688C1617.82 136.016 1617.97 135.42 1618.27 134.9C1618.56 134.38 1618.97 133.98 1619.48 133.7C1619.99 133.42 1620.56 133.28 1621.19 133.28C1621.83 133.28 1622.4 133.42 1622.91 133.7C1623.42 133.98 1623.83 134.38 1624.12 134.9C1624.42 135.42 1624.57 136.016 1624.57 136.688C1624.57 137.36 1624.41 137.956 1624.11 138.476C1623.81 138.996 1623.39 139.4 1622.86 139.688C1622.34 139.968 1621.77 140.108 1621.13 140.108ZM1621.13 138.92C1621.49 138.92 1621.81 138.836 1622.12 138.668C1622.43 138.5 1622.68 138.248 1622.87 137.912C1623.07 137.576 1623.16 137.168 1623.16 136.688C1623.16 136.208 1623.07 135.804 1622.89 135.476C1622.7 135.14 1622.46 134.888 1622.15 134.72C1621.85 134.552 1621.52 134.468 1621.17 134.468C1620.82 134.468 1620.49 134.552 1620.19 134.72C1619.89 134.888 1619.65 135.14 1619.48 135.476C1619.3 135.804 1619.21 136.208 1619.21 136.688C1619.21 137.4 1619.39 137.952 1619.75 138.344C1620.12 138.728 1620.58 138.92 1621.13 138.92ZM1627.41 134.348C1627.61 134.012 1627.87 133.752 1628.2 133.568C1628.54 133.376 1628.93 133.28 1629.39 133.28V134.696H1629.04C1628.5 134.696 1628.1 134.832 1627.82 135.104C1627.54 135.376 1627.41 135.848 1627.41 136.52V140H1626.04V133.388H1627.41V134.348ZM1630.31 136.664C1630.31 136 1630.44 135.412 1630.72 134.9C1631 134.388 1631.37 133.992 1631.84 133.712C1632.32 133.424 1632.86 133.28 1633.44 133.28C1633.87 133.28 1634.3 133.376 1634.71 133.568C1635.14 133.752 1635.47 134 1635.72 134.312V131.12H1637.1V140H1635.72V139.004C1635.5 139.324 1635.18 139.588 1634.78 139.796C1634.39 140.004 1633.94 140.108 1633.43 140.108C1632.85 140.108 1632.32 139.964 1631.84 139.676C1631.37 139.38 1631 138.972 1630.72 138.452C1630.44 137.924 1630.31 137.328 1630.31 136.664ZM1635.72 136.688C1635.72 136.232 1635.62 135.836 1635.43 135.5C1635.25 135.164 1635 134.908 1634.7 134.732C1634.4 134.556 1634.07 134.468 1633.72 134.468C1633.36 134.468 1633.04 134.556 1632.73 134.732C1632.43 134.9 1632.18 135.152 1631.99 135.488C1631.8 135.816 1631.71 136.208 1631.71 136.664C1631.71 137.12 1631.8 137.52 1631.99 137.864C1632.18 138.208 1632.43 138.472 1632.73 138.656C1633.04 138.832 1633.37 138.92 1633.72 138.92C1634.07 138.92 1634.4 138.832 1634.7 138.656C1635 138.48 1635.25 138.224 1635.43 137.888C1635.62 137.544 1635.72 137.144 1635.72 136.688Z" fill="black"/>
<path d="M1792.44 135.812C1792.44 134.996 1792.63 134.264 1793.01 133.616C1793.39 132.968 1793.91 132.464 1794.56 132.104C1795.21 131.736 1795.93 131.552 1796.7 131.552C1797.59 131.552 1798.38 131.772 1799.07 132.212C1799.76 132.644 1800.27 133.26 1800.58 134.06H1798.94C1798.72 133.62 1798.42 133.292 1798.04 133.076C1797.65 132.86 1797.21 132.752 1796.7 132.752C1796.15 132.752 1795.66 132.876 1795.23 133.124C1794.8 133.372 1794.46 133.728 1794.21 134.192C1793.97 134.656 1793.85 135.196 1793.85 135.812C1793.85 136.428 1793.97 136.968 1794.21 137.432C1794.46 137.896 1794.8 138.256 1795.23 138.512C1795.66 138.76 1796.15 138.884 1796.7 138.884C1797.21 138.884 1797.65 138.776 1798.04 138.56C1798.42 138.344 1798.72 138.016 1798.94 137.576H1800.58C1800.27 138.376 1799.76 138.992 1799.07 139.424C1798.38 139.856 1797.59 140.072 1796.7 140.072C1795.92 140.072 1795.2 139.892 1794.56 139.532C1793.91 139.164 1793.39 138.656 1793.01 138.008C1792.63 137.36 1792.44 136.628 1792.44 135.812ZM1805.17 140.108C1804.55 140.108 1803.98 139.968 1803.48 139.688C1802.97 139.4 1802.58 139 1802.29 138.488C1802 137.968 1801.86 137.368 1801.86 136.688C1801.86 136.016 1802.01 135.42 1802.3 134.9C1802.6 134.38 1803 133.98 1803.51 133.7C1804.03 133.42 1804.6 133.28 1805.23 133.28C1805.86 133.28 1806.43 133.42 1806.95 133.7C1807.46 133.98 1807.86 134.38 1808.16 134.9C1808.45 135.42 1808.6 136.016 1808.6 136.688C1808.6 137.36 1808.45 137.956 1808.15 138.476C1807.84 138.996 1807.43 139.4 1806.9 139.688C1806.38 139.968 1805.8 140.108 1805.17 140.108ZM1805.17 138.92C1805.52 138.92 1805.85 138.836 1806.15 138.668C1806.47 138.5 1806.72 138.248 1806.91 137.912C1807.1 137.576 1807.2 137.168 1807.2 136.688C1807.2 136.208 1807.11 135.804 1806.92 135.476C1806.74 135.14 1806.49 134.888 1806.19 134.72C1805.89 134.552 1805.56 134.468 1805.21 134.468C1804.85 134.468 1804.53 134.552 1804.22 134.72C1803.93 134.888 1803.69 135.14 1803.51 135.476C1803.34 135.804 1803.25 136.208 1803.25 136.688C1803.25 137.4 1803.43 137.952 1803.79 138.344C1804.16 138.728 1804.62 138.92 1805.17 138.92ZM1813.41 133.28C1813.93 133.28 1814.39 133.388 1814.8 133.604C1815.22 133.82 1815.54 134.14 1815.77 134.564C1816.01 134.988 1816.12 135.5 1816.12 136.1V140H1814.77V136.304C1814.77 135.712 1814.62 135.26 1814.32 134.948C1814.03 134.628 1813.62 134.468 1813.11 134.468C1812.6 134.468 1812.19 134.628 1811.89 134.948C1811.59 135.26 1811.44 135.712 1811.44 136.304V140H1810.07V133.388H1811.44V134.144C1811.67 133.872 1811.95 133.66 1812.29 133.508C1812.65 133.356 1813.02 133.28 1813.41 133.28ZM1820.76 134.504H1819.53V140H1818.15V134.504H1817.37V133.388H1818.15V132.92C1818.15 132.16 1818.35 131.608 1818.75 131.264C1819.16 130.912 1819.8 130.736 1820.66 130.736V131.876C1820.25 131.876 1819.95 131.956 1819.79 132.116C1819.62 132.268 1819.53 132.536 1819.53 132.92V133.388H1820.76V134.504ZM1822.79 132.512C1822.54 132.512 1822.33 132.428 1822.16 132.26C1821.99 132.092 1821.91 131.884 1821.91 131.636C1821.91 131.388 1821.99 131.18 1822.16 131.012C1822.33 130.844 1822.54 130.76 1822.79 130.76C1823.03 130.76 1823.23 130.844 1823.4 131.012C1823.57 131.18 1823.65 131.388 1823.65 131.636C1823.65 131.884 1823.57 132.092 1823.4 132.26C1823.23 132.428 1823.03 132.512 1822.79 132.512ZM1823.46 133.388V140H1822.09V133.388H1823.46ZM1824.92 136.664C1824.92 136 1825.05 135.412 1825.33 134.9C1825.61 134.388 1825.98 133.992 1826.45 133.712C1826.93 133.424 1827.47 133.28 1828.05 133.28C1828.48 133.28 1828.91 133.376 1829.32 133.568C1829.75 133.752 1830.08 134 1830.33 134.312V131.12H1831.71V140H1830.33V139.004C1830.11 139.324 1829.79 139.588 1829.39 139.796C1829 140.004 1828.55 140.108 1828.04 140.108C1827.46 140.108 1826.93 139.964 1826.45 139.676C1825.98 139.38 1825.61 138.972 1825.33 138.452C1825.05 137.924 1824.92 137.328 1824.92 136.664ZM1830.33 136.688C1830.33 136.232 1830.23 135.836 1830.04 135.5C1829.86 135.164 1829.61 134.908 1829.31 134.732C1829.01 134.556 1828.68 134.468 1828.33 134.468C1827.97 134.468 1827.65 134.556 1827.34 134.732C1827.04 134.9 1826.79 135.152 1826.6 135.488C1826.41 135.816 1826.32 136.208 1826.32 136.664C1826.32 137.12 1826.41 137.52 1826.6 137.864C1826.79 138.208 1827.04 138.472 1827.34 138.656C1827.65 138.832 1827.98 138.92 1828.33 138.92C1828.68 138.92 1829.01 138.832 1829.31 138.656C1829.61 138.48 1829.86 138.224 1830.04 137.888C1830.23 137.544 1830.33 137.144 1830.33 136.688ZM1839.69 136.532C1839.69 136.78 1839.67 137.004 1839.64 137.204H1834.59C1834.63 137.732 1834.82 138.156 1835.18 138.476C1835.53 138.796 1835.96 138.956 1836.47 138.956C1837.21 138.956 1837.73 138.648 1838.03 138.032H1839.51C1839.31 138.64 1838.94 139.14 1838.42 139.532C1837.9 139.916 1837.25 140.108 1836.47 140.108C1835.84 140.108 1835.27 139.968 1834.77 139.688C1834.27 139.4 1833.88 139 1833.59 138.488C1833.31 137.968 1833.17 137.368 1833.17 136.688C1833.17 136.008 1833.31 135.412 1833.58 134.9C1833.86 134.38 1834.25 133.98 1834.74 133.7C1835.25 133.42 1835.82 133.28 1836.47 133.28C1837.1 133.28 1837.65 133.416 1838.14 133.688C1838.63 133.96 1839.01 134.344 1839.28 134.84C1839.55 135.328 1839.69 135.892 1839.69 136.532ZM1838.26 136.1C1838.25 135.596 1838.07 135.192 1837.72 134.888C1837.37 134.584 1836.93 134.432 1836.41 134.432C1835.94 134.432 1835.54 134.584 1835.2 134.888C1834.86 135.184 1834.66 135.588 1834.6 136.1H1838.26ZM1844.49 133.28C1845.01 133.28 1845.47 133.388 1845.88 133.604C1846.3 133.82 1846.62 134.14 1846.85 134.564C1847.09 134.988 1847.2 135.5 1847.2 136.1V140H1845.85V136.304C1845.85 135.712 1845.7 135.26 1845.4 134.948C1845.11 134.628 1844.7 134.468 1844.19 134.468C1843.68 134.468 1843.27 134.628 1842.97 134.948C1842.67 135.26 1842.52 135.712 1842.52 136.304V140H1841.15V133.388H1842.52V134.144C1842.75 133.872 1843.03 133.66 1843.37 133.508C1843.73 133.356 1844.1 133.28 1844.49 133.28ZM1848.61 136.688C1848.61 136.008 1848.75 135.412 1849.02 134.9C1849.3 134.38 1849.68 133.98 1850.17 133.7C1850.66 133.42 1851.22 133.28 1851.85 133.28C1852.65 133.28 1853.31 133.472 1853.83 133.856C1854.36 134.232 1854.72 134.772 1854.9 135.476H1853.42C1853.3 135.148 1853.11 134.892 1852.85 134.708C1852.58 134.524 1852.25 134.432 1851.85 134.432C1851.29 134.432 1850.84 134.632 1850.51 135.032C1850.18 135.424 1850.02 135.976 1850.02 136.688C1850.02 137.4 1850.18 137.956 1850.51 138.356C1850.84 138.756 1851.29 138.956 1851.85 138.956C1852.64 138.956 1853.17 138.608 1853.42 137.912H1854.9C1854.71 138.584 1854.35 139.12 1853.82 139.52C1853.29 139.912 1852.64 140.108 1851.85 140.108C1851.22 140.108 1850.66 139.968 1850.17 139.688C1849.68 139.4 1849.3 139 1849.02 138.488C1848.75 137.968 1848.61 137.368 1848.61 136.688ZM1862.44 136.532C1862.44 136.78 1862.43 137.004 1862.39 137.204H1857.34C1857.38 137.732 1857.58 138.156 1857.93 138.476C1858.28 138.796 1858.71 138.956 1859.23 138.956C1859.96 138.956 1860.48 138.648 1860.79 138.032H1862.26C1862.06 138.64 1861.7 139.14 1861.17 139.532C1860.65 139.916 1860 140.108 1859.23 140.108C1858.59 140.108 1858.03 139.968 1857.52 139.688C1857.03 139.4 1856.63 139 1856.35 138.488C1856.07 137.968 1855.93 137.368 1855.93 136.688C1855.93 136.008 1856.06 135.412 1856.33 134.9C1856.61 134.38 1857 133.98 1857.5 133.7C1858 133.42 1858.58 133.28 1859.23 133.28C1859.85 133.28 1860.41 133.416 1860.89 133.688C1861.38 133.96 1861.76 134.344 1862.03 134.84C1862.31 135.328 1862.44 135.892 1862.44 136.532ZM1861.01 136.1C1861.01 135.596 1860.83 135.192 1860.47 134.888C1860.12 134.584 1859.69 134.432 1859.17 134.432C1858.69 134.432 1858.29 134.584 1857.95 134.888C1857.62 135.184 1857.42 135.588 1857.35 136.1H1861.01Z" fill="black"/>
<path d="M1972.44 135.812C1972.44 134.996 1972.63 134.264 1973.01 133.616C1973.39 132.968 1973.91 132.464 1974.56 132.104C1975.21 131.736 1975.93 131.552 1976.7 131.552C1977.59 131.552 1978.38 131.772 1979.07 132.212C1979.76 132.644 1980.27 133.26 1980.58 134.06H1978.94C1978.72 133.62 1978.42 133.292 1978.04 133.076C1977.65 132.86 1977.21 132.752 1976.7 132.752C1976.15 132.752 1975.66 132.876 1975.23 133.124C1974.8 133.372 1974.46 133.728 1974.21 134.192C1973.97 134.656 1973.85 135.196 1973.85 135.812C1973.85 136.428 1973.97 136.968 1974.21 137.432C1974.46 137.896 1974.8 138.256 1975.23 138.512C1975.66 138.76 1976.15 138.884 1976.7 138.884C1977.21 138.884 1977.65 138.776 1978.04 138.56C1978.42 138.344 1978.72 138.016 1978.94 137.576H1980.58C1980.27 138.376 1979.76 138.992 1979.07 139.424C1978.38 139.856 1977.59 140.072 1976.7 140.072C1975.92 140.072 1975.2 139.892 1974.56 139.532C1973.91 139.164 1973.39 138.656 1973.01 138.008C1972.63 137.36 1972.44 136.628 1972.44 135.812ZM1985.17 140.108C1984.55 140.108 1983.98 139.968 1983.48 139.688C1982.97 139.4 1982.58 139 1982.29 138.488C1982 137.968 1981.86 137.368 1981.86 136.688C1981.86 136.016 1982.01 135.42 1982.3 134.9C1982.6 134.38 1983 133.98 1983.51 133.7C1984.03 133.42 1984.6 133.28 1985.23 133.28C1985.86 133.28 1986.43 133.42 1986.95 133.7C1987.46 133.98 1987.86 134.38 1988.16 134.9C1988.45 135.42 1988.6 136.016 1988.6 136.688C1988.6 137.36 1988.45 137.956 1988.15 138.476C1987.84 138.996 1987.43 139.4 1986.9 139.688C1986.38 139.968 1985.8 140.108 1985.17 140.108ZM1985.17 138.92C1985.52 138.92 1985.85 138.836 1986.15 138.668C1986.47 138.5 1986.72 138.248 1986.91 137.912C1987.1 137.576 1987.2 137.168 1987.2 136.688C1987.2 136.208 1987.11 135.804 1986.92 135.476C1986.74 135.14 1986.49 134.888 1986.19 134.72C1985.89 134.552 1985.56 134.468 1985.21 134.468C1984.85 134.468 1984.53 134.552 1984.22 134.72C1983.93 134.888 1983.69 135.14 1983.51 135.476C1983.34 135.804 1983.25 136.208 1983.25 136.688C1983.25 137.4 1983.43 137.952 1983.79 138.344C1984.16 138.728 1984.62 138.92 1985.17 138.92ZM1993.41 133.28C1993.93 133.28 1994.39 133.388 1994.8 133.604C1995.22 133.82 1995.54 134.14 1995.77 134.564C1996.01 134.988 1996.12 135.5 1996.12 136.1V140H1994.77V136.304C1994.77 135.712 1994.62 135.26 1994.32 134.948C1994.03 134.628 1993.62 134.468 1993.11 134.468C1992.6 134.468 1992.19 134.628 1991.89 134.948C1991.59 135.26 1991.44 135.712 1991.44 136.304V140H1990.07V133.388H1991.44V134.144C1991.67 133.872 1991.95 133.66 1992.29 133.508C1992.65 133.356 1993.02 133.28 1993.41 133.28ZM2000.76 134.504H1999.53V140H1998.15V134.504H1997.37V133.388H1998.15V132.92C1998.15 132.16 1998.35 131.608 1998.75 131.264C1999.16 130.912 1999.8 130.736 2000.66 130.736V131.876C2000.25 131.876 1999.95 131.956 1999.79 132.116C1999.62 132.268 1999.53 132.536 1999.53 132.92V133.388H2000.76V134.504ZM2002.79 132.512C2002.54 132.512 2002.33 132.428 2002.16 132.26C2001.99 132.092 2001.91 131.884 2001.91 131.636C2001.91 131.388 2001.99 131.18 2002.16 131.012C2002.33 130.844 2002.54 130.76 2002.79 130.76C2003.03 130.76 2003.23 130.844 2003.4 131.012C2003.57 131.18 2003.65 131.388 2003.65 131.636C2003.65 131.884 2003.57 132.092 2003.4 132.26C2003.23 132.428 2003.03 132.512 2002.79 132.512ZM2003.46 133.388V140H2002.09V133.388H2003.46ZM2004.92 136.664C2004.92 136 2005.05 135.412 2005.33 134.9C2005.61 134.388 2005.98 133.992 2006.45 133.712C2006.93 133.424 2007.47 133.28 2008.05 133.28C2008.48 133.28 2008.91 133.376 2009.32 133.568C2009.75 133.752 2010.08 134 2010.33 134.312V131.12H2011.71V140H2010.33V139.004C2010.11 139.324 2009.79 139.588 2009.39 139.796C2009 140.004 2008.55 140.108 2008.04 140.108C2007.46 140.108 2006.93 139.964 2006.45 139.676C2005.98 139.38 2005.61 138.972 2005.33 138.452C2005.05 137.924 2004.92 137.328 2004.92 136.664ZM2010.33 136.688C2010.33 136.232 2010.23 135.836 2010.04 135.5C2009.86 135.164 2009.61 134.908 2009.31 134.732C2009.01 134.556 2008.68 134.468 2008.33 134.468C2007.97 134.468 2007.65 134.556 2007.34 134.732C2007.04 134.9 2006.79 135.152 2006.6 135.488C2006.41 135.816 2006.32 136.208 2006.32 136.664C2006.32 137.12 2006.41 137.52 2006.6 137.864C2006.79 138.208 2007.04 138.472 2007.34 138.656C2007.65 138.832 2007.98 138.92 2008.33 138.92C2008.68 138.92 2009.01 138.832 2009.31 138.656C2009.61 138.48 2009.86 138.224 2010.04 137.888C2010.23 137.544 2010.33 137.144 2010.33 136.688ZM2019.69 136.532C2019.69 136.78 2019.67 137.004 2019.64 137.204H2014.59C2014.63 137.732 2014.82 138.156 2015.18 138.476C2015.53 138.796 2015.96 138.956 2016.47 138.956C2017.21 138.956 2017.73 138.648 2018.03 138.032H2019.51C2019.31 138.64 2018.94 139.14 2018.42 139.532C2017.9 139.916 2017.25 140.108 2016.47 140.108C2015.84 140.108 2015.27 139.968 2014.77 139.688C2014.27 139.4 2013.88 139 2013.59 138.488C2013.31 137.968 2013.17 137.368 2013.17 136.688C2013.17 136.008 2013.31 135.412 2013.58 134.9C2013.86 134.38 2014.25 133.98 2014.74 133.7C2015.25 133.42 2015.82 133.28 2016.47 133.28C2017.1 133.28 2017.65 133.416 2018.14 133.688C2018.63 133.96 2019.01 134.344 2019.28 134.84C2019.55 135.328 2019.69 135.892 2019.69 136.532ZM2018.26 136.1C2018.25 135.596 2018.07 135.192 2017.72 134.888C2017.37 134.584 2016.93 134.432 2016.41 134.432C2015.94 134.432 2015.54 134.584 2015.2 134.888C2014.86 135.184 2014.66 135.588 2014.6 136.1H2018.26ZM2024.49 133.28C2025.01 133.28 2025.47 133.388 2025.88 133.604C2026.3 133.82 2026.62 134.14 2026.85 134.564C2027.09 134.988 2027.2 135.5 2027.2 136.1V140H2025.85V136.304C2025.85 135.712 2025.7 135.26 2025.4 134.948C2025.11 134.628 2024.7 134.468 2024.19 134.468C2023.68 134.468 2023.27 134.628 2022.97 134.948C2022.67 135.26 2022.52 135.712 2022.52 136.304V140H2021.15V133.388H2022.52V134.144C2022.75 133.872 2023.03 133.66 2023.37 133.508C2023.73 133.356 2024.1 133.28 2024.49 133.28ZM2028.61 136.688C2028.61 136.008 2028.75 135.412 2029.02 134.9C2029.3 134.38 2029.68 133.98 2030.17 133.7C2030.66 133.42 2031.22 133.28 2031.85 133.28C2032.65 133.28 2033.31 133.472 2033.83 133.856C2034.36 134.232 2034.72 134.772 2034.9 135.476H2033.42C2033.3 135.148 2033.11 134.892 2032.85 134.708C2032.58 134.524 2032.25 134.432 2031.85 134.432C2031.29 134.432 2030.84 134.632 2030.51 135.032C2030.18 135.424 2030.02 135.976 2030.02 136.688C2030.02 137.4 2030.18 137.956 2030.51 138.356C2030.84 138.756 2031.29 138.956 2031.85 138.956C2032.64 138.956 2033.17 138.608 2033.42 137.912H2034.9C2034.71 138.584 2034.35 139.12 2033.82 139.52C2033.29 139.912 2032.64 140.108 2031.85 140.108C2031.22 140.108 2030.66 139.968 2030.17 139.688C2029.68 139.4 2029.3 139 2029.02 138.488C2028.75 137.968 2028.61 137.368 2028.61 136.688ZM2042.44 136.532C2042.44 136.78 2042.43 137.004 2042.39 137.204H2037.34C2037.38 137.732 2037.58 138.156 2037.93 138.476C2038.28 138.796 2038.71 138.956 2039.23 138.956C2039.96 138.956 2040.48 138.648 2040.79 138.032H2042.26C2042.06 138.64 2041.7 139.14 2041.17 139.532C2040.65 139.916 2040 140.108 2039.23 140.108C2038.59 140.108 2038.03 139.968 2037.52 139.688C2037.03 139.4 2036.63 139 2036.35 138.488C2036.07 137.968 2035.93 137.368 2035.93 136.688C2035.93 136.008 2036.06 135.412 2036.33 134.9C2036.61 134.38 2037 133.98 2037.5 133.7C2038 133.42 2038.58 133.28 2039.23 133.28C2039.85 133.28 2040.41 133.416 2040.89 133.688C2041.38 133.96 2041.76 134.344 2042.03 134.84C2042.31 135.328 2042.44 135.892 2042.44 136.532ZM2041.01 136.1C2041.01 135.596 2040.83 135.192 2040.47 134.888C2040.12 134.584 2039.69 134.432 2039.17 134.432C2038.69 134.432 2038.29 134.584 2037.95 134.888C2037.62 135.184 2037.42 135.588 2037.35 136.1H2041.01Z" fill="black"/>
<path d="M15 266.383L149.742 168L45.6556 331.259L209.628 218.617" stroke="#FCA311" stroke-width="28.5169" stroke-linecap="round" stroke-linejoin="round"/>
<defs>
<filter id="filter0_d_29_3340" x="1540" y="0" width="671" height="459" filterUnits="userSpaceOnUse" color-interpolation-filters="sRGB">
<feFlood flood-opacity="0" result="BackgroundImageFix"/>
<feColorMatrix in="SourceAlpha" type="matrix" values="0 0 0 0 0 0 0 0 0 0 0 0 0 0 0 0 0 0 127 0" result="hardAlpha"/>
<feOffset dy="6"/>
<feGaussianBlur stdDeviation="9"/>
<feColorMatrix type="matrix" values="0 0 0 0 0 0 0 0 0 0 0 0 0 0 0 0 0 0 0.06 0"/>
<feBlend mode="normal" in2="BackgroundImageFix" result="effect1_dropShadow_29_3340"/>
<feBlend mode="normal" in="SourceGraphic" in2="effect1_dropShadow_29_3340" result="shape"/>
</filter>
<filter id="filter1_d_29_3340" x="1540" y="0" width="671" height="455" filterUnits="userSpaceOnUse" color-interpolation-filters="sRGB">
<feFlood flood-opacity="0" result="BackgroundImageFix"/>
<feColorMatrix in="SourceAlpha" type="matrix" values="0 0 0 0 0 0 0 0 0 0 0 0 0 0 0 0 0 0 127 0" result="hardAlpha"/>
<feOffset dy="6"/>
<feGaussianBlur stdDeviation="9"/>
<feColorMatrix type="matrix" values="0 0 0 0 0 0 0 0 0 0 0 0 0 0 0 0 0 0 0.06 0"/>
<feBlend mode="normal" in2="BackgroundImageFix" result="effect1_dropShadow_29_3340"/>
<feBlend mode="normal" in="SourceGraphic" in2="effect1_dropShadow_29_3340" result="shape"/>
</filter>
<filter id="filter2_d_29_3340" x="1572" y="148" width="607" height="68" filterUnits="userSpaceOnUse" color-interpolation-filters="sRGB">
<feFlood flood-opacity="0" result="BackgroundImageFix"/>
<feColorMatrix in="SourceAlpha" type="matrix" values="0 0 0 0 0 0 0 0 0 0 0 0 0 0 0 0 0 0 127 0" result="hardAlpha"/>
<feOffset dy="2"/>
<feGaussianBlur stdDeviation="5"/>
<feColorMatrix type="matrix" values="0 0 0 0 0 0 0 0 0 0 0 0 0 0 0 0 0 0 0.08 0"/>
<feBlend mode="normal" in2="BackgroundImageFix" result="effect1_dropShadow_29_3340"/>
<feBlend mode="normal" in="SourceGraphic" in2="effect1_dropShadow_29_3340" result="shape"/>
</filter>
<filter id="filter3_d_29_3340" x="1572" y="218" width="607" height="68" filterUnits="userSpaceOnUse" color-interpolation-filters="sRGB">
<feFlood flood-opacity="0" result="BackgroundImageFix"/>
<feColorMatrix in="SourceAlpha" type="matrix" values="0 0 0 0 0 0 0 0 0 0 0 0 0 0 0 0 0 0 127 0" result="hardAlpha"/>
<feOffset dy="2"/>
<feGaussianBlur stdDeviation="5"/>
<feColorMatrix type="matrix" values="0 0 0 0 0 0 0 0 0 0 0 0 0 0 0 0 0 0 0.08 0"/>
<feBlend mode="normal" in2="BackgroundImageFix" result="effect1_dropShadow_29_3340"/>
<feBlend mode="normal" in="SourceGraphic" in2="effect1_dropShadow_29_3340" result="shape"/>
</filter>
<filter id="filter4_d_29_3340" x="1572" y="288" width="607" height="68" filterUnits="userSpaceOnUse" color-interpolation-filters="sRGB">
<feFlood flood-opacity="0" result="BackgroundImageFix"/>
<feColorMatrix in="SourceAlpha" type="matrix" values="0 0 0 0 0 0 0 0 0 0 0 0 0 0 0 0 0 0 127 0" result="hardAlpha"/>
<feOffset dy="2"/>
<feGaussianBlur stdDeviation="5"/>
<feColorMatrix type="matrix" values="0 0 0 0 0 0 0 0 0 0 0 0 0 0 0 0 0 0 0.08 0"/>
<feBlend mode="normal" in2="BackgroundImageFix" result="effect1_dropShadow_29_3340"/>
<feBlend mode="normal" in="SourceGraphic" in2="effect1_dropShadow_29_3340" result="shape"/>
</filter>
<filter id="filter5_d_29_3340" x="1572" y="358" width="607" height="68" filterUnits="userSpaceOnUse" color-interpolation-filters="sRGB">
<feFlood flood-opacity="0" result="BackgroundImageFix"/>
<feColorMatrix in="SourceAlpha" type="matrix" values="0 0 0 0 0 0 0 0 0 0 0 0 0 0 0 0 0 0 127 0" result="hardAlpha"/>
<feOffset dy="2"/>
<feGaussianBlur stdDeviation="5"/>
<feColorMatrix type="matrix" values="0 0 0 0 0 0 0 0 0 0 0 0 0 0 0 0 0 0 0.08 0"/>
<feBlend mode="normal" in2="BackgroundImageFix" result="effect1_dropShadow_29_3340"/>
<feBlend mode="normal" in="SourceGraphic" in2="effect1_dropShadow_29_3340" result="shape"/>
</filter>
</defs>
</svg>
