<svg id="svg-container" width="2263" height="785" viewBox="0 0 2263 785" fill="none" xmlns="http://www.w3.org/2000/svg">
    <style type="text/css">


        #svg-container {
            overflow: visible;
            height: 100%;
            width: 100%;
        }
    </style>

    <path d="M1478 113.383L1612.74 15L1508.66 178.259L1672.63 65.6175" stroke="#FCA311" stroke-width="28.5169" stroke-linecap="round" stroke-linejoin="round"/>
    <path d="M2054 497.383L2188.74 399L2084.66 562.259L2248.63 449.617" stroke="#2ED47A" stroke-width="28.5169" stroke-linecap="round" stroke-linejoin="round"/>
    <g filter="url(#filter0_d_115_225)">
        <rect x="1558" y="81" width="635" height="423" rx="4" fill="white"/>
    </g>
    <g filter="url(#filter1_d_115_225)">
        <rect x="1558" y="81" width="635" height="419" rx="4" fill="white"/>
    </g>
    <path d="M1585.95 111.091C1585.35 111.091 1584.8 110.987 1584.31 110.779C1583.83 110.562 1583.45 110.259 1583.17 109.869C1582.89 109.479 1582.75 109.024 1582.75 108.504H1584.34C1584.37 108.894 1584.53 109.215 1584.8 109.466C1585.07 109.717 1585.46 109.843 1585.95 109.843C1586.46 109.843 1586.86 109.722 1587.15 109.479C1587.43 109.228 1587.58 108.907 1587.58 108.517C1587.58 108.214 1587.49 107.967 1587.3 107.776C1587.13 107.585 1586.91 107.438 1586.64 107.334C1586.38 107.23 1586.02 107.117 1585.55 106.996C1584.96 106.84 1584.48 106.684 1584.11 106.528C1583.74 106.363 1583.43 106.112 1583.17 105.774C1582.91 105.436 1582.78 104.985 1582.78 104.422C1582.78 103.902 1582.91 103.447 1583.17 103.057C1583.43 102.667 1583.79 102.368 1584.26 102.16C1584.73 101.952 1585.27 101.848 1585.89 101.848C1586.76 101.848 1587.48 102.069 1588.03 102.511C1588.6 102.944 1588.91 103.542 1588.97 104.305H1587.33C1587.3 103.976 1587.15 103.694 1586.86 103.46C1586.58 103.226 1586.2 103.109 1585.73 103.109C1585.31 103.109 1584.96 103.217 1584.69 103.434C1584.42 103.651 1584.29 103.963 1584.29 104.37C1584.29 104.647 1584.37 104.877 1584.54 105.059C1584.71 105.232 1584.93 105.371 1585.19 105.475C1585.45 105.579 1585.8 105.692 1586.25 105.813C1586.85 105.978 1587.33 106.142 1587.71 106.307C1588.09 106.472 1588.41 106.727 1588.67 107.074C1588.94 107.412 1589.07 107.867 1589.07 108.439C1589.07 108.898 1588.95 109.332 1588.7 109.739C1588.45 110.146 1588.09 110.476 1587.62 110.727C1587.15 110.97 1586.59 111.091 1585.95 111.091ZM1597.52 107.243C1597.52 107.512 1597.5 107.754 1597.46 107.971H1591.99C1592.03 108.543 1592.25 109.002 1592.63 109.349C1593.01 109.696 1593.48 109.869 1594.03 109.869C1594.83 109.869 1595.39 109.535 1595.72 108.868H1597.32C1597.1 109.527 1596.71 110.068 1596.14 110.493C1595.57 110.909 1594.87 111.117 1594.03 111.117C1593.35 111.117 1592.73 110.965 1592.19 110.662C1591.65 110.35 1591.22 109.917 1590.91 109.362C1590.61 108.799 1590.46 108.149 1590.46 107.412C1590.46 106.675 1590.6 106.03 1590.9 105.475C1591.2 104.912 1591.62 104.478 1592.16 104.175C1592.71 103.872 1593.33 103.72 1594.03 103.72C1594.71 103.72 1595.31 103.867 1595.84 104.162C1596.37 104.457 1596.78 104.873 1597.07 105.41C1597.37 105.939 1597.52 106.55 1597.52 107.243ZM1595.97 106.775C1595.96 106.229 1595.77 105.791 1595.38 105.462C1595 105.133 1594.53 104.968 1593.97 104.968C1593.46 104.968 1593.02 105.133 1592.65 105.462C1592.29 105.783 1592.07 106.22 1592 106.775H1595.97ZM1598.61 107.386C1598.61 106.667 1598.76 106.03 1599.05 105.475C1599.36 104.92 1599.76 104.491 1600.27 104.188C1600.79 103.876 1601.37 103.72 1601.99 103.72C1602.55 103.72 1603.04 103.833 1603.46 104.058C1603.88 104.275 1604.22 104.548 1604.47 104.877V103.837H1605.97V111H1604.47V109.934C1604.22 110.272 1603.88 110.554 1603.45 110.779C1603.01 111.004 1602.52 111.117 1601.96 111.117C1601.35 111.117 1600.79 110.961 1600.27 110.649C1599.76 110.328 1599.36 109.886 1599.05 109.323C1598.76 108.751 1598.61 108.105 1598.61 107.386ZM1604.47 107.412C1604.47 106.918 1604.37 106.489 1604.16 106.125C1603.96 105.761 1603.7 105.484 1603.37 105.293C1603.04 105.102 1602.68 105.007 1602.3 105.007C1601.92 105.007 1601.57 105.102 1601.24 105.293C1600.91 105.475 1600.64 105.748 1600.43 106.112C1600.23 106.467 1600.13 106.892 1600.13 107.386C1600.13 107.88 1600.23 108.313 1600.43 108.686C1600.64 109.059 1600.91 109.345 1601.24 109.544C1601.57 109.735 1601.93 109.83 1602.3 109.83C1602.68 109.83 1603.04 109.735 1603.37 109.544C1603.7 109.353 1603.96 109.076 1604.16 108.712C1604.37 108.339 1604.47 107.906 1604.47 107.412ZM1609.53 104.877C1609.74 104.513 1610.03 104.231 1610.38 104.032C1610.75 103.824 1611.18 103.72 1611.67 103.72V105.254H1611.29C1610.71 105.254 1610.27 105.401 1609.97 105.696C1609.67 105.991 1609.53 106.502 1609.53 107.23V111H1608.04V103.837H1609.53V104.877ZM1612.67 107.412C1612.67 106.675 1612.82 106.03 1613.11 105.475C1613.42 104.912 1613.83 104.478 1614.36 104.175C1614.89 103.872 1615.5 103.72 1616.18 103.72C1617.05 103.72 1617.76 103.928 1618.32 104.344C1618.9 104.751 1619.28 105.336 1619.48 106.099H1617.88C1617.75 105.744 1617.54 105.466 1617.26 105.267C1616.97 105.068 1616.61 104.968 1616.18 104.968C1615.57 104.968 1615.09 105.185 1614.72 105.618C1614.37 106.043 1614.19 106.641 1614.19 107.412C1614.19 108.183 1614.37 108.786 1614.72 109.219C1615.09 109.652 1615.57 109.869 1616.18 109.869C1617.04 109.869 1617.61 109.492 1617.88 108.738H1619.48C1619.27 109.466 1618.88 110.047 1618.31 110.48C1617.74 110.905 1617.03 111.117 1616.18 111.117C1615.5 111.117 1614.89 110.965 1614.36 110.662C1613.83 110.35 1613.42 109.917 1613.11 109.362C1612.82 108.799 1612.67 108.149 1612.67 107.412ZM1624.79 103.72C1625.34 103.72 1625.83 103.837 1626.25 104.071C1626.68 104.305 1627.02 104.652 1627.26 105.111C1627.52 105.57 1627.64 106.125 1627.64 106.775V111H1626.17V106.996C1626.17 106.355 1626.01 105.865 1625.69 105.527C1625.37 105.18 1624.93 105.007 1624.38 105.007C1623.82 105.007 1623.38 105.18 1623.05 105.527C1622.73 105.865 1622.57 106.355 1622.57 106.996V111H1621.09V101.38H1622.57V104.669C1622.82 104.366 1623.14 104.132 1623.52 103.967C1623.91 103.802 1624.33 103.72 1624.79 103.72ZM1637.86 111L1635.78 107.386H1634.65V111H1633.17V101.965H1636.29C1636.98 101.965 1637.57 102.086 1638.04 102.329C1638.53 102.572 1638.89 102.897 1639.12 103.304C1639.36 103.711 1639.49 104.166 1639.49 104.669C1639.49 105.258 1639.31 105.796 1638.97 106.281C1638.63 106.758 1638.1 107.083 1637.39 107.256L1639.63 111H1637.86ZM1634.65 106.203H1636.29C1636.84 106.203 1637.26 106.064 1637.54 105.787C1637.82 105.51 1637.97 105.137 1637.97 104.669C1637.97 104.201 1637.83 103.837 1637.55 103.577C1637.27 103.308 1636.85 103.174 1636.29 103.174H1634.65V106.203ZM1648.08 107.243C1648.08 107.512 1648.06 107.754 1648.03 107.971H1642.55C1642.6 108.543 1642.81 109.002 1643.19 109.349C1643.57 109.696 1644.04 109.869 1644.59 109.869C1645.39 109.869 1645.95 109.535 1646.28 108.868H1647.88C1647.67 109.527 1647.27 110.068 1646.7 110.493C1646.14 110.909 1645.43 111.117 1644.59 111.117C1643.91 111.117 1643.29 110.965 1642.75 110.662C1642.21 110.35 1641.79 109.917 1641.47 109.362C1641.17 108.799 1641.02 108.149 1641.02 107.412C1641.02 106.675 1641.17 106.03 1641.46 105.475C1641.76 104.912 1642.18 104.478 1642.72 104.175C1643.27 103.872 1643.89 103.72 1644.59 103.72C1645.27 103.72 1645.87 103.867 1646.4 104.162C1646.93 104.457 1647.34 104.873 1647.64 105.41C1647.93 105.939 1648.08 106.55 1648.08 107.243ZM1646.53 106.775C1646.52 106.229 1646.33 105.791 1645.95 105.462C1645.56 105.133 1645.09 104.968 1644.53 104.968C1644.02 104.968 1643.58 105.133 1643.22 105.462C1642.85 105.783 1642.63 106.22 1642.57 106.775H1646.53ZM1652.27 111.117C1651.7 111.117 1651.2 111.017 1650.74 110.818C1650.3 110.61 1649.95 110.333 1649.69 109.986C1649.43 109.631 1649.29 109.236 1649.28 108.803H1650.81C1650.84 109.106 1650.98 109.362 1651.24 109.57C1651.51 109.769 1651.84 109.869 1652.24 109.869C1652.66 109.869 1652.98 109.791 1653.2 109.635C1653.44 109.47 1653.55 109.262 1653.55 109.011C1653.55 108.742 1653.42 108.543 1653.16 108.413C1652.91 108.283 1652.51 108.14 1651.95 107.984C1651.42 107.837 1650.98 107.694 1650.64 107.555C1650.3 107.416 1650.01 107.204 1649.76 106.918C1649.51 106.632 1649.39 106.255 1649.39 105.787C1649.39 105.406 1649.51 105.059 1649.73 104.747C1649.96 104.426 1650.28 104.175 1650.69 103.993C1651.12 103.811 1651.6 103.72 1652.15 103.72C1652.96 103.72 1653.62 103.928 1654.11 104.344C1654.61 104.751 1654.88 105.31 1654.92 106.021H1653.44C1653.41 105.7 1653.28 105.445 1653.05 105.254C1652.81 105.063 1652.5 104.968 1652.1 104.968C1651.71 104.968 1651.41 105.042 1651.2 105.189C1650.99 105.336 1650.89 105.531 1650.89 105.774C1650.89 105.965 1650.96 106.125 1651.1 106.255C1651.23 106.385 1651.4 106.489 1651.6 106.567C1651.8 106.636 1652.1 106.727 1652.49 106.84C1653.01 106.979 1653.43 107.122 1653.76 107.269C1654.1 107.408 1654.39 107.616 1654.63 107.893C1654.87 108.17 1655 108.539 1655.01 108.998C1655.01 109.405 1654.9 109.769 1654.67 110.09C1654.45 110.411 1654.12 110.662 1653.71 110.844C1653.3 111.026 1652.82 111.117 1652.27 111.117ZM1663.23 103.837V111H1661.74V110.155C1661.51 110.45 1661.2 110.684 1660.82 110.857C1660.45 111.022 1660.05 111.104 1659.63 111.104C1659.06 111.104 1658.56 110.987 1658.1 110.753C1657.66 110.519 1657.31 110.172 1657.05 109.713C1656.8 109.254 1656.67 108.699 1656.67 108.049V103.837H1658.14V107.828C1658.14 108.469 1658.3 108.963 1658.62 109.31C1658.95 109.648 1659.38 109.817 1659.94 109.817C1660.49 109.817 1660.93 109.648 1661.25 109.31C1661.58 108.963 1661.74 108.469 1661.74 107.828V103.837H1663.23ZM1666.79 101.38V111H1665.31V101.38H1666.79ZM1670.6 105.046V109.011C1670.6 109.28 1670.66 109.475 1670.78 109.596C1670.91 109.709 1671.13 109.765 1671.43 109.765H1672.34V111H1671.17C1670.5 111 1669.99 110.844 1669.64 110.532C1669.28 110.22 1669.1 109.713 1669.1 109.011V105.046H1668.26V103.837H1669.1V102.056H1670.6V103.837H1672.34V105.046H1670.6ZM1676.44 111.117C1675.87 111.117 1675.37 111.017 1674.92 110.818C1674.47 110.61 1674.12 110.333 1673.86 109.986C1673.6 109.631 1673.46 109.236 1673.45 108.803H1674.98C1675.01 109.106 1675.15 109.362 1675.41 109.57C1675.68 109.769 1676.01 109.869 1676.41 109.869C1676.83 109.869 1677.15 109.791 1677.37 109.635C1677.61 109.47 1677.72 109.262 1677.72 109.011C1677.72 108.742 1677.59 108.543 1677.33 108.413C1677.08 108.283 1676.68 108.14 1676.12 107.984C1675.59 107.837 1675.15 107.694 1674.81 107.555C1674.47 107.416 1674.18 107.204 1673.93 106.918C1673.69 106.632 1673.56 106.255 1673.56 105.787C1673.56 105.406 1673.68 105.059 1673.9 104.747C1674.13 104.426 1674.45 104.175 1674.86 103.993C1675.29 103.811 1675.77 103.72 1676.32 103.72C1677.13 103.72 1677.79 103.928 1678.28 104.344C1678.79 104.751 1679.05 105.31 1679.09 106.021H1677.61C1677.58 105.7 1677.45 105.445 1677.22 105.254C1676.98 105.063 1676.67 104.968 1676.27 104.968C1675.88 104.968 1675.58 105.042 1675.37 105.189C1675.16 105.336 1675.06 105.531 1675.06 105.774C1675.06 105.965 1675.13 106.125 1675.27 106.255C1675.41 106.385 1675.57 106.489 1675.77 106.567C1675.97 106.636 1676.27 106.727 1676.66 106.84C1677.18 106.979 1677.6 107.122 1677.93 107.269C1678.27 107.408 1678.56 107.616 1678.8 107.893C1679.05 108.17 1679.17 108.539 1679.18 108.998C1679.18 109.405 1679.07 109.769 1678.84 110.09C1678.62 110.411 1678.3 110.662 1677.88 110.844C1677.47 111.026 1676.99 111.117 1676.44 111.117ZM1689.74 101.965V103.174H1685.9V105.839H1688.89V107.048H1685.9V111H1684.42V101.965H1689.74ZM1694.35 111.117C1693.67 111.117 1693.06 110.965 1692.51 110.662C1691.97 110.35 1691.54 109.917 1691.23 109.362C1690.91 108.799 1690.76 108.149 1690.76 107.412C1690.76 106.684 1690.92 106.038 1691.24 105.475C1691.56 104.912 1692 104.478 1692.55 104.175C1693.11 103.872 1693.73 103.72 1694.41 103.72C1695.1 103.72 1695.71 103.872 1696.27 104.175C1696.82 104.478 1697.26 104.912 1697.58 105.475C1697.9 106.038 1698.06 106.684 1698.06 107.412C1698.06 108.14 1697.9 108.786 1697.57 109.349C1697.24 109.912 1696.79 110.35 1696.22 110.662C1695.65 110.965 1695.03 111.117 1694.35 111.117ZM1694.35 109.83C1694.73 109.83 1695.08 109.739 1695.41 109.557C1695.75 109.375 1696.02 109.102 1696.23 108.738C1696.44 108.374 1696.54 107.932 1696.54 107.412C1696.54 106.892 1696.44 106.454 1696.24 106.099C1696.04 105.735 1695.78 105.462 1695.45 105.28C1695.12 105.098 1694.77 105.007 1694.38 105.007C1694 105.007 1693.65 105.098 1693.32 105.28C1693 105.462 1692.74 105.735 1692.55 106.099C1692.36 106.454 1692.27 106.892 1692.27 107.412C1692.27 108.183 1692.46 108.781 1692.85 109.206C1693.25 109.622 1693.75 109.83 1694.35 109.83ZM1701.14 104.877C1701.36 104.513 1701.64 104.231 1702 104.032C1702.36 103.824 1702.79 103.72 1703.29 103.72V105.254H1702.91C1702.33 105.254 1701.89 105.401 1701.58 105.696C1701.29 105.991 1701.14 106.502 1701.14 107.23V111H1699.66V103.837H1701.14V104.877ZM1705.38 111.091C1705.11 111.091 1704.88 111 1704.7 110.818C1704.52 110.636 1704.43 110.411 1704.43 110.142C1704.43 109.873 1704.52 109.648 1704.7 109.466C1704.88 109.284 1705.11 109.193 1705.38 109.193C1705.64 109.193 1705.86 109.284 1706.04 109.466C1706.22 109.648 1706.31 109.873 1706.31 110.142C1706.31 110.411 1706.22 110.636 1706.04 110.818C1705.86 111 1705.64 111.091 1705.38 111.091ZM1705.38 105.631C1705.11 105.631 1704.88 105.54 1704.7 105.358C1704.52 105.176 1704.43 104.951 1704.43 104.682C1704.43 104.413 1704.52 104.188 1704.7 104.006C1704.88 103.824 1705.11 103.733 1705.38 103.733C1705.64 103.733 1705.86 103.824 1706.04 104.006C1706.22 104.188 1706.31 104.413 1706.31 104.682C1706.31 104.951 1706.22 105.176 1706.04 105.358C1705.86 105.54 1705.64 105.631 1705.38 105.631Z" fill="#14213D"/>
    <rect x="1582" y="133" width="587" height="1" rx="0.5" fill="#14213D"/>
    <g filter="url(#filter2_d_115_225)">
        <path d="M1582 229C1582 226.791 1583.79 225 1586 225H2165C2167.21 225 2169 226.791 2169 229V269C2169 271.209 2167.21 273 2165 273H1586C1583.79 273 1582 271.209 1582 269V229Z" fill="white"/>
    </g>
    <rect x="1592" y="243" width="162" height="15" rx="7.5" fill="#D7D7D7"/>
    <rect x="1792" y="243" width="127" height="15" rx="7.5" fill="#D7D7D7"/>
    <rect x="2071" y="242" width="82" height="15" rx="7.5" fill="#2ED47A"/>
    <g filter="url(#filter3_d_115_225)">
        <path d="M1582 299C1582 296.791 1583.79 295 1586 295H2165C2167.21 295 2169 296.791 2169 299V339C2169 341.209 2167.21 343 2165 343H1586C1583.79 343 1582 341.209 1582 339V299Z" fill="white"/>
    </g>
    <rect x="1592" y="313" width="162" height="15" rx="7.5" fill="#D7D7D7"/>
    <rect x="1792" y="313" width="127" height="15" rx="7.5" fill="#D7D7D7"/>
    <rect x="2071" y="312" width="82" height="15" rx="7.5" fill="#FCA311"/>
    <g filter="url(#filter4_d_115_225)">
        <path d="M1582 369C1582 366.791 1583.79 365 1586 365H2165C2167.21 365 2169 366.791 2169 369V409C2169 411.209 2167.21 413 2165 413H1586C1583.79 413 1582 411.209 1582 409V369Z" fill="white"/>
    </g>
    <rect x="1592" y="383" width="162" height="15" rx="7.5" fill="#D7D7D7"/>
    <rect x="1792" y="383" width="127" height="15" rx="7.5" fill="#D7D7D7"/>
    <rect x="2071" y="382" width="82" height="15" rx="7.5" fill="#FCA311"/>
    <g filter="url(#filter5_d_115_225)">
        <path d="M1582 439C1582 436.791 1583.79 435 1586 435H2165C2167.21 435 2169 436.791 2169 439V479C2169 481.209 2167.21 483 2165 483H1586C1583.79 483 1582 481.209 1582 479V439Z" fill="white"/>
    </g>
    <rect x="1592" y="453" width="162" height="15" rx="7.5" fill="#D7D7D7"/>
    <rect x="1792" y="453" width="127" height="15" rx="7.5" fill="#D7D7D7"/>
    <rect x="2071" y="452" width="82" height="15" rx="7.5" fill="#F7685B"/>
    <rect x="1711" y="100" width="162" height="15" rx="7.5" fill="#D7D7D7"/>
    <path d="M1590.5 209L1587.27 205.268V209H1585.9V200.66H1587.27V204.464L1590.51 200.66H1592.22L1588.6 204.836L1592.28 209H1590.5ZM1599.67 205.532C1599.67 205.78 1599.66 206.004 1599.63 206.204H1594.57C1594.61 206.732 1594.81 207.156 1595.16 207.476C1595.51 207.796 1595.95 207.956 1596.46 207.956C1597.19 207.956 1597.71 207.648 1598.02 207.032H1599.49C1599.29 207.64 1598.93 208.14 1598.4 208.532C1597.88 208.916 1597.23 209.108 1596.46 209.108C1595.83 209.108 1595.26 208.968 1594.75 208.688C1594.26 208.4 1593.87 208 1593.58 207.488C1593.3 206.968 1593.16 206.368 1593.16 205.688C1593.16 205.008 1593.29 204.412 1593.57 203.9C1593.85 203.38 1594.23 202.98 1594.73 202.7C1595.23 202.42 1595.81 202.28 1596.46 202.28C1597.08 202.28 1597.64 202.416 1598.13 202.688C1598.61 202.96 1598.99 203.344 1599.27 203.84C1599.54 204.328 1599.67 204.892 1599.67 205.532ZM1598.25 205.1C1598.24 204.596 1598.06 204.192 1597.71 203.888C1597.35 203.584 1596.92 203.432 1596.4 203.432C1595.93 203.432 1595.52 203.584 1595.19 203.888C1594.85 204.184 1594.65 204.588 1594.59 205.1H1598.25ZM1607.09 202.388L1603.04 212.108H1601.62L1602.96 208.892L1600.36 202.388H1601.88L1603.74 207.428L1605.68 202.388H1607.09ZM1617.12 202.388L1615.07 209H1613.63L1612.3 204.116L1610.97 209H1609.53L1607.46 202.388H1608.86L1610.24 207.704L1611.64 202.388H1613.07L1614.41 207.68L1615.78 202.388H1617.12ZM1621.13 209.108C1620.51 209.108 1619.95 208.968 1619.44 208.688C1618.94 208.4 1618.54 208 1618.25 207.488C1617.97 206.968 1617.82 206.368 1617.82 205.688C1617.82 205.016 1617.97 204.42 1618.27 203.9C1618.56 203.38 1618.97 202.98 1619.48 202.7C1619.99 202.42 1620.56 202.28 1621.19 202.28C1621.83 202.28 1622.4 202.42 1622.91 202.7C1623.42 202.98 1623.83 203.38 1624.12 203.9C1624.42 204.42 1624.57 205.016 1624.57 205.688C1624.57 206.36 1624.41 206.956 1624.11 207.476C1623.81 207.996 1623.39 208.4 1622.86 208.688C1622.34 208.968 1621.77 209.108 1621.13 209.108ZM1621.13 207.92C1621.49 207.92 1621.81 207.836 1622.12 207.668C1622.43 207.5 1622.68 207.248 1622.87 206.912C1623.07 206.576 1623.16 206.168 1623.16 205.688C1623.16 205.208 1623.07 204.804 1622.89 204.476C1622.7 204.14 1622.46 203.888 1622.15 203.72C1621.85 203.552 1621.52 203.468 1621.17 203.468C1620.82 203.468 1620.49 203.552 1620.19 203.72C1619.89 203.888 1619.65 204.14 1619.48 204.476C1619.3 204.804 1619.21 205.208 1619.21 205.688C1619.21 206.4 1619.39 206.952 1619.75 207.344C1620.12 207.728 1620.58 207.92 1621.13 207.92ZM1627.41 203.348C1627.61 203.012 1627.87 202.752 1628.2 202.568C1628.54 202.376 1628.93 202.28 1629.39 202.28V203.696H1629.04C1628.5 203.696 1628.1 203.832 1627.82 204.104C1627.54 204.376 1627.41 204.848 1627.41 205.52V209H1626.04V202.388H1627.41V203.348ZM1630.31 205.664C1630.31 205 1630.44 204.412 1630.72 203.9C1631 203.388 1631.37 202.992 1631.84 202.712C1632.32 202.424 1632.86 202.28 1633.44 202.28C1633.87 202.28 1634.3 202.376 1634.71 202.568C1635.14 202.752 1635.47 203 1635.72 203.312V200.12H1637.1V209H1635.72V208.004C1635.5 208.324 1635.18 208.588 1634.78 208.796C1634.39 209.004 1633.94 209.108 1633.43 209.108C1632.85 209.108 1632.32 208.964 1631.84 208.676C1631.37 208.38 1631 207.972 1630.72 207.452C1630.44 206.924 1630.31 206.328 1630.31 205.664ZM1635.72 205.688C1635.72 205.232 1635.62 204.836 1635.43 204.5C1635.25 204.164 1635 203.908 1634.7 203.732C1634.4 203.556 1634.07 203.468 1633.72 203.468C1633.36 203.468 1633.04 203.556 1632.73 203.732C1632.43 203.9 1632.18 204.152 1631.99 204.488C1631.8 204.816 1631.71 205.208 1631.71 205.664C1631.71 206.12 1631.8 206.52 1631.99 206.864C1632.18 207.208 1632.43 207.472 1632.73 207.656C1633.04 207.832 1633.37 207.92 1633.72 207.92C1634.07 207.92 1634.4 207.832 1634.7 207.656C1635 207.48 1635.25 207.224 1635.43 206.888C1635.62 206.544 1635.72 206.144 1635.72 205.688Z" fill="black"/>
    <path d="M1792.44 204.812C1792.44 203.996 1792.63 203.264 1793.01 202.616C1793.39 201.968 1793.91 201.464 1794.56 201.104C1795.21 200.736 1795.93 200.552 1796.7 200.552C1797.59 200.552 1798.38 200.772 1799.07 201.212C1799.76 201.644 1800.27 202.26 1800.58 203.06H1798.94C1798.72 202.62 1798.42 202.292 1798.04 202.076C1797.65 201.86 1797.21 201.752 1796.7 201.752C1796.15 201.752 1795.66 201.876 1795.23 202.124C1794.8 202.372 1794.46 202.728 1794.21 203.192C1793.97 203.656 1793.85 204.196 1793.85 204.812C1793.85 205.428 1793.97 205.968 1794.21 206.432C1794.46 206.896 1794.8 207.256 1795.23 207.512C1795.66 207.76 1796.15 207.884 1796.7 207.884C1797.21 207.884 1797.65 207.776 1798.04 207.56C1798.42 207.344 1798.72 207.016 1798.94 206.576H1800.58C1800.27 207.376 1799.76 207.992 1799.07 208.424C1798.38 208.856 1797.59 209.072 1796.7 209.072C1795.92 209.072 1795.2 208.892 1794.56 208.532C1793.91 208.164 1793.39 207.656 1793.01 207.008C1792.63 206.36 1792.44 205.628 1792.44 204.812ZM1805.17 209.108C1804.55 209.108 1803.98 208.968 1803.48 208.688C1802.97 208.4 1802.58 208 1802.29 207.488C1802 206.968 1801.86 206.368 1801.86 205.688C1801.86 205.016 1802.01 204.42 1802.3 203.9C1802.6 203.38 1803 202.98 1803.51 202.7C1804.03 202.42 1804.6 202.28 1805.23 202.28C1805.86 202.28 1806.43 202.42 1806.95 202.7C1807.46 202.98 1807.86 203.38 1808.16 203.9C1808.45 204.42 1808.6 205.016 1808.6 205.688C1808.6 206.36 1808.45 206.956 1808.15 207.476C1807.84 207.996 1807.43 208.4 1806.9 208.688C1806.38 208.968 1805.8 209.108 1805.17 209.108ZM1805.17 207.92C1805.52 207.92 1805.85 207.836 1806.15 207.668C1806.47 207.5 1806.72 207.248 1806.91 206.912C1807.1 206.576 1807.2 206.168 1807.2 205.688C1807.2 205.208 1807.11 204.804 1806.92 204.476C1806.74 204.14 1806.49 203.888 1806.19 203.72C1805.89 203.552 1805.56 203.468 1805.21 203.468C1804.85 203.468 1804.53 203.552 1804.22 203.72C1803.93 203.888 1803.69 204.14 1803.51 204.476C1803.34 204.804 1803.25 205.208 1803.25 205.688C1803.25 206.4 1803.43 206.952 1803.79 207.344C1804.16 207.728 1804.62 207.92 1805.17 207.92ZM1813.41 202.28C1813.93 202.28 1814.39 202.388 1814.8 202.604C1815.22 202.82 1815.54 203.14 1815.77 203.564C1816.01 203.988 1816.12 204.5 1816.12 205.1V209H1814.77V205.304C1814.77 204.712 1814.62 204.26 1814.32 203.948C1814.03 203.628 1813.62 203.468 1813.11 203.468C1812.6 203.468 1812.19 203.628 1811.89 203.948C1811.59 204.26 1811.44 204.712 1811.44 205.304V209H1810.07V202.388H1811.44V203.144C1811.67 202.872 1811.95 202.66 1812.29 202.508C1812.65 202.356 1813.02 202.28 1813.41 202.28ZM1820.76 203.504H1819.53V209H1818.15V203.504H1817.37V202.388H1818.15V201.92C1818.15 201.16 1818.35 200.608 1818.75 200.264C1819.16 199.912 1819.8 199.736 1820.66 199.736V200.876C1820.25 200.876 1819.95 200.956 1819.79 201.116C1819.62 201.268 1819.53 201.536 1819.53 201.92V202.388H1820.76V203.504ZM1822.79 201.512C1822.54 201.512 1822.33 201.428 1822.16 201.26C1821.99 201.092 1821.91 200.884 1821.91 200.636C1821.91 200.388 1821.99 200.18 1822.16 200.012C1822.33 199.844 1822.54 199.76 1822.79 199.76C1823.03 199.76 1823.23 199.844 1823.4 200.012C1823.57 200.18 1823.65 200.388 1823.65 200.636C1823.65 200.884 1823.57 201.092 1823.4 201.26C1823.23 201.428 1823.03 201.512 1822.79 201.512ZM1823.46 202.388V209H1822.09V202.388H1823.46ZM1824.92 205.664C1824.92 205 1825.05 204.412 1825.33 203.9C1825.61 203.388 1825.98 202.992 1826.45 202.712C1826.93 202.424 1827.47 202.28 1828.05 202.28C1828.48 202.28 1828.91 202.376 1829.32 202.568C1829.75 202.752 1830.08 203 1830.33 203.312V200.12H1831.71V209H1830.33V208.004C1830.11 208.324 1829.79 208.588 1829.39 208.796C1829 209.004 1828.55 209.108 1828.04 209.108C1827.46 209.108 1826.93 208.964 1826.45 208.676C1825.98 208.38 1825.61 207.972 1825.33 207.452C1825.05 206.924 1824.92 206.328 1824.92 205.664ZM1830.33 205.688C1830.33 205.232 1830.23 204.836 1830.04 204.5C1829.86 204.164 1829.61 203.908 1829.31 203.732C1829.01 203.556 1828.68 203.468 1828.33 203.468C1827.97 203.468 1827.65 203.556 1827.34 203.732C1827.04 203.9 1826.79 204.152 1826.6 204.488C1826.41 204.816 1826.32 205.208 1826.32 205.664C1826.32 206.12 1826.41 206.52 1826.6 206.864C1826.79 207.208 1827.04 207.472 1827.34 207.656C1827.65 207.832 1827.98 207.92 1828.33 207.92C1828.68 207.92 1829.01 207.832 1829.31 207.656C1829.61 207.48 1829.86 207.224 1830.04 206.888C1830.23 206.544 1830.33 206.144 1830.33 205.688ZM1839.69 205.532C1839.69 205.78 1839.67 206.004 1839.64 206.204H1834.59C1834.63 206.732 1834.82 207.156 1835.18 207.476C1835.53 207.796 1835.96 207.956 1836.47 207.956C1837.21 207.956 1837.73 207.648 1838.03 207.032H1839.51C1839.31 207.64 1838.94 208.14 1838.42 208.532C1837.9 208.916 1837.25 209.108 1836.47 209.108C1835.84 209.108 1835.27 208.968 1834.77 208.688C1834.27 208.4 1833.88 208 1833.59 207.488C1833.31 206.968 1833.17 206.368 1833.17 205.688C1833.17 205.008 1833.31 204.412 1833.58 203.9C1833.86 203.38 1834.25 202.98 1834.74 202.7C1835.25 202.42 1835.82 202.28 1836.47 202.28C1837.1 202.28 1837.65 202.416 1838.14 202.688C1838.63 202.96 1839.01 203.344 1839.28 203.84C1839.55 204.328 1839.69 204.892 1839.69 205.532ZM1838.26 205.1C1838.25 204.596 1838.07 204.192 1837.72 203.888C1837.37 203.584 1836.93 203.432 1836.41 203.432C1835.94 203.432 1835.54 203.584 1835.2 203.888C1834.86 204.184 1834.66 204.588 1834.6 205.1H1838.26ZM1844.49 202.28C1845.01 202.28 1845.47 202.388 1845.88 202.604C1846.3 202.82 1846.62 203.14 1846.85 203.564C1847.09 203.988 1847.2 204.5 1847.2 205.1V209H1845.85V205.304C1845.85 204.712 1845.7 204.26 1845.4 203.948C1845.11 203.628 1844.7 203.468 1844.19 203.468C1843.68 203.468 1843.27 203.628 1842.97 203.948C1842.67 204.26 1842.52 204.712 1842.52 205.304V209H1841.15V202.388H1842.52V203.144C1842.75 202.872 1843.03 202.66 1843.37 202.508C1843.73 202.356 1844.1 202.28 1844.49 202.28ZM1848.61 205.688C1848.61 205.008 1848.75 204.412 1849.02 203.9C1849.3 203.38 1849.68 202.98 1850.17 202.7C1850.66 202.42 1851.22 202.28 1851.85 202.28C1852.65 202.28 1853.31 202.472 1853.83 202.856C1854.36 203.232 1854.72 203.772 1854.9 204.476H1853.42C1853.3 204.148 1853.11 203.892 1852.85 203.708C1852.58 203.524 1852.25 203.432 1851.85 203.432C1851.29 203.432 1850.84 203.632 1850.51 204.032C1850.18 204.424 1850.02 204.976 1850.02 205.688C1850.02 206.4 1850.18 206.956 1850.51 207.356C1850.84 207.756 1851.29 207.956 1851.85 207.956C1852.64 207.956 1853.17 207.608 1853.42 206.912H1854.9C1854.71 207.584 1854.35 208.12 1853.82 208.52C1853.29 208.912 1852.64 209.108 1851.85 209.108C1851.22 209.108 1850.66 208.968 1850.17 208.688C1849.68 208.4 1849.3 208 1849.02 207.488C1848.75 206.968 1848.61 206.368 1848.61 205.688ZM1862.44 205.532C1862.44 205.78 1862.43 206.004 1862.39 206.204H1857.34C1857.38 206.732 1857.58 207.156 1857.93 207.476C1858.28 207.796 1858.71 207.956 1859.23 207.956C1859.96 207.956 1860.48 207.648 1860.79 207.032H1862.26C1862.06 207.64 1861.7 208.14 1861.17 208.532C1860.65 208.916 1860 209.108 1859.23 209.108C1858.59 209.108 1858.03 208.968 1857.52 208.688C1857.03 208.4 1856.63 208 1856.35 207.488C1856.07 206.968 1855.93 206.368 1855.93 205.688C1855.93 205.008 1856.06 204.412 1856.33 203.9C1856.61 203.38 1857 202.98 1857.5 202.7C1858 202.42 1858.58 202.28 1859.23 202.28C1859.85 202.28 1860.41 202.416 1860.89 202.688C1861.38 202.96 1861.76 203.344 1862.03 203.84C1862.31 204.328 1862.44 204.892 1862.44 205.532ZM1861.01 205.1C1861.01 204.596 1860.83 204.192 1860.47 203.888C1860.12 203.584 1859.69 203.432 1859.17 203.432C1858.69 203.432 1858.29 203.584 1857.95 203.888C1857.62 204.184 1857.42 204.588 1857.35 205.1H1861.01Z" fill="black"/>
    <path d="M1972.44 204.812C1972.44 203.996 1972.63 203.264 1973.01 202.616C1973.39 201.968 1973.91 201.464 1974.56 201.104C1975.21 200.736 1975.93 200.552 1976.7 200.552C1977.59 200.552 1978.38 200.772 1979.07 201.212C1979.76 201.644 1980.27 202.26 1980.58 203.06H1978.94C1978.72 202.62 1978.42 202.292 1978.04 202.076C1977.65 201.86 1977.21 201.752 1976.7 201.752C1976.15 201.752 1975.66 201.876 1975.23 202.124C1974.8 202.372 1974.46 202.728 1974.21 203.192C1973.97 203.656 1973.85 204.196 1973.85 204.812C1973.85 205.428 1973.97 205.968 1974.21 206.432C1974.46 206.896 1974.8 207.256 1975.23 207.512C1975.66 207.76 1976.15 207.884 1976.7 207.884C1977.21 207.884 1977.65 207.776 1978.04 207.56C1978.42 207.344 1978.72 207.016 1978.94 206.576H1980.58C1980.27 207.376 1979.76 207.992 1979.07 208.424C1978.38 208.856 1977.59 209.072 1976.7 209.072C1975.92 209.072 1975.2 208.892 1974.56 208.532C1973.91 208.164 1973.39 207.656 1973.01 207.008C1972.63 206.36 1972.44 205.628 1972.44 204.812ZM1985.17 209.108C1984.55 209.108 1983.98 208.968 1983.48 208.688C1982.97 208.4 1982.58 208 1982.29 207.488C1982 206.968 1981.86 206.368 1981.86 205.688C1981.86 205.016 1982.01 204.42 1982.3 203.9C1982.6 203.38 1983 202.98 1983.51 202.7C1984.03 202.42 1984.6 202.28 1985.23 202.28C1985.86 202.28 1986.43 202.42 1986.95 202.7C1987.46 202.98 1987.86 203.38 1988.16 203.9C1988.45 204.42 1988.6 205.016 1988.6 205.688C1988.6 206.36 1988.45 206.956 1988.15 207.476C1987.84 207.996 1987.43 208.4 1986.9 208.688C1986.38 208.968 1985.8 209.108 1985.17 209.108ZM1985.17 207.92C1985.52 207.92 1985.85 207.836 1986.15 207.668C1986.47 207.5 1986.72 207.248 1986.91 206.912C1987.1 206.576 1987.2 206.168 1987.2 205.688C1987.2 205.208 1987.11 204.804 1986.92 204.476C1986.74 204.14 1986.49 203.888 1986.19 203.72C1985.89 203.552 1985.56 203.468 1985.21 203.468C1984.85 203.468 1984.53 203.552 1984.22 203.72C1983.93 203.888 1983.69 204.14 1983.51 204.476C1983.34 204.804 1983.25 205.208 1983.25 205.688C1983.25 206.4 1983.43 206.952 1983.79 207.344C1984.16 207.728 1984.62 207.92 1985.17 207.92ZM1993.41 202.28C1993.93 202.28 1994.39 202.388 1994.8 202.604C1995.22 202.82 1995.54 203.14 1995.77 203.564C1996.01 203.988 1996.12 204.5 1996.12 205.1V209H1994.77V205.304C1994.77 204.712 1994.62 204.26 1994.32 203.948C1994.03 203.628 1993.62 203.468 1993.11 203.468C1992.6 203.468 1992.19 203.628 1991.89 203.948C1991.59 204.26 1991.44 204.712 1991.44 205.304V209H1990.07V202.388H1991.44V203.144C1991.67 202.872 1991.95 202.66 1992.29 202.508C1992.65 202.356 1993.02 202.28 1993.41 202.28ZM2000.76 203.504H1999.53V209H1998.15V203.504H1997.37V202.388H1998.15V201.92C1998.15 201.16 1998.35 200.608 1998.75 200.264C1999.16 199.912 1999.8 199.736 2000.66 199.736V200.876C2000.25 200.876 1999.95 200.956 1999.79 201.116C1999.62 201.268 1999.53 201.536 1999.53 201.92V202.388H2000.76V203.504ZM2002.79 201.512C2002.54 201.512 2002.33 201.428 2002.16 201.26C2001.99 201.092 2001.91 200.884 2001.91 200.636C2001.91 200.388 2001.99 200.18 2002.16 200.012C2002.33 199.844 2002.54 199.76 2002.79 199.76C2003.03 199.76 2003.23 199.844 2003.4 200.012C2003.57 200.18 2003.65 200.388 2003.65 200.636C2003.65 200.884 2003.57 201.092 2003.4 201.26C2003.23 201.428 2003.03 201.512 2002.79 201.512ZM2003.46 202.388V209H2002.09V202.388H2003.46ZM2004.92 205.664C2004.92 205 2005.05 204.412 2005.33 203.9C2005.61 203.388 2005.98 202.992 2006.45 202.712C2006.93 202.424 2007.47 202.28 2008.05 202.28C2008.48 202.28 2008.91 202.376 2009.32 202.568C2009.75 202.752 2010.08 203 2010.33 203.312V200.12H2011.71V209H2010.33V208.004C2010.11 208.324 2009.79 208.588 2009.39 208.796C2009 209.004 2008.55 209.108 2008.04 209.108C2007.46 209.108 2006.93 208.964 2006.45 208.676C2005.98 208.38 2005.61 207.972 2005.33 207.452C2005.05 206.924 2004.92 206.328 2004.92 205.664ZM2010.33 205.688C2010.33 205.232 2010.23 204.836 2010.04 204.5C2009.86 204.164 2009.61 203.908 2009.31 203.732C2009.01 203.556 2008.68 203.468 2008.33 203.468C2007.97 203.468 2007.65 203.556 2007.34 203.732C2007.04 203.9 2006.79 204.152 2006.6 204.488C2006.41 204.816 2006.32 205.208 2006.32 205.664C2006.32 206.12 2006.41 206.52 2006.6 206.864C2006.79 207.208 2007.04 207.472 2007.34 207.656C2007.65 207.832 2007.98 207.92 2008.33 207.92C2008.68 207.92 2009.01 207.832 2009.31 207.656C2009.61 207.48 2009.86 207.224 2010.04 206.888C2010.23 206.544 2010.33 206.144 2010.33 205.688ZM2019.69 205.532C2019.69 205.78 2019.67 206.004 2019.64 206.204H2014.59C2014.63 206.732 2014.82 207.156 2015.18 207.476C2015.53 207.796 2015.96 207.956 2016.47 207.956C2017.21 207.956 2017.73 207.648 2018.03 207.032H2019.51C2019.31 207.64 2018.94 208.14 2018.42 208.532C2017.9 208.916 2017.25 209.108 2016.47 209.108C2015.84 209.108 2015.27 208.968 2014.77 208.688C2014.27 208.4 2013.88 208 2013.59 207.488C2013.31 206.968 2013.17 206.368 2013.17 205.688C2013.17 205.008 2013.31 204.412 2013.58 203.9C2013.86 203.38 2014.25 202.98 2014.74 202.7C2015.25 202.42 2015.82 202.28 2016.47 202.28C2017.1 202.28 2017.65 202.416 2018.14 202.688C2018.63 202.96 2019.01 203.344 2019.28 203.84C2019.55 204.328 2019.69 204.892 2019.69 205.532ZM2018.26 205.1C2018.25 204.596 2018.07 204.192 2017.72 203.888C2017.37 203.584 2016.93 203.432 2016.41 203.432C2015.94 203.432 2015.54 203.584 2015.2 203.888C2014.86 204.184 2014.66 204.588 2014.6 205.1H2018.26ZM2024.49 202.28C2025.01 202.28 2025.47 202.388 2025.88 202.604C2026.3 202.82 2026.62 203.14 2026.85 203.564C2027.09 203.988 2027.2 204.5 2027.2 205.1V209H2025.85V205.304C2025.85 204.712 2025.7 204.26 2025.4 203.948C2025.11 203.628 2024.7 203.468 2024.19 203.468C2023.68 203.468 2023.27 203.628 2022.97 203.948C2022.67 204.26 2022.52 204.712 2022.52 205.304V209H2021.15V202.388H2022.52V203.144C2022.75 202.872 2023.03 202.66 2023.37 202.508C2023.73 202.356 2024.1 202.28 2024.49 202.28ZM2028.61 205.688C2028.61 205.008 2028.75 204.412 2029.02 203.9C2029.3 203.38 2029.68 202.98 2030.17 202.7C2030.66 202.42 2031.22 202.28 2031.85 202.28C2032.65 202.28 2033.31 202.472 2033.83 202.856C2034.36 203.232 2034.72 203.772 2034.9 204.476H2033.42C2033.3 204.148 2033.11 203.892 2032.85 203.708C2032.58 203.524 2032.25 203.432 2031.85 203.432C2031.29 203.432 2030.84 203.632 2030.51 204.032C2030.18 204.424 2030.02 204.976 2030.02 205.688C2030.02 206.4 2030.18 206.956 2030.51 207.356C2030.84 207.756 2031.29 207.956 2031.85 207.956C2032.64 207.956 2033.17 207.608 2033.42 206.912H2034.9C2034.71 207.584 2034.35 208.12 2033.82 208.52C2033.29 208.912 2032.64 209.108 2031.85 209.108C2031.22 209.108 2030.66 208.968 2030.17 208.688C2029.68 208.4 2029.3 208 2029.02 207.488C2028.75 206.968 2028.61 206.368 2028.61 205.688ZM2042.44 205.532C2042.44 205.78 2042.43 206.004 2042.39 206.204H2037.34C2037.38 206.732 2037.58 207.156 2037.93 207.476C2038.28 207.796 2038.71 207.956 2039.23 207.956C2039.96 207.956 2040.48 207.648 2040.79 207.032H2042.26C2042.06 207.64 2041.7 208.14 2041.17 208.532C2040.65 208.916 2040 209.108 2039.23 209.108C2038.59 209.108 2038.03 208.968 2037.52 208.688C2037.03 208.4 2036.63 208 2036.35 207.488C2036.07 206.968 2035.93 206.368 2035.93 205.688C2035.93 205.008 2036.06 204.412 2036.33 203.9C2036.61 203.38 2037 202.98 2037.5 202.7C2038 202.42 2038.58 202.28 2039.23 202.28C2039.85 202.28 2040.41 202.416 2040.89 202.688C2041.38 202.96 2041.76 203.344 2042.03 203.84C2042.31 204.328 2042.44 204.892 2042.44 205.532ZM2041.01 205.1C2041.01 204.596 2040.83 204.192 2040.47 203.888C2040.12 203.584 2039.69 203.432 2039.17 203.432C2038.69 203.432 2038.29 203.584 2037.95 203.888C2037.62 204.184 2037.42 204.588 2037.35 205.1H2041.01Z" fill="black"/>
    <path d="M15 335.383L149.742 237L45.6556 400.259L209.628 287.617" stroke="#FCA311" stroke-width="28.5169" stroke-linecap="round" stroke-linejoin="round"/>
    <defs>
        <filter id="filter0_d_115_225" x="1540" y="69" width="671" height="459" filterUnits="userSpaceOnUse" color-interpolation-filters="sRGB">
            <feFlood flood-opacity="0" result="BackgroundImageFix"/>
            <feColorMatrix in="SourceAlpha" type="matrix" values="0 0 0 0 0 0 0 0 0 0 0 0 0 0 0 0 0 0 127 0" result="hardAlpha"/>
            <feOffset dy="6"/>
            <feGaussianBlur stdDeviation="9"/>
            <feColorMatrix type="matrix" values="0 0 0 0 0 0 0 0 0 0 0 0 0 0 0 0 0 0 0.06 0"/>
            <feBlend mode="normal" in2="BackgroundImageFix" result="effect1_dropShadow_115_225"/>
            <feBlend mode="normal" in="SourceGraphic" in2="effect1_dropShadow_115_225" result="shape"/>
        </filter>
        <filter id="filter1_d_115_225" x="1540" y="69" width="671" height="455" filterUnits="userSpaceOnUse" color-interpolation-filters="sRGB">
            <feFlood flood-opacity="0" result="BackgroundImageFix"/>
            <feColorMatrix in="SourceAlpha" type="matrix" values="0 0 0 0 0 0 0 0 0 0 0 0 0 0 0 0 0 0 127 0" result="hardAlpha"/>
            <feOffset dy="6"/>
            <feGaussianBlur stdDeviation="9"/>
            <feColorMatrix type="matrix" values="0 0 0 0 0 0 0 0 0 0 0 0 0 0 0 0 0 0 0.06 0"/>
            <feBlend mode="normal" in2="BackgroundImageFix" result="effect1_dropShadow_115_225"/>
            <feBlend mode="normal" in="SourceGraphic" in2="effect1_dropShadow_115_225" result="shape"/>
        </filter>
        <filter id="filter2_d_115_225" x="1572" y="217" width="607" height="68" filterUnits="userSpaceOnUse" color-interpolation-filters="sRGB">
            <feFlood flood-opacity="0" result="BackgroundImageFix"/>
            <feColorMatrix in="SourceAlpha" type="matrix" values="0 0 0 0 0 0 0 0 0 0 0 0 0 0 0 0 0 0 127 0" result="hardAlpha"/>
            <feOffset dy="2"/>
            <feGaussianBlur stdDeviation="5"/>
            <feColorMatrix type="matrix" values="0 0 0 0 0 0 0 0 0 0 0 0 0 0 0 0 0 0 0.08 0"/>
            <feBlend mode="normal" in2="BackgroundImageFix" result="effect1_dropShadow_115_225"/>
            <feBlend mode="normal" in="SourceGraphic" in2="effect1_dropShadow_115_225" result="shape"/>
        </filter>
        <filter id="filter3_d_115_225" x="1572" y="287" width="607" height="68" filterUnits="userSpaceOnUse" color-interpolation-filters="sRGB">
            <feFlood flood-opacity="0" result="BackgroundImageFix"/>
            <feColorMatrix in="SourceAlpha" type="matrix" values="0 0 0 0 0 0 0 0 0 0 0 0 0 0 0 0 0 0 127 0" result="hardAlpha"/>
            <feOffset dy="2"/>
            <feGaussianBlur stdDeviation="5"/>
            <feColorMatrix type="matrix" values="0 0 0 0 0 0 0 0 0 0 0 0 0 0 0 0 0 0 0.08 0"/>
            <feBlend mode="normal" in2="BackgroundImageFix" result="effect1_dropShadow_115_225"/>
            <feBlend mode="normal" in="SourceGraphic" in2="effect1_dropShadow_115_225" result="shape"/>
        </filter>
        <filter id="filter4_d_115_225" x="1572" y="357" width="607" height="68" filterUnits="userSpaceOnUse" color-interpolation-filters="sRGB">
            <feFlood flood-opacity="0" result="BackgroundImageFix"/>
            <feColorMatrix in="SourceAlpha" type="matrix" values="0 0 0 0 0 0 0 0 0 0 0 0 0 0 0 0 0 0 127 0" result="hardAlpha"/>
            <feOffset dy="2"/>
            <feGaussianBlur stdDeviation="5"/>
            <feColorMatrix type="matrix" values="0 0 0 0 0 0 0 0 0 0 0 0 0 0 0 0 0 0 0.08 0"/>
            <feBlend mode="normal" in2="BackgroundImageFix" result="effect1_dropShadow_115_225"/>
            <feBlend mode="normal" in="SourceGraphic" in2="effect1_dropShadow_115_225" result="shape"/>
        </filter>
        <filter id="filter5_d_115_225" x="1572" y="427" width="607" height="68" filterUnits="userSpaceOnUse" color-interpolation-filters="sRGB">
            <feFlood flood-opacity="0" result="BackgroundImageFix"/>
            <feColorMatrix in="SourceAlpha" type="matrix" values="0 0 0 0 0 0 0 0 0 0 0 0 0 0 0 0 0 0 127 0" result="hardAlpha"/>
            <feOffset dy="2"/>
            <feGaussianBlur stdDeviation="5"/>
            <feColorMatrix type="matrix" values="0 0 0 0 0 0 0 0 0 0 0 0 0 0 0 0 0 0 0.08 0"/>
            <feBlend mode="normal" in2="BackgroundImageFix" result="effect1_dropShadow_115_225"/>
            <feBlend mode="normal" in="SourceGraphic" in2="effect1_dropShadow_115_225" result="shape"/>
        </filter>
    </defs>
</svg>
