<svg id="svg-container-tech-stack" width="531" height="533" viewBox="0 0 531 533" fill="none" xmlns="http://www.w3.org/2000/svg">
    <style type="text/css">

        @media(max-width: 1256px) {
            #svg-container-tech-stack {

                overflow: visible;
                height: 80%;
                width: 80%;
            }
        }
    </style>

    <path opacity="0.5" d="M264.725 458.506C264.389 458.506 264.054 458.505 263.719 458.503L263.714 459.503C261.359 459.491 259.013 459.438 256.678 459.344L256.718 458.345C256.054 458.318 255.391 458.288 254.729 458.255L254.679 459.253C252.325 459.135 249.982 458.975 247.65 458.774L247.736 457.778C247.073 457.721 246.411 457.66 245.75 457.597L245.655 458.592C243.311 458.366 240.979 458.099 238.659 457.792L238.791 456.801C238.131 456.713 237.472 456.622 236.814 456.528L236.672 457.518C234.343 457.185 232.026 456.811 229.724 456.397L229.901 455.413C229.245 455.295 228.591 455.174 227.937 455.05L227.75 456.032C225.44 455.592 223.144 455.112 220.863 454.592L221.086 453.617C220.436 453.469 219.787 453.317 219.139 453.162L218.907 454.135C216.621 453.589 214.35 453.003 212.096 452.378L212.363 451.414C211.721 451.236 211.079 451.054 210.439 450.87L210.162 451.83C207.905 451.179 205.664 450.488 203.441 449.759L203.752 448.809C203.119 448.601 202.486 448.39 201.855 448.176L201.534 449.123C199.31 448.367 197.103 447.574 194.916 446.742L195.272 445.807C194.648 445.57 194.026 445.33 193.405 445.086L193.04 446.017C190.854 445.16 188.687 444.265 186.541 443.332L186.939 442.415C186.327 442.149 185.717 441.88 185.108 441.608L184.7 442.522C182.557 441.564 180.434 440.569 178.332 439.538L178.772 438.641C178.173 438.347 177.576 438.05 176.98 437.75L176.531 438.643C174.434 437.588 172.36 436.496 170.307 435.369L170.789 434.492C170.204 434.171 169.621 433.847 169.04 433.52L168.549 434.391C166.504 433.24 164.482 432.054 162.484 430.833L163.005 429.979C162.436 429.631 161.868 429.281 161.303 428.927L160.773 429.775C158.784 428.531 156.818 427.253 154.878 425.941L155.438 425.112C154.885 424.739 154.334 424.362 153.786 423.983L153.217 424.806C151.287 423.472 149.383 422.104 147.504 420.704L148.102 419.902C147.567 419.503 147.035 419.102 146.504 418.698L145.898 419.494C144.032 418.072 142.192 416.619 140.379 415.133L141.013 414.36C140.497 413.937 139.984 413.512 139.473 413.084L138.831 413.851C137.032 412.346 135.261 410.809 133.518 409.241L134.186 408.498C133.691 408.052 133.197 407.604 132.706 407.153L132.03 407.889C130.302 406.303 128.603 404.687 126.934 403.041L127.636 402.329C127.161 401.861 126.689 401.39 126.219 400.917L125.51 401.622C123.857 399.959 122.234 398.266 120.642 396.544L121.376 395.865C120.923 395.376 120.473 394.884 120.025 394.391L119.284 395.062C117.71 393.325 116.166 391.559 114.655 389.766L115.419 389.122C114.989 388.612 114.562 388.1 114.138 387.586L113.367 388.223C111.874 386.416 110.413 384.581 108.986 382.72L109.779 382.111C109.373 381.582 108.97 381.051 108.569 380.518L107.77 381.119C106.362 379.245 104.988 377.345 103.647 375.421L104.468 374.849C104.086 374.302 103.708 373.753 103.332 373.201L102.506 373.764C101.187 371.828 99.9014 369.867 98.6508 367.882L99.4969 367.349C99.1415 366.785 98.7889 366.219 98.4391 365.651L97.5876 366.175C96.3595 364.181 95.1662 362.163 94.0087 360.121L94.8785 359.628C94.5496 359.048 94.2236 358.466 93.9005 357.883L93.0256 358.367C91.8914 356.318 90.793 354.247 89.7312 352.154L90.623 351.701C90.3214 351.107 90.0227 350.51 89.727 349.912L88.8306 350.355C87.793 348.257 86.792 346.137 85.8286 343.996L86.7404 343.586C86.4668 342.978 86.1962 342.368 85.9287 341.757L85.0126 342.158C84.074 340.013 83.1728 337.849 82.3099 335.665L83.2399 335.298C82.995 334.678 82.7531 334.057 82.5144 333.434L81.5806 333.791C80.7431 331.606 79.9438 329.402 79.1835 327.18L80.1297 326.856C79.914 326.226 79.7014 325.594 79.4921 324.96L78.5426 325.274C77.8082 323.053 77.1126 320.813 76.4567 318.557L77.4169 318.278C77.231 317.639 77.0482 316.998 76.8687 316.355L75.9056 316.625C75.2758 314.371 74.6855 312.102 74.1354 309.817L75.1076 309.583C74.9518 308.935 74.7993 308.287 74.65 307.637L73.6754 307.861C73.1515 305.581 72.6676 303.286 72.2244 300.977L73.2065 300.788C73.0812 300.135 72.9591 299.48 72.8403 298.825L71.8563 299.003C71.4392 296.701 71.0626 294.386 70.7271 292.056L71.7169 291.914C71.6221 291.256 71.5306 290.597 71.4425 289.937L70.4513 290.07C70.1416 287.751 69.8726 285.419 69.6451 283.075L70.6405 282.978C70.5763 282.318 70.5155 281.656 70.458 280.993L69.4618 281.08C69.2596 278.748 69.0984 276.405 68.9789 274.051L69.9776 274.001C69.944 273.339 69.9137 272.676 69.8868 272.012L68.8876 272.052C68.7928 269.717 68.7391 267.371 68.7272 265.016L69.7272 265.011C69.7255 264.676 69.7246 264.341 69.7246 264.006C69.7246 263.67 69.7255 263.335 69.7272 263.001L68.7272 262.995C68.7391 260.64 68.7928 258.294 68.8876 255.959L69.8868 255.999C69.9137 255.336 69.944 254.673 69.9776 254.011L68.9789 253.96C69.0984 251.606 69.2595 249.263 69.4618 246.932L70.458 247.018C70.5155 246.355 70.5763 245.694 70.6404 245.033L69.6451 244.936C69.8726 242.592 70.1416 240.261 70.4513 237.942L71.4425 238.074C71.5306 237.414 71.6221 236.755 71.7169 236.097L70.7271 235.955C71.0626 233.626 71.4392 231.31 71.8563 229.008L72.8403 229.186C72.9591 228.531 73.0812 227.876 73.2065 227.223L72.2244 227.035C72.6676 224.725 73.1515 222.43 73.6754 220.15L74.65 220.374C74.7993 219.724 74.9519 219.076 75.1077 218.429L74.1354 218.195C74.6855 215.909 75.2759 213.64 75.9056 211.387L76.8687 211.656C77.0482 211.014 77.231 210.373 77.4169 209.733L76.4567 209.454C77.1126 207.198 77.8082 204.959 78.5426 202.737L79.4921 203.051C79.7014 202.418 79.914 201.786 80.1297 201.155L79.1835 200.831C79.9438 198.609 80.7431 196.405 81.5806 194.22L82.5144 194.578C82.7531 193.955 82.995 193.333 83.2399 192.713L82.3099 192.346C83.1728 190.162 84.074 187.998 85.0126 185.853L85.9287 186.254C86.1962 185.643 86.4668 185.034 86.7404 184.426L85.8286 184.015C86.792 181.875 87.793 179.755 88.8306 177.656L89.727 178.099C90.0227 177.501 90.3214 176.905 90.623 176.31L89.7312 175.858C90.793 173.765 91.8914 171.693 93.0256 169.644L93.9005 170.129C94.2236 169.545 94.5496 168.963 94.8785 168.383L94.0087 167.89C95.1662 165.849 96.3595 163.83 97.5876 161.836L98.4391 162.36C98.7889 161.792 99.1415 161.226 99.4969 160.662L98.6508 160.129C99.9014 158.144 101.187 156.183 102.506 154.247L103.332 154.81C103.708 154.259 104.086 153.709 104.467 153.162L103.647 152.591C104.988 150.666 106.362 148.766 107.77 146.893L108.569 147.493C108.97 146.96 109.373 146.429 109.779 145.9L108.986 145.291C110.413 143.43 111.874 141.596 113.367 139.788L114.138 140.425C114.562 139.911 114.989 139.399 115.419 138.89L114.655 138.245C116.166 136.452 117.71 134.686 119.284 132.949L120.025 133.621C120.473 133.127 120.923 132.635 121.376 132.146L120.642 131.467C122.234 129.745 123.857 128.052 125.51 126.389L126.219 127.094C126.689 126.621 127.161 126.151 127.636 125.683L126.934 124.971C128.603 123.324 130.302 121.708 132.03 120.122L132.706 120.858C133.197 120.408 133.691 119.959 134.186 119.514L133.518 118.77C135.261 117.202 137.032 115.666 138.831 114.16L139.473 114.927C139.984 114.5 140.497 114.074 141.013 113.652L140.379 112.878C142.192 111.393 144.032 109.939 145.898 108.518L146.504 109.313C147.035 108.909 147.567 108.508 148.102 108.109L147.504 107.308C149.383 105.907 151.287 104.54 153.217 103.206L153.786 104.028C154.334 103.649 154.885 103.273 155.438 102.899L154.878 102.071C156.818 100.758 158.784 99.4799 160.773 98.2361L161.303 99.084C161.868 98.7305 162.436 98.3798 163.005 98.0319L162.484 97.1786C164.482 95.9574 166.504 94.771 168.549 93.6201L169.04 94.4916C169.621 94.1645 170.204 93.8403 170.789 93.5191L170.307 92.6426C172.36 91.5152 174.434 90.4234 176.531 89.3681L176.98 90.2613C177.576 89.9614 178.173 89.6646 178.772 89.3707L178.332 88.4729C180.434 87.4418 182.557 86.4471 184.7 85.4897L185.108 86.4028C185.717 86.1309 186.327 85.862 186.939 85.5961L186.541 84.6789C188.687 83.7464 190.854 82.8512 193.04 81.9939L193.405 82.9249C194.026 82.6816 194.648 82.4413 195.272 82.2041L194.916 81.2694C197.103 80.4376 199.31 79.6438 201.534 78.8887L201.855 79.8356C202.486 79.6213 203.119 79.4102 203.752 79.2023L203.441 78.2521C205.664 77.5228 207.905 76.8321 210.162 76.1808L210.439 77.1416C211.079 76.957 211.721 76.7755 212.363 76.5972L212.096 75.6336C214.35 75.0084 216.621 74.4223 218.907 73.8762L219.139 74.8488C219.787 74.6941 220.436 74.5427 221.086 74.3944L220.863 73.4195C223.144 72.8994 225.44 72.4191 227.75 71.9792L227.937 72.9615C228.591 72.8371 229.245 72.7159 229.901 72.598L229.724 71.6137C232.026 71.1998 234.343 70.8259 236.672 70.4929L236.814 71.4829C237.472 71.3888 238.131 71.298 238.791 71.2105L238.659 70.2192C240.979 69.9118 243.31 69.6449 245.654 69.4191L245.75 70.4145C246.411 70.3509 247.073 70.2905 247.736 70.2335L247.65 69.2372C249.981 69.0365 252.325 68.8765 254.679 68.758L254.729 69.7567C255.391 69.7234 256.054 69.6933 256.718 69.6666L256.678 68.6674C259.013 68.5733 261.359 68.52 263.714 68.5082L263.719 69.5081C264.054 69.5065 264.389 69.5056 264.725 69.5056C265.06 69.5056 265.395 69.5065 265.73 69.5081L265.735 68.5082C268.09 68.52 270.436 68.5733 272.771 68.6674L272.731 69.6666C273.395 69.6933 274.058 69.7234 274.72 69.7567L274.771 68.758C277.125 68.8765 279.468 69.0365 281.799 69.2372L281.713 70.2335C282.376 70.2905 283.038 70.3509 283.699 70.4145L283.795 69.4191C286.139 69.6449 288.471 69.9118 290.79 70.2192L290.658 71.2105C291.319 71.298 291.978 71.3888 292.636 71.4829L292.777 70.4929C295.107 70.8259 297.423 71.1998 299.725 71.6137L299.548 72.5979C300.204 72.7159 300.859 72.8371 301.512 72.9615L301.699 71.9792C304.009 72.4191 306.305 72.8994 308.586 73.4195L308.363 74.3944C309.013 74.5427 309.662 74.6941 310.31 74.8488L310.542 73.8762C312.828 74.4223 315.099 75.0084 317.353 75.6336L317.086 76.5972C317.729 76.7755 318.37 76.957 319.01 77.1416L319.287 76.1808C321.545 76.8321 323.785 77.5228 326.008 78.2521L325.697 79.2023C326.331 79.4102 326.963 79.6213 327.594 79.8356L327.916 78.8887C330.14 79.6438 332.346 80.4376 334.533 81.2694L334.178 82.2041C334.801 82.4413 335.423 82.6816 336.044 82.9249L336.409 81.9939C338.595 82.8512 340.762 83.7464 342.909 84.6789L342.51 85.5961C343.122 85.862 343.733 86.1309 344.341 86.4028L344.749 85.4897C346.893 86.4471 349.016 87.4418 351.117 88.4729L350.677 89.3707C351.276 89.6646 351.873 89.9614 352.469 90.2613L352.918 89.3681C355.015 90.4234 357.09 91.5152 359.142 92.6426L358.66 93.5191C359.245 93.8403 359.828 94.1645 360.409 94.4916L360.9 93.6201C362.945 94.771 364.967 95.9574 366.965 97.1786L366.444 98.0319C367.013 98.3798 367.581 98.7305 368.146 99.084L368.676 98.2361C370.666 99.4799 372.631 100.758 374.572 102.071L374.012 102.899C374.564 103.273 375.115 103.649 375.663 104.028L376.232 103.206C378.162 104.54 380.066 105.907 381.945 107.308L381.347 108.109C381.882 108.508 382.415 108.909 382.945 109.313L383.551 108.518C385.417 109.939 387.257 111.393 389.07 112.878L388.436 113.652C388.952 114.074 389.465 114.5 389.977 114.927L390.618 114.16C392.417 115.666 394.189 117.202 395.932 118.77L395.263 119.514C395.758 119.959 396.252 120.408 396.743 120.858L397.419 120.122C399.147 121.708 400.846 123.324 402.515 124.971L401.813 125.683C402.288 126.151 402.76 126.621 403.23 127.094L403.939 126.389C405.592 128.052 407.215 129.745 408.807 131.467L408.073 132.146C408.526 132.635 408.976 133.127 409.424 133.621L410.165 132.949C411.739 134.686 413.283 136.452 414.795 138.245L414.03 138.89C414.46 139.399 414.887 139.911 415.312 140.425L416.083 139.788C417.575 141.596 419.036 143.43 420.464 145.291L419.67 145.9C420.076 146.429 420.479 146.96 420.88 147.493L421.68 146.893C423.087 148.766 424.462 150.666 425.802 152.591L424.982 153.162C425.363 153.709 425.741 154.259 426.117 154.81L426.943 154.247C428.262 156.183 429.548 158.144 430.798 160.129L429.952 160.662C430.308 161.226 430.66 161.792 431.01 162.36L431.862 161.836C433.09 163.83 434.283 165.849 435.441 167.89L434.571 168.383C434.9 168.963 435.226 169.545 435.549 170.129L436.424 169.644C437.558 171.693 438.656 173.765 439.718 175.858L438.826 176.31C439.128 176.905 439.426 177.501 439.722 178.099L440.619 177.656C441.656 179.755 442.657 181.875 443.621 184.015L442.709 184.426C442.982 185.034 443.253 185.643 443.521 186.254L444.437 185.853C445.375 187.998 446.276 190.162 447.139 192.346L446.209 192.713C446.454 193.333 446.696 193.955 446.935 194.578L447.869 194.22C448.706 196.405 449.505 198.609 450.266 200.831L449.32 201.155C449.535 201.786 449.748 202.418 449.957 203.051L450.907 202.737C451.641 204.959 452.337 207.198 452.993 209.454L452.032 209.733C452.218 210.373 452.401 211.014 452.581 211.656L453.544 211.387C454.173 213.64 454.764 215.909 455.314 218.195L454.342 218.429C454.497 219.076 454.65 219.724 454.799 220.374L455.774 220.15C456.298 222.43 456.782 224.725 457.225 227.035L456.243 227.223C456.368 227.876 456.49 228.531 456.609 229.186L457.593 229.008C458.01 231.31 458.387 233.626 458.722 235.955L457.732 236.097C457.827 236.755 457.919 237.414 458.007 238.074L458.998 237.942C459.308 240.261 459.577 242.592 459.804 244.936L458.809 245.033C458.873 245.694 458.934 246.355 458.991 247.018L459.987 246.932C460.19 249.263 460.351 251.606 460.47 253.96L459.472 254.01C459.505 254.673 459.535 255.336 459.562 255.999L460.562 255.959C460.656 258.294 460.71 260.64 460.722 262.995L459.722 263C459.724 263.335 459.725 263.67 459.725 264.006C459.725 264.341 459.724 264.676 459.722 265.011L460.722 265.016C460.71 267.371 460.656 269.717 460.562 272.052L459.562 272.012C459.535 272.676 459.505 273.339 459.472 274.001L460.47 274.051C460.351 276.405 460.19 278.748 459.987 281.08L458.991 280.993C458.934 281.656 458.873 282.318 458.809 282.978L459.804 283.075C459.577 285.419 459.308 287.751 458.998 290.07L458.007 289.937C457.919 290.597 457.827 291.256 457.732 291.914L458.722 292.056C458.387 294.385 458.01 296.701 457.593 299.003L456.609 298.825C456.49 299.48 456.368 300.135 456.243 300.788L457.225 300.977C456.782 303.286 456.298 305.581 455.774 307.861L454.799 307.637C454.65 308.287 454.497 308.935 454.342 309.583L455.314 309.817C454.764 312.102 454.173 314.371 453.544 316.625L452.581 316.355C452.401 316.998 452.218 317.639 452.032 318.278L452.993 318.557C452.337 320.813 451.641 323.053 450.907 325.274L449.957 324.96C449.748 325.594 449.535 326.226 449.32 326.856L450.266 327.18C449.505 329.402 448.706 331.606 447.869 333.791L446.935 333.434C446.696 334.057 446.454 334.678 446.209 335.298L447.139 335.665C446.276 337.849 445.375 340.013 444.437 342.158L443.521 341.757C443.253 342.368 442.982 342.978 442.709 343.586L443.621 343.996C442.657 346.137 441.656 348.257 440.619 350.355L439.722 349.912C439.426 350.51 439.128 351.107 438.826 351.701L439.718 352.154C438.656 354.247 437.558 356.318 436.424 358.367L435.549 357.883C435.226 358.466 434.9 359.048 434.571 359.628L435.441 360.121C434.283 362.163 433.09 364.181 431.862 366.175L431.01 365.651C430.66 366.219 430.308 366.785 429.952 367.349L430.798 367.882C429.548 369.867 428.262 371.828 426.943 373.764L426.117 373.201C425.741 373.753 425.363 374.302 424.982 374.849L425.802 375.42C424.462 377.345 423.087 379.245 421.68 381.119L420.88 380.518C420.479 381.051 420.076 381.582 419.67 382.111L420.464 382.72C419.036 384.581 417.575 386.415 416.083 388.223L415.312 387.586C414.887 388.1 414.46 388.612 414.03 389.122L414.795 389.766C413.283 391.559 411.739 393.325 410.165 395.062L409.424 394.391C408.976 394.884 408.526 395.376 408.073 395.865L408.807 396.544C407.215 398.266 405.592 399.959 403.939 401.622L403.23 400.917C402.76 401.39 402.288 401.861 401.813 402.329L402.515 403.041C400.846 404.687 399.147 406.303 397.419 407.889L396.743 407.153C396.252 407.604 395.758 408.052 395.263 408.498L395.932 409.241C394.189 410.809 392.417 412.346 390.618 413.851L389.977 413.084C389.465 413.512 388.952 413.937 388.436 414.36L389.07 415.133C387.257 416.619 385.417 418.072 383.551 419.494L382.945 418.698C382.415 419.102 381.882 419.503 381.347 419.902L381.945 420.704C380.066 422.104 378.162 423.472 376.232 424.806L375.663 423.983C375.115 424.362 374.564 424.739 374.012 425.112L374.572 425.941C372.631 427.253 370.666 428.531 368.676 429.775L368.146 428.927C367.581 429.281 367.013 429.631 366.444 429.979L366.965 430.833C364.967 432.054 362.945 433.24 360.9 434.391L360.409 433.52C359.828 433.847 359.245 434.171 358.66 434.492L359.142 435.369C357.09 436.496 355.015 437.588 352.919 438.643L352.469 437.75C351.873 438.05 351.276 438.347 350.677 438.641L351.117 439.538C349.016 440.569 346.893 441.564 344.749 442.521L344.341 441.608C343.733 441.88 343.122 442.149 342.51 442.415L342.909 443.332C340.762 444.265 338.595 445.16 336.409 446.017L336.044 445.086C335.423 445.33 334.801 445.57 334.178 445.807L334.533 446.742C332.346 447.574 330.14 448.367 327.916 449.123L327.594 448.176C326.963 448.39 326.331 448.601 325.697 448.809L326.008 449.759C323.785 450.488 321.545 451.179 319.287 451.83L319.01 450.87C318.37 451.054 317.729 451.236 317.086 451.414L317.353 452.378C315.099 453.003 312.828 453.589 310.542 454.135L310.31 453.162C309.662 453.317 309.014 453.469 308.363 453.617L308.586 454.592C306.305 455.112 304.009 455.592 301.699 456.032L301.512 455.05C300.859 455.174 300.204 455.295 299.548 455.413L299.725 456.397C297.423 456.811 295.107 457.185 292.777 457.518L292.636 456.528C291.978 456.622 291.319 456.713 290.658 456.801L290.79 457.792C288.471 458.099 286.139 458.366 283.795 458.592L283.699 457.597C283.038 457.66 282.376 457.721 281.713 457.778L281.799 458.774C279.468 458.975 277.125 459.135 274.771 459.253L274.72 458.255C274.058 458.288 273.395 458.318 272.731 458.345L272.772 459.344C270.436 459.438 268.091 459.491 265.735 459.503L265.73 458.503C265.395 458.505 265.06 458.506 264.725 458.506Z" fill="white" fill-opacity="0.01" stroke="#FCA311" stroke-width="2" stroke-dasharray="2 7"/>
    <g filter="url(#filter0_d_106_256)">
        <path d="M403.945 454.552C432.923 454.552 456.415 431.473 456.415 403.005C456.415 374.536 432.923 351.458 403.945 351.458C374.966 351.458 351.475 374.536 351.475 403.005C351.475 431.473 374.966 454.552 403.945 454.552Z" fill="white"/>
    </g>
    <path d="M425.484 383.252C421.473 381.374 417.185 380.009 412.702 379.232C412.151 380.228 411.508 381.568 411.064 382.634C406.298 381.917 401.576 381.917 396.898 382.634C396.455 381.568 395.797 380.228 395.241 379.232C390.753 380.009 386.46 381.379 382.449 383.262C374.36 395.496 372.167 407.427 373.263 419.187C378.628 423.197 383.828 425.633 388.94 427.227C390.202 425.489 391.328 423.641 392.298 421.693C390.451 420.991 388.682 420.124 387.01 419.118C387.454 418.789 387.888 418.445 388.307 418.092C398.501 422.864 409.578 422.864 419.651 418.092C420.075 418.445 420.509 418.789 420.947 419.118C419.271 420.129 417.497 420.996 415.65 421.698C416.62 423.641 417.741 425.494 419.008 427.232C424.124 425.638 429.329 423.202 434.694 419.187C435.981 405.554 432.497 393.733 425.484 383.252ZM393.687 411.955C390.626 411.955 388.117 409.095 388.117 405.613C388.117 402.131 390.573 399.267 393.687 399.267C396.801 399.267 399.31 402.126 399.257 405.613C399.262 409.095 396.801 411.955 393.687 411.955ZM414.271 411.955C411.211 411.955 408.701 409.095 408.701 405.613C408.701 402.131 411.157 399.267 414.271 399.267C417.385 399.267 419.895 402.126 419.841 405.613C419.841 409.095 417.385 411.955 414.271 411.955Z" fill="#5865F2"/>
    <g filter="url(#filter1_d_106_256)">
        <path d="M460.084 313.976C489.317 313.976 513.015 290.897 513.015 262.429C513.015 233.96 489.317 210.882 460.084 210.882C430.851 210.882 407.152 233.96 407.152 262.429C407.152 290.897 430.851 313.976 460.084 313.976Z" fill="white"/>
    </g>
    <path d="M437.185 291.522L432 233H489L483.815 291.491L460.453 298" fill="#E44D26"/>
    <path d="M461 293V238H484L479.611 287.728" fill="#F16529"/>
    <path d="M443 245H461V252.234H450.863L451.526 259.644H461V266.862H444.958M445.274 270.496H452.474L452.979 276.28L461 278.447V286L446.284 281.857" fill="#EBEBEB"/>
    <path d="M479 245H461V252.24H478.336M477.687 259.655H461V266.895H469.858L469.019 276.304L461 278.473V286L475.71 281.886" fill="white"/>
    <g filter="url(#filter2_d_106_256)">
        <path d="M266.45 512.464C295.429 512.464 318.92 489.179 318.92 460.456C318.92 431.732 295.429 408.447 266.45 408.447C237.472 408.447 213.98 431.732 213.98 460.456C213.98 489.179 237.472 512.464 266.45 512.464Z" fill="white"/>
    </g>
    <path d="M266.5 427C247.45 427 232 441.92 232 460.322C232 475.044 241.884 487.534 255.595 491.941C257.317 492.249 257.875 491.216 257.875 490.339V484.135C248.278 486.151 246.28 480.204 246.28 480.204C244.71 476.352 242.448 475.327 242.448 475.327C239.317 473.259 242.686 473.303 242.686 473.303C246.151 473.536 247.974 476.738 247.974 476.738C251.05 481.831 256.044 480.359 258.013 479.507C258.321 477.355 259.215 475.883 260.204 475.053C252.542 474.206 244.486 471.348 244.486 458.583C244.486 454.943 245.834 451.972 248.04 449.639C247.683 448.798 246.502 445.407 248.376 440.82C248.376 440.82 251.274 439.926 257.866 444.236C260.618 443.497 263.568 443.128 266.5 443.114C269.432 443.128 272.385 443.497 275.142 444.236C281.729 439.926 284.621 440.82 284.621 440.82C286.498 445.41 285.317 448.801 284.96 449.639C287.174 451.972 288.511 454.946 288.511 458.583C288.511 471.382 280.441 474.2 272.759 475.025C273.995 476.058 275.125 478.085 275.125 481.195V490.339C275.125 491.225 275.677 492.266 277.428 491.938C291.127 487.526 301 475.039 301 460.322C301 441.92 285.553 427 266.5 427Z" fill="black"/>
    <g filter="url(#filter3_d_106_256)">
        <path d="M120.806 180.495C149.784 180.495 173.276 157.21 173.276 128.487C173.276 99.7633 149.784 76.4783 120.806 76.4783C91.8275 76.4783 68.3359 99.7633 68.3359 128.487C68.3359 157.21 91.8275 180.495 120.806 180.495Z" fill="white"/>
    </g>
    <path d="M150 98L144.716 157.194L120.964 163.778L97.2784 157.203L92 98H150Z" fill="#264DE4"/>
    <path d="M140.192 153.424L144.708 102.841H121V158.745L140.192 153.424Z" fill="#2965F1"/>
    <path d="M104.101 124.798L104.751 132.059H121V124.798H104.101Z" fill="#EBEBEB"/>
    <path d="M121 110.102H120.975H102.793L103.453 117.363H121V110.102Z" fill="#EBEBEB"/>
    <path d="M121 151.21V143.656L120.968 143.664L112.882 141.481L112.365 135.69H108.435H105.076L106.093 147.09L120.967 151.22L121 151.21Z" fill="#EBEBEB"/>
    <path d="M129.916 132.059L129.073 141.476L120.975 143.662V151.216L135.861 147.091L135.97 145.864L137.676 126.748L137.853 124.798L139.164 110.102H120.975V117.363H131.207L130.546 124.798H120.975V132.059H129.916Z" fill="white"/>
    <g filter="url(#filter4_d_106_256)">
        <path d="M67.47 313.976C96.4483 313.976 119.94 290.897 119.94 262.429C119.94 233.96 96.4483 210.882 67.47 210.882C38.4916 210.882 15 233.96 15 262.429C15 290.897 38.4916 313.976 67.47 313.976Z" fill="white"/>
    </g>
    <path d="M66.3655 231.001C63.7476 231.013 61.2477 231.239 59.0479 231.632C52.5678 232.79 51.3913 235.214 51.3913 239.683V245.586H66.7046V247.554H51.3913H45.6444C41.1939 247.554 37.2969 250.26 36.078 255.406C34.672 261.306 34.6096 264.987 36.078 271.148C37.1665 275.733 39.7661 279 44.2165 279H49.4816V271.924C49.4816 266.812 53.8548 262.302 59.0479 262.302H74.3434C78.6011 262.302 82 258.756 82 254.432V239.683C82 235.486 78.499 232.333 74.3434 231.632C71.7128 231.189 68.9833 230.988 66.3655 231.001ZM58.0842 235.748C59.6659 235.748 60.9576 237.076 60.9576 238.709C60.9576 240.335 59.6659 241.651 58.0842 241.651C56.4967 241.651 55.2107 240.335 55.2107 238.709C55.2107 237.076 56.4967 235.748 58.0842 235.748Z" fill="url(#paint0_linear_106_256)"/>
    <path d="M83.4523 248V254.825C83.4523 260.117 78.9919 264.571 73.9054 264.571H58.6411C54.4599 264.571 51 268.17 51 272.381V287.017C51 291.183 54.6014 293.633 58.6411 294.828C63.4786 296.259 68.1174 296.517 73.9054 294.828C77.7528 293.708 81.5465 291.453 81.5465 287.017V281.159H66.2822V279.207H81.5465H89.1876C93.629 279.207 95.2841 276.091 96.8287 271.414C98.4242 266.599 98.3563 261.969 96.8287 255.793C95.7311 251.346 93.6347 248 89.1876 248H83.4523ZM74.8673 285.065C76.4515 285.065 77.7349 286.37 77.7349 287.985C77.7349 289.605 76.4515 290.923 74.8673 290.923C73.2887 290.923 71.9996 289.605 71.9996 287.985C71.9996 286.37 73.2887 285.065 74.8673 285.065Z" fill="url(#paint1_linear_106_256)"/>
    <g filter="url(#filter5_d_106_256)">
        <path d="M266.45 116.94C295.429 116.94 318.92 93.4483 318.92 64.47C318.92 35.4916 295.429 12 266.45 12C237.472 12 213.98 35.4916 213.98 64.47C213.98 93.4483 237.472 116.94 266.45 116.94Z" fill="white"/>
    </g>
    <g clip-path="url(#clip0_106_256)">
        <path d="M266 71.4115C269.544 71.4115 272.417 68.541 272.417 65C272.417 61.4591 269.544 58.5886 266 58.5886C262.456 58.5886 259.583 61.4591 259.583 65C259.583 68.541 262.456 71.4115 266 71.4115Z" fill="#61DAFB"/>
        <path d="M266 78.1356C285.018 78.1356 300.435 72.2546 300.435 65C300.435 57.7454 285.018 51.8644 266 51.8644C246.982 51.8644 231.565 57.7454 231.565 65C231.565 72.2546 246.982 78.1356 266 78.1356Z" stroke="#61DAFB" stroke-width="2"/>
        <path d="M254.614 71.5678C264.123 88.0224 276.929 98.421 283.217 94.7937C289.506 91.1664 286.895 74.8868 277.386 58.4322C267.877 41.9776 255.071 31.5791 248.783 35.2063C242.494 38.8336 245.105 55.1132 254.614 71.5678Z" stroke="#61DAFB" stroke-width="2"/>
        <path d="M254.614 58.4322C245.105 74.8868 242.494 91.1664 248.783 94.7937C255.071 98.421 267.877 88.0224 277.386 71.5678C286.895 55.1132 289.506 38.8337 283.217 35.2064C276.929 31.5791 264.123 41.9776 254.614 58.4322Z" stroke="#61DAFB" stroke-width="2"/>
    </g>
    <g filter="url(#filter6_d_106_256)">
        <path d="M413.173 181.774C442.151 181.774 465.643 158.282 465.643 129.304C465.643 100.325 442.151 76.8337 413.173 76.8337C384.195 76.8337 360.703 100.325 360.703 129.304C360.703 158.282 384.195 181.774 413.173 181.774Z" fill="white"/>
    </g>
    <path d="M414.5 131C414.5 128.26 415.58 125.631 417.502 123.693C419.424 121.755 422.032 120.667 424.75 120.667C427.468 120.667 430.076 121.755 431.998 123.693C433.92 125.631 435 128.26 435 131C435 133.741 433.92 136.369 431.998 138.307C430.076 140.245 427.468 141.333 424.75 141.333C422.032 141.333 419.424 140.245 417.502 138.307C415.58 136.369 414.5 133.741 414.5 131V131Z" fill="#1ABCFE"/>
    <path d="M394 151.667C394 148.926 395.08 146.298 397.002 144.36C398.924 142.422 401.532 141.333 404.25 141.333H414.5V151.667C414.5 154.407 413.42 157.035 411.498 158.973C409.576 160.911 406.968 162 404.25 162C401.532 162 398.924 160.911 397.002 158.973C395.08 157.035 394 154.407 394 151.667V151.667Z" fill="#0ACF83"/>
    <path d="M414.5 100V120.667H424.75C427.468 120.667 430.076 119.578 431.998 117.64C433.92 115.702 435 113.074 435 110.333C435 107.593 433.92 104.964 431.998 103.027C430.076 101.089 427.468 100 424.75 100H414.5Z" fill="#FF7262"/>
    <path d="M394 110.333C394 113.074 395.08 115.702 397.002 117.64C398.924 119.578 401.532 120.667 404.25 120.667H414.5V100H404.25C401.532 100 398.924 101.089 397.002 103.027C395.08 104.964 394 107.593 394 110.333V110.333Z" fill="#F24E1E"/>
    <path d="M394 131C394 133.741 395.08 136.369 397.002 138.307C398.924 140.245 401.532 141.333 404.25 141.333H414.5V120.667H404.25C401.532 120.667 398.924 121.755 397.002 123.693C395.08 125.631 394 128.26 394 131V131Z" fill="#A259FF"/>
    <g filter="url(#filter7_d_106_256)">
        <path d="M260.054 355.703C311.787 355.703 353.725 314.385 353.725 263.417C353.725 212.448 311.787 171.13 260.054 171.13C208.321 171.13 166.383 212.448 166.383 263.417C166.383 314.385 208.321 355.703 260.054 355.703Z" fill="white"/>
    </g>
    <path d="M307.453 264.311C307.207 263.59 306.606 263.051 305.867 262.877L278.503 256.468L304.484 250.384C305.226 250.211 305.823 249.668 306.069 248.951C306.327 248.202 308.401 241.088 302.354 221.722C301.99 220.558 300.752 219.91 299.582 220.273C298.416 220.635 297.767 221.871 298.13 223.039C302.434 236.828 302.341 243.87 302.059 246.422L279.528 251.701L294.366 243.153C295.205 242.67 295.629 241.7 295.419 240.758C295.249 240.005 291.106 222.225 276.414 212.595C275.393 211.926 274.021 212.208 273.352 213.227C272.682 214.245 272.964 215.614 273.985 216.283C284.789 223.361 289.359 235.834 290.674 240.178L268.688 252.848C271.585 248.142 271.205 242.702 267.692 239.196C264.02 235.532 258.038 235.524 254.359 239.196C251.01 242.537 250.223 247.985 253.374 252.88L231.323 240.174C232.63 235.834 237.181 223.385 248.017 216.283C249.037 215.614 249.324 214.245 248.65 213.227C247.98 212.208 246.609 211.926 245.588 212.595C230.896 222.225 226.752 240.005 226.583 240.758C226.369 241.7 226.797 242.67 227.636 243.153L242.474 251.701L219.943 246.422C219.66 243.874 219.571 236.828 223.872 223.039C224.235 221.875 223.586 220.639 222.42 220.273C221.254 219.91 220.011 220.558 219.648 221.722C213.605 241.088 215.678 248.202 215.933 248.951C216.179 249.672 216.78 250.211 217.518 250.384L243.498 256.468L216.134 262.877C215.392 263.051 214.795 263.594 214.549 264.311C214.291 265.06 212.221 272.174 218.264 291.54C218.627 292.703 219.866 293.351 221.036 292.989C222.202 292.627 222.851 291.391 222.488 290.223C218.184 276.434 218.277 269.392 218.559 266.839L245.745 260.47L228.346 269.967C227.636 270.354 227.196 271.099 227.196 271.904C227.196 272.315 227.297 282.179 236.023 299.016C237.411 301.698 238.964 304.444 240.634 307.173C241.272 308.216 242.631 308.542 243.676 307.91C244.721 307.274 245.048 305.917 244.414 304.874C242.796 302.229 241.296 299.576 239.956 296.987C233.518 284.562 232.053 276.188 231.723 273.16L244.059 266.424C242.611 269.142 241.764 272.202 241.614 275.411C241.36 280.822 243.03 286.435 246.447 291.644C249.941 296.975 257.186 305.929 257.493 306.308C259.28 308.514 262.657 308.486 264.412 306.259C264.71 305.881 271.774 296.903 275.357 291.741C278.963 286.543 280.702 280.878 280.383 275.367C280.198 272.158 279.302 269.082 277.797 266.344L290.291 273.164C289.973 276.176 288.532 284.478 282.049 296.987C280.714 299.568 279.213 302.221 277.592 304.874C276.688 306.352 277.773 308.232 279.48 308.232C280.226 308.232 280.952 307.858 281.372 307.173C283.046 304.431 284.599 301.686 285.983 299.016C294.709 282.179 294.81 272.315 294.81 271.904C294.81 271.099 294.37 270.354 293.66 269.967L276.26 260.47L303.447 266.839C303.729 269.388 303.818 276.434 299.513 290.223C299.07 291.644 300.135 293.086 301.627 293.086C302.571 293.086 303.443 292.478 303.737 291.536C309.781 272.17 307.707 265.056 307.453 264.307V264.311ZM257.489 242.312C259.417 240.387 262.6 240.347 264.569 242.312C266.518 244.256 266.877 247.558 264.763 250.783C263.581 252.587 261.027 255.739 261.027 255.739C261.027 255.739 258.522 252.554 257.291 250.783C255.056 247.562 255.537 244.256 257.485 242.312H257.489ZM271.718 289.237C268.172 294.35 260.93 303.542 260.93 303.542C260.93 303.542 253.556 294.443 250.143 289.237C244.043 279.932 245.084 270.398 250.708 264.786C253.519 261.98 257.207 260.574 260.894 260.574H260.958C264.646 260.574 268.333 261.976 271.145 264.786C276.773 270.402 278.164 279.936 271.71 289.237H271.718Z" fill="#14213D"/>
    <path d="M260.937 260.574C260.917 260.574 260.897 260.574 260.873 260.574H260.808C257.129 260.574 253.449 261.975 250.642 264.786C245.026 270.402 243.991 279.936 250.079 289.236C253.485 294.442 260.845 303.541 260.845 303.541C260.845 303.541 260.877 303.497 260.941 303.421V260.574H260.937Z" fill="#FCA311"/>
    <path d="M260.937 260.574C260.917 260.574 260.897 260.574 260.873 260.574H260.808C257.129 260.574 253.449 261.975 250.642 264.786C245.026 270.402 243.991 279.936 250.079 289.236C253.485 294.442 260.845 303.541 260.845 303.541C260.845 303.541 260.877 303.497 260.941 303.421V260.574H260.937Z" fill="#FCA311"/>
    <path d="M260.937 240.85C259.653 240.85 258.373 241.342 257.406 242.308C255.462 244.252 254.979 247.554 257.213 250.779C258.441 252.55 260.941 255.735 260.941 255.735V240.85H260.937Z" fill="#FCA311"/>
    <path d="M260.937 240.85C259.653 240.85 258.373 241.342 257.406 242.308C255.462 244.252 254.979 247.554 257.213 250.779C258.441 252.55 260.941 255.735 260.941 255.735V240.85H260.937Z" fill="#FCA311"/>
    <path d="M260.852 260.574C260.872 260.574 260.892 260.574 260.916 260.574H260.981C264.661 260.574 268.34 261.975 271.147 264.786C276.763 270.402 277.798 279.936 271.71 289.236C268.304 294.442 260.944 303.541 260.944 303.541C260.944 303.541 260.912 303.497 260.848 303.421V260.574H260.852Z" fill="#FCA311"/>
    <path d="M260.852 260.574C260.872 260.574 260.892 260.574 260.916 260.574H260.981C264.661 260.574 268.34 261.975 271.147 264.786C276.763 270.402 277.798 279.936 271.71 289.236C268.304 294.442 260.944 303.541 260.944 303.541C260.944 303.541 260.912 303.497 260.848 303.421V260.574H260.852Z" fill="#FCA311"/>
    <path d="M260.852 240.85C262.136 240.85 263.417 241.342 264.383 242.308C266.328 244.252 266.811 247.554 264.576 250.779C263.348 252.55 260.848 255.735 260.848 255.735V240.85H260.852Z" fill="#FCA311"/>
    <path d="M260.852 240.85C262.136 240.85 263.417 241.342 264.383 242.308C266.328 244.252 266.811 247.554 264.576 250.779C263.348 252.55 260.848 255.735 260.848 255.735V240.85H260.852Z" fill="#FCA311"/>
    <path d="M267.303 272.375C266.667 270.845 265.205 269.174 263.369 268.872C262.173 268.679 261.364 267.552 261.557 266.36C261.751 265.164 262.874 264.355 264.07 264.548C267.802 265.156 270.274 268.119 271.345 270.692C271.808 271.807 271.28 273.088 270.165 273.555C269.058 274.018 267.77 273.498 267.303 272.375Z" fill="white"/>
    <g filter="url(#filter8_d_106_256)">
        <path d="M129.849 460.484C158.827 460.484 182.319 436.992 182.319 408.014C182.319 379.035 158.827 355.544 129.849 355.544C100.871 355.544 77.3789 379.035 77.3789 408.014C77.3789 436.992 100.871 460.484 129.849 460.484Z" fill="white"/>
    </g>
    <path d="M129.51 437C128.71 437 127.916 436.793 127.214 436.394L119.905 432.121C118.813 431.518 119.346 431.305 119.706 431.182C121.162 430.679 121.457 430.565 123.011 429.694C123.174 429.602 123.388 429.634 123.555 429.732L129.17 433.022C129.373 433.13 129.661 433.13 129.849 433.022L151.742 420.543C151.945 420.429 152.077 420.196 152.077 419.958V395.01C152.077 394.761 151.945 394.539 151.738 394.415L129.853 381.946C129.65 381.827 129.382 381.827 129.179 381.946L107.298 394.415C107.086 394.534 106.951 394.767 106.951 395.005V419.953C106.951 420.191 107.083 420.418 107.291 420.532L113.287 423.952C116.542 425.559 118.531 423.665 118.531 421.76V397.137C118.531 396.785 118.811 396.515 119.167 396.515H121.94C122.285 396.515 122.57 396.785 122.57 397.137V421.771C122.57 426.057 120.203 428.519 116.087 428.519C114.821 428.519 113.824 428.519 111.04 427.166L105.296 423.898C103.877 423.086 103 421.571 103 419.953V395.005C103 393.381 103.877 391.866 105.296 391.065L127.212 378.58C128.598 377.807 130.44 377.807 131.815 378.58L153.704 391.071C155.118 391.877 156 393.387 156 395.01V419.958C156 421.576 155.118 423.086 153.704 423.898L131.815 436.383C131.114 436.783 130.319 436.989 129.508 436.989" fill="#689F63"/>
    <path d="M135.554 420.974C126.003 420.974 124 416.536 124 412.814C124 412.46 124.282 412.178 124.632 412.178H127.452C127.763 412.178 128.025 412.407 128.075 412.718C128.501 415.627 129.768 417.093 135.544 417.093C140.144 417.093 142.101 416.041 142.101 413.572C142.101 412.15 141.543 411.094 134.396 410.386C128.419 409.789 124.725 408.456 124.725 403.616C124.725 399.159 128.441 396.504 134.664 396.504C141.653 396.504 145.117 398.96 145.554 404.236C145.57 404.418 145.505 404.595 145.384 404.728C145.264 404.855 145.095 404.933 144.92 404.933H142.084C141.789 404.933 141.532 404.723 141.472 404.435C140.789 401.377 139.139 400.398 134.653 400.398C129.632 400.398 129.047 402.167 129.047 403.495C129.047 405.104 129.736 405.574 136.511 406.481C143.221 407.383 146.406 408.655 146.406 413.428C146.406 418.24 142.439 421 135.522 421" fill="#689F63"/>
    <defs>
        <filter id="filter0_d_106_256" x="336.475" y="339.458" width="136.94" height="135.094" filterUnits="userSpaceOnUse" color-interpolation-filters="sRGB">
            <feFlood flood-opacity="0" result="BackgroundImageFix"/>
            <feColorMatrix in="SourceAlpha" type="matrix" values="0 0 0 0 0 0 0 0 0 0 0 0 0 0 0 0 0 0 127 0" result="hardAlpha"/>
            <feOffset dx="1" dy="4"/>
            <feGaussianBlur stdDeviation="8"/>
            <feColorMatrix type="matrix" values="0 0 0 0 0.184314 0 0 0 0 0.243137 0 0 0 0 0.513726 0 0 0 0.160784 0"/>
            <feBlend mode="normal" in2="BackgroundImageFix" result="effect1_dropShadow_106_256"/>
            <feBlend mode="normal" in="SourceGraphic" in2="effect1_dropShadow_106_256" result="shape"/>
        </filter>
        <filter id="filter1_d_106_256" x="392.152" y="198.882" width="137.863" height="135.094" filterUnits="userSpaceOnUse" color-interpolation-filters="sRGB">
            <feFlood flood-opacity="0" result="BackgroundImageFix"/>
            <feColorMatrix in="SourceAlpha" type="matrix" values="0 0 0 0 0 0 0 0 0 0 0 0 0 0 0 0 0 0 127 0" result="hardAlpha"/>
            <feOffset dx="1" dy="4"/>
            <feGaussianBlur stdDeviation="8"/>
            <feColorMatrix type="matrix" values="0 0 0 0 0.184314 0 0 0 0 0.243137 0 0 0 0 0.513726 0 0 0 0.160784 0"/>
            <feBlend mode="normal" in2="BackgroundImageFix" result="effect1_dropShadow_106_256"/>
            <feBlend mode="normal" in="SourceGraphic" in2="effect1_dropShadow_106_256" result="shape"/>
        </filter>
        <filter id="filter2_d_106_256" x="198.98" y="396.447" width="136.94" height="136.017" filterUnits="userSpaceOnUse" color-interpolation-filters="sRGB">
            <feFlood flood-opacity="0" result="BackgroundImageFix"/>
            <feColorMatrix in="SourceAlpha" type="matrix" values="0 0 0 0 0 0 0 0 0 0 0 0 0 0 0 0 0 0 127 0" result="hardAlpha"/>
            <feOffset dx="1" dy="4"/>
            <feGaussianBlur stdDeviation="8"/>
            <feColorMatrix type="matrix" values="0 0 0 0 0.184314 0 0 0 0 0.243137 0 0 0 0 0.513726 0 0 0 0.160784 0"/>
            <feBlend mode="normal" in2="BackgroundImageFix" result="effect1_dropShadow_106_256"/>
            <feBlend mode="normal" in="SourceGraphic" in2="effect1_dropShadow_106_256" result="shape"/>
        </filter>
        <filter id="filter3_d_106_256" x="53.3359" y="64.4783" width="136.94" height="136.017" filterUnits="userSpaceOnUse" color-interpolation-filters="sRGB">
            <feFlood flood-opacity="0" result="BackgroundImageFix"/>
            <feColorMatrix in="SourceAlpha" type="matrix" values="0 0 0 0 0 0 0 0 0 0 0 0 0 0 0 0 0 0 127 0" result="hardAlpha"/>
            <feOffset dx="1" dy="4"/>
            <feGaussianBlur stdDeviation="8"/>
            <feColorMatrix type="matrix" values="0 0 0 0 0.184314 0 0 0 0 0.243137 0 0 0 0 0.513726 0 0 0 0.160784 0"/>
            <feBlend mode="normal" in2="BackgroundImageFix" result="effect1_dropShadow_106_256"/>
            <feBlend mode="normal" in="SourceGraphic" in2="effect1_dropShadow_106_256" result="shape"/>
        </filter>
        <filter id="filter4_d_106_256" x="0" y="198.882" width="136.94" height="135.094" filterUnits="userSpaceOnUse" color-interpolation-filters="sRGB">
            <feFlood flood-opacity="0" result="BackgroundImageFix"/>
            <feColorMatrix in="SourceAlpha" type="matrix" values="0 0 0 0 0 0 0 0 0 0 0 0 0 0 0 0 0 0 127 0" result="hardAlpha"/>
            <feOffset dx="1" dy="4"/>
            <feGaussianBlur stdDeviation="8"/>
            <feColorMatrix type="matrix" values="0 0 0 0 0.184314 0 0 0 0 0.243137 0 0 0 0 0.513726 0 0 0 0.160784 0"/>
            <feBlend mode="normal" in2="BackgroundImageFix" result="effect1_dropShadow_106_256"/>
            <feBlend mode="normal" in="SourceGraphic" in2="effect1_dropShadow_106_256" result="shape"/>
        </filter>
        <filter id="filter5_d_106_256" x="198.98" y="0" width="136.94" height="136.94" filterUnits="userSpaceOnUse" color-interpolation-filters="sRGB">
            <feFlood flood-opacity="0" result="BackgroundImageFix"/>
            <feColorMatrix in="SourceAlpha" type="matrix" values="0 0 0 0 0 0 0 0 0 0 0 0 0 0 0 0 0 0 127 0" result="hardAlpha"/>
            <feOffset dx="1" dy="4"/>
            <feGaussianBlur stdDeviation="8"/>
            <feColorMatrix type="matrix" values="0 0 0 0 0.184314 0 0 0 0 0.243137 0 0 0 0 0.513726 0 0 0 0.160784 0"/>
            <feBlend mode="normal" in2="BackgroundImageFix" result="effect1_dropShadow_106_256"/>
            <feBlend mode="normal" in="SourceGraphic" in2="effect1_dropShadow_106_256" result="shape"/>
        </filter>
        <filter id="filter6_d_106_256" x="345.703" y="64.8337" width="136.94" height="136.94" filterUnits="userSpaceOnUse" color-interpolation-filters="sRGB">
            <feFlood flood-opacity="0" result="BackgroundImageFix"/>
            <feColorMatrix in="SourceAlpha" type="matrix" values="0 0 0 0 0 0 0 0 0 0 0 0 0 0 0 0 0 0 127 0" result="hardAlpha"/>
            <feOffset dx="1" dy="4"/>
            <feGaussianBlur stdDeviation="8"/>
            <feColorMatrix type="matrix" values="0 0 0 0 0.184314 0 0 0 0 0.243137 0 0 0 0 0.513726 0 0 0 0.160784 0"/>
            <feBlend mode="normal" in2="BackgroundImageFix" result="effect1_dropShadow_106_256"/>
            <feBlend mode="normal" in="SourceGraphic" in2="effect1_dropShadow_106_256" result="shape"/>
        </filter>
        <filter id="filter7_d_106_256" x="151.383" y="159.13" width="219.342" height="216.574" filterUnits="userSpaceOnUse" color-interpolation-filters="sRGB">
            <feFlood flood-opacity="0" result="BackgroundImageFix"/>
            <feColorMatrix in="SourceAlpha" type="matrix" values="0 0 0 0 0 0 0 0 0 0 0 0 0 0 0 0 0 0 127 0" result="hardAlpha"/>
            <feOffset dx="1" dy="4"/>
            <feGaussianBlur stdDeviation="8"/>
            <feColorMatrix type="matrix" values="0 0 0 0 0.184314 0 0 0 0 0.243137 0 0 0 0 0.513726 0 0 0 0.160784 0"/>
            <feBlend mode="normal" in2="BackgroundImageFix" result="effect1_dropShadow_106_256"/>
            <feBlend mode="normal" in="SourceGraphic" in2="effect1_dropShadow_106_256" result="shape"/>
        </filter>
        <filter id="filter8_d_106_256" x="62.3789" y="343.544" width="136.94" height="136.94" filterUnits="userSpaceOnUse" color-interpolation-filters="sRGB">
            <feFlood flood-opacity="0" result="BackgroundImageFix"/>
            <feColorMatrix in="SourceAlpha" type="matrix" values="0 0 0 0 0 0 0 0 0 0 0 0 0 0 0 0 0 0 127 0" result="hardAlpha"/>
            <feOffset dx="1" dy="4"/>
            <feGaussianBlur stdDeviation="8"/>
            <feColorMatrix type="matrix" values="0 0 0 0 0.184314 0 0 0 0 0.243137 0 0 0 0 0.513726 0 0 0 0.160784 0"/>
            <feBlend mode="normal" in2="BackgroundImageFix" result="effect1_dropShadow_106_256"/>
            <feBlend mode="normal" in="SourceGraphic" in2="effect1_dropShadow_106_256" result="shape"/>
        </filter>
        <linearGradient id="paint0_linear_106_256" x1="35" y1="231" x2="70.6479" y2="261.034" gradientUnits="userSpaceOnUse">
            <stop stop-color="#5A9FD4"/>
            <stop offset="1" stop-color="#306998"/>
        </linearGradient>
        <linearGradient id="paint1_linear_106_256" x1="74.5" y1="287.492" x2="61.7609" y2="269.744" gradientUnits="userSpaceOnUse">
            <stop stop-color="#FFD43B"/>
            <stop offset="1" stop-color="#FFE873"/>
        </linearGradient>
        <clipPath id="clip0_106_256">
            <rect width="72" height="64" fill="white" transform="translate(230 33)"/>
        </clipPath>
    </defs>
</svg>
