<svg width="36" height="39" viewBox="0 0 36 39" fill="none" xmlns="http://www.w3.org/2000/svg">
<g clip-path="url(#clip0_29_3197)">
<rect opacity="0.01" x="0.535988" y="6.53747" width="34.7265" height="31.7265" fill="white" stroke="#707070" stroke-width="1.07507"/>
<rect x="3.70473" y="5.14453" width="29.8179" height="31.3818" rx="14.9089" fill="#61BE8B" fill-opacity="0.01" stroke="#2ED47A" stroke-width="1.07507"/>
<path d="M26.6469 15.4363C26.1098 14.946 25.3041 14.946 24.767 15.4363L15.9051 23.4466L12.3246 20.3403C11.7875 19.9318 10.8923 19.9318 10.3552 20.3403C10.1762 20.5855 9.99718 20.9133 9.99718 21.2402C9.99718 21.5671 10.1762 21.8939 10.3552 22.1391L14.831 26.1442C15.0995 26.3894 15.4575 26.4711 15.8156 26.4711C16.1736 26.4711 16.5318 26.3894 16.7108 26.1442L26.5573 17.2351C26.9154 16.9899 27.0049 16.6621 27.0049 16.3352C27.0049 16.0083 26.9154 15.6815 26.6469 15.4363Z" fill="#2ED47A"/>
</g>
<defs>
<clipPath id="clip0_29_3197">
<rect width="36" height="39" fill="white"/>
</clipPath>
</defs>
</svg>
