<svg width="177" height="177" viewBox="0 0 177 177" fill="none" xmlns="http://www.w3.org/2000/svg">
<g clip-path="url(#clip0_110_490)">
<path d="M174.912 102.588C182.692 54.8648 150.312 9.86942 102.588 2.08857C54.8647 -5.69229 9.86931 26.6878 2.08845 74.4116C-5.69241 122.135 26.6877 167.131 74.4115 174.911C122.135 182.692 167.131 150.312 174.912 102.588Z" fill="#14BAAB"/>
<mask id="mask0_110_490" style="mask-type:alpha" maskUnits="userSpaceOnUse" x="0" y="0" width="177" height="177">
<path d="M174.912 102.589C182.692 54.8651 150.312 9.86968 102.588 2.08882C54.8647 -5.69204 9.86931 26.6881 2.08845 74.4118C-5.69241 122.135 26.6877 167.131 74.4115 174.912C122.135 182.693 167.131 150.312 174.912 102.589Z" fill="white"/>
</mask>
<g mask="url(#mask0_110_490)">
<path d="M48.4046 81.1077C47.9195 81.8271 46.4137 142.711 57.1047 155.175H117.67C117.67 155.175 134.217 108.429 122.941 81.1077H48.0366" fill="#0C0000"/>
<path d="M106.21 114.586H72.6812V137.173H106.21V114.586Z" fill="#FBBCA0"/>
<g style="mix-blend-mode:multiply">
<path d="M80.8124 130.915C85.8651 132.923 91.403 134.128 96.8405 134.178C99.9525 134.194 103.131 133.81 106.21 133.274V114.586H72.6812V126.264C75.0402 128.339 78.0518 129.828 80.8124 130.915Z" fill="#E6E7E8"/>
</g>
<path d="M125.735 72.073C125.852 71.2364 127.257 69.8812 127.876 69.4295C129.248 68.4089 130.637 69.463 131.038 70.7847C131.39 71.9726 131.423 73.3111 131.524 74.5324C131.741 77.5272 131.273 80.4719 129.934 83.1823C129.031 84.9892 127.625 86.4782 125.952 87.5992C125.952 87.5992 124.145 88.5027 123.794 86.428L125.751 72.073H125.735Z" fill="#FBBCA0"/>
<path d="M125.45 73.8799C125.534 73.2776 126.538 72.3239 126.989 71.9893C127.977 71.2532 128.964 72.006 129.265 72.9597C129.516 73.813 129.549 74.7666 129.616 75.6366C129.767 77.7782 129.432 79.8863 128.479 81.827C127.826 83.1153 126.822 84.1861 125.618 84.9892C125.618 84.9892 124.329 85.6249 124.078 84.1526L125.484 73.8799H125.45Z" fill="#DDA78F"/>
<path d="M52.2863 72.073C52.1692 71.2364 50.7638 69.8812 50.1448 69.4295C48.7728 68.4089 47.3842 69.463 46.9826 70.7847C46.6145 71.9726 46.5811 73.3111 46.4974 74.5324C46.2966 77.5272 46.7484 80.4719 48.0869 83.1823C48.9903 84.9892 50.3957 86.4782 52.0688 87.5992C52.0688 87.5992 53.8757 88.5027 54.2271 86.428L52.2696 72.073H52.2863Z" fill="#FBBCA0"/>
<path d="M52.5707 73.8799C52.4871 73.2776 51.4832 72.3239 51.0315 71.9893C50.0444 71.2532 49.0572 72.006 48.7728 72.9597C48.5219 73.813 48.4884 74.7666 48.4215 75.6366C48.2709 77.7782 48.6055 79.8863 49.5592 81.827C50.2117 83.1153 51.2155 84.1861 52.4202 84.9892C52.4202 84.9892 53.7084 85.6249 53.9761 84.1526L52.5707 73.8799Z" fill="#DDA78F"/>
<path d="M126.839 74.7666C126.839 84.2362 125.199 93.8063 120.749 101.988C116.851 109.148 110.995 114.887 104.704 119.471C99.6011 123.186 94.1301 127.519 87.6888 126.984C80.963 126.431 75.7262 120.693 70.8073 116.226C63.8975 109.935 58.4433 102.121 55.0804 92.9195C53.0057 87.2478 52.0521 80.8566 52.0521 74.7498C52.0521 44.1491 68.7996 24.9087 89.4455 24.9087C110.091 24.9087 126.839 44.1491 126.839 74.7498V74.7666Z" fill="#FBBCA0"/>
<path d="M140.458 147.395L104.052 136.47H74.8395L38.4332 147.395C38.4332 147.395 21.5685 154.573 19.6946 177.276H159.213C157.339 154.573 140.458 147.395 140.458 147.395Z" fill="#FBBCA0"/>
<path d="M140.458 147.395L120.331 141.355L89.4455 172.207L58.4767 141.372L38.4332 147.378C38.4332 147.378 21.5685 154.556 19.6946 177.26H159.213C157.339 154.556 140.458 147.378 140.458 147.378V147.395Z" fill="#EC524F"/>
<path d="M64.0648 37.0888C64.0648 37.0888 82.0672 65.6483 126.722 70.517C126.722 70.517 135.171 37.9755 103.767 22.1649C103.767 22.1649 79.7416 12.2435 64.0648 37.1055V37.0888Z" fill="#3C2415"/>
<path d="M68.6825 42.861C68.6825 42.861 57.0546 50.3899 52.0019 71.3871C52.0019 71.3871 46.5978 31.8187 74.5718 26.8831L68.6658 42.8777L68.6825 42.861Z" fill="#3C2415"/>
<path d="M114.308 67.2044C114.308 67.2044 126.287 143.43 107.347 165.013C107.347 165.013 131.557 161.416 132.762 128.088C132.762 128.088 137.078 60.0101 120.699 36.52L114.308 67.2044Z" fill="#3C2415"/>
<path d="M63.0776 165.013C63.0776 165.013 35.204 161.7 42.8667 75.9879C42.8667 75.9879 44.7908 28.3719 72.6644 27.2844L71.0582 45.3537C71.0582 45.3537 55.0301 50.122 57.1047 87.7999C57.1047 87.7999 55.4818 148.483 63.0776 165.029V165.013Z" fill="#3C2415"/>
</g>
</g>
<defs>
<clipPath id="clip0_110_490">
<rect width="177" height="177" fill="white"/>
</clipPath>
</defs>
</svg>
