<svg width="178" height="178" viewBox="0 0 178 178" fill="none" xmlns="http://www.w3.org/2000/svg">
<g clip-path="url(#clip0_110_442)">
<path d="M176.785 95.2154C180.217 46.7334 143.697 4.64813 95.2153 1.21542C46.7333 -2.2173 4.64813 34.3024 1.21542 82.7845C-2.2173 131.267 34.3023 173.352 82.7844 176.785C131.267 180.217 173.352 143.698 176.785 95.2154Z" fill="#7A4B35"/>
<mask id="mask0_110_442" style="mask-type:alpha" maskUnits="userSpaceOnUse" x="0" y="0" width="178" height="178">
<path d="M176.785 95.2154C180.217 46.7334 143.697 4.64813 95.2153 1.21542C46.7333 -2.2173 4.64813 34.3024 1.21542 82.7845C-2.2173 131.267 34.3023 173.352 82.7844 176.785C131.267 180.217 173.352 143.698 176.785 95.2154Z" fill="white"/>
</mask>
<g mask="url(#mask0_110_442)">
<path d="M105.418 113.251H71.7159V135.954H105.418V113.251Z" fill="#FBBCA0"/>
<g style="mix-blend-mode:multiply">
<path d="M79.8891 129.681C84.9679 131.699 90.5344 132.91 95.9999 132.961C99.1279 132.994 102.323 132.591 105.418 132.053V113.268H71.7159V125.006C74.0872 127.092 77.1142 128.571 79.8891 129.681Z" fill="#E6E7E8"/>
</g>
<path d="M125.766 71.2081C125.884 70.384 127.33 69.0386 127.969 68.5846C129.382 67.5756 130.795 68.6182 131.215 69.9299C131.585 71.1071 131.619 72.4357 131.703 73.6466C131.922 76.6232 131.451 79.5494 130.072 82.2401C129.147 84.0396 127.7 85.5027 125.985 86.6126C125.985 86.6126 124.135 87.5039 123.765 85.4522C123.765 85.4522 125.766 71.208 125.766 71.1912V71.2081Z" fill="#FBBCA0"/>
<path d="M125.464 72.9907C125.548 72.4021 126.59 71.4435 127.028 71.1072C128.037 70.384 129.063 71.124 129.349 72.0658C129.618 72.9066 129.634 73.8484 129.702 74.7229C129.853 76.8586 129.517 78.944 128.524 80.8611C127.869 82.1392 126.826 83.1987 125.598 83.9891C125.598 83.9891 124.27 84.6282 124.017 83.1651C124.017 83.1651 125.447 72.9739 125.447 72.9571L125.464 72.9907Z" fill="#DDA78F"/>
<path d="M50.5096 71.2081C50.3919 70.384 48.9456 69.0386 48.3065 68.5846C46.8939 67.5756 45.4813 68.6182 45.0608 69.9299C44.6908 71.1071 44.6572 72.4357 44.5731 73.6466C44.3545 76.6232 44.8254 79.5494 46.2044 82.2401C47.1293 84.0396 48.5756 85.5027 50.291 86.6126C50.291 86.6126 52.1409 87.5039 52.5108 85.4522C52.5108 85.4522 50.5096 71.208 50.5096 71.1912V71.2081Z" fill="#FBBCA0"/>
<path d="M50.8123 72.9907C50.7282 72.4021 49.7024 71.4435 49.2483 71.1072C48.2393 70.384 47.2134 71.124 46.9275 72.0658C46.6584 72.9066 46.6416 73.8484 46.5744 74.7229C46.423 76.8586 46.7593 78.944 47.7516 80.8611C48.4074 82.1392 49.4501 83.1987 50.6777 83.9891C50.6777 83.9891 52.0063 84.6282 52.2586 83.1651C52.2586 83.1651 50.8291 72.9739 50.8291 72.9571L50.8123 72.9907Z" fill="#DDA78F"/>
<path d="M126.893 73.8821C126.893 83.2829 125.211 92.7846 120.637 100.924C116.635 108.038 110.648 113.739 104.207 118.279C98.9767 121.962 93.3766 126.268 86.7674 125.746C79.8724 125.191 74.5077 119.507 69.4625 115.067C62.3825 108.811 56.7824 101.059 53.3517 91.927C51.2327 86.2932 50.2573 79.9531 50.2573 73.8989C50.2573 43.5103 67.4108 24.406 88.5669 24.406C109.723 24.406 126.876 43.5103 126.876 73.8989L126.893 73.8821Z" fill="#FBBCA0"/>
<path d="M147.427 146.23L105.418 135.248H71.716L29.7067 146.23C29.7067 146.23 10.2324 153.444 8.07983 176.265H169.054C166.884 153.444 147.427 146.23 147.427 146.23Z" fill="#FBBCA0"/>
<path d="M147.427 146.23L105.418 135.248H71.716L29.7067 146.23C29.7067 146.23 10.2324 153.444 8.07983 176.265H169.054C166.884 153.444 147.427 146.23 147.427 146.23Z" fill="white"/>
<path d="M147.427 146.23L116.349 138.107L88.5837 176.282L61.1044 138.04L29.7236 146.246C29.7236 146.246 10.2493 153.461 8.09668 176.282H169.071C166.901 153.461 147.444 146.246 147.444 146.246L147.427 146.23Z" fill="#002C41"/>
<path d="M84.8839 157.144L77.1479 176.282H99.1279L91.5938 157.144H84.8839Z" fill="#FBB040"/>
<path d="M88.0623 135.618L78.2075 148.836L85.052 157.211L88.4155 157.144L91.7621 157.093L98.3376 148.517L88.0623 135.618Z" fill="#FBB040"/>
<g style="mix-blend-mode:multiply">
<path d="M94.6379 147.104C93.3766 149.593 91.039 152.435 87.8437 151.729C84.5475 151.006 83.034 147.894 83.8076 144.733C84.5475 141.655 86.532 139.082 87.6419 136.173L78.1906 148.836L85.0352 157.194L91.7453 157.093L98.3208 148.517L95.546 145.035C95.2769 145.742 94.9742 146.448 94.6379 147.121V147.104Z" fill="#D1D3D4"/>
</g>
<path d="M50.3582 70.1486C50.3582 70.1486 55.9752 35.9257 73.5155 39.2891C73.5155 39.2891 89.3741 49.1608 102.592 39.0537C102.592 39.0537 118.636 38.5155 127.431 70.1318C127.431 70.1318 129.634 36.3965 105.418 24.3723C105.418 24.3723 83.0172 14.0465 63.8456 29.4174C63.8456 29.4174 45.6831 43.7625 50.3414 70.1318L50.3582 70.1486Z" fill="#3C2415"/>
<path d="M88.5669 176.282L61.1044 138.023L39.1412 143.774L67.209 163.534L59.9945 166.713L72.9773 176.282H88.5669Z" fill="#002136"/>
<path d="M88.5668 176.332L116.046 138.073L138.009 143.825L109.941 163.585L117.139 166.763L104.173 176.332H88.5668Z" fill="#002136"/>
<path d="M55.1848 136.055L71.6656 128.319L88.4491 135.349L105.249 128.319L122.857 136.055L97.9676 152.721L88.4491 139.099L78.2075 152.721L55.1848 136.055Z" fill="#E2E3E4"/>
</g>
</g>
<defs>
<clipPath id="clip0_110_442">
<rect width="178" height="178" fill="white"/>
</clipPath>
</defs>
</svg>
