<svg width="183" height="183" viewBox="0 0 183 183" fill="none" xmlns="http://www.w3.org/2000/svg">
<path d="M91.5 183C142.034 183 183 142.034 183 91.5C183 40.966 142.034 0 91.5 0C40.9659 0 0 40.966 0 91.5C0 142.034 40.9659 183 91.5 183Z" fill="#6C8F26"/>
<mask id="mask0_110_538" style="mask-type:alpha" maskUnits="userSpaceOnUse" x="0" y="0" width="183" height="183">
<path d="M91.5 183C142.034 183 183 142.034 183 91.5C183 40.966 142.034 0 91.5 0C40.9659 0 0 40.966 0 91.5C0 142.034 40.9659 183 91.5 183Z" fill="white"/>
</mask>
<g mask="url(#mask0_110_538)">
<path d="M109.79 115.018H74.7493V138.623H109.79V115.018Z" fill="#FBBCA0"/>
<g style="mix-blend-mode:multiply">
<path d="M83.2471 132.101C88.5276 134.199 94.3152 135.458 99.9979 135.51C103.25 135.545 106.572 135.126 109.79 134.566V115.035H74.7493V127.24C77.2147 129.408 80.362 130.964 83.2471 132.101Z" fill="#E6E7E8"/>
</g>
<path d="M128.848 71.2871C128.953 70.4303 130.387 69.0315 130.999 68.5594C132.38 67.5103 133.779 68.5943 134.199 69.9582C134.566 71.1822 134.601 72.5635 134.688 73.8224C134.898 76.9173 134.444 79.9597 133.08 82.7574C132.171 84.6283 130.737 86.1495 129.058 87.3035C129.058 87.3035 127.24 88.2302 126.873 86.097C126.873 86.097 128.848 71.2871 128.848 71.2696V71.2871Z" fill="#FBBCA0"/>
<path d="M128.569 73.1579C128.656 72.5459 129.67 71.5492 130.107 71.1995C131.104 70.4477 132.101 71.217 132.398 72.1962C132.66 73.0704 132.678 74.0496 132.748 74.9588C132.905 77.1795 132.573 79.3476 131.594 81.3409C130.947 82.6698 129.915 83.7714 128.709 84.5932C128.709 84.5932 127.397 85.2576 127.152 83.7364C127.152 83.7364 128.569 73.1404 128.569 73.1229V73.1579Z" fill="#DDA78F"/>
<path d="M54.7811 71.2871C54.6587 70.4303 53.2424 69.0315 52.6129 68.5594C51.2316 67.5103 49.8328 68.5943 49.4131 69.9582C49.0459 71.1822 49.011 72.5635 48.9235 73.8224C48.7137 76.9173 49.1683 79.9597 50.5322 82.7574C51.4414 84.6283 52.8752 86.1495 54.5538 87.3035C54.5538 87.3035 56.3722 88.2302 56.7394 86.097C56.7394 86.097 54.7636 71.2871 54.7636 71.2696L54.7811 71.2871Z" fill="#FBBCA0"/>
<path d="M55.0783 73.1579C54.9909 72.5459 53.9768 71.5492 53.5396 71.1995C52.543 70.4477 51.5463 71.217 51.2491 72.1962C50.9868 73.0704 50.9693 74.0496 50.8994 74.9588C50.742 77.1795 51.0742 79.3476 52.0534 81.3409C52.7003 82.6698 53.732 83.7714 54.9384 84.5932C54.9384 84.5932 56.2498 85.2576 56.4946 83.7364C56.4946 83.7364 55.0783 73.1404 55.0783 73.1229V73.1579Z" fill="#DDA78F"/>
<path d="M129.967 74.0847C129.967 83.859 128.324 93.7381 123.813 102.201C119.879 109.597 113.969 115.525 107.639 120.246C102.498 124.075 96.9904 128.551 90.4684 128.009C83.6842 127.432 78.4037 121.522 73.4379 116.906C66.4613 110.401 60.9709 102.341 57.5788 92.8463C55.4981 87.0063 54.5364 80.3969 54.5364 74.1022C54.5364 42.5065 71.4271 22.6433 92.2519 22.6433C113.077 22.6433 129.967 42.5065 129.967 74.1022V74.0847Z" fill="#FBBCA0"/>
<path d="M153.467 149.306L109.789 137.888H74.7492L31.0712 149.306C31.0712 149.306 10.8408 156.807 8.58521 180.535H175.953C173.698 156.807 153.467 149.306 153.467 149.306V149.306Z" fill="#FBBCA0"/>
<path d="M153.467 149.306L109.789 137.888H74.7492L31.0712 149.306C31.0712 149.306 10.8408 156.807 8.58521 180.535H175.953C173.698 156.807 153.467 149.306 153.467 149.306V149.306Z" fill="white"/>
<path d="M153.467 149.306L121.155 140.861L92.2868 180.552L63.7334 140.791L31.1061 149.324C31.1061 149.324 10.8757 156.825 8.62012 180.552H175.988C173.733 156.825 153.502 149.324 153.502 149.324L153.467 149.306Z" fill="#174748"/>
<path d="M88.4402 160.654L80.397 180.534H103.25L95.4168 160.654H88.4402Z" fill="#EC524F"/>
<path d="M91.7446 138.273L81.4983 152.016L88.6148 160.706L92.1118 160.654L95.5914 160.602L102.428 151.667L91.7446 138.273Z" fill="#EC524F"/>
<g style="mix-blend-mode:multiply">
<path d="M98.5815 150.215C97.2701 152.803 94.8396 155.758 91.5175 155.024C88.0904 154.272 86.5167 151.037 87.321 147.75C88.0904 144.55 90.1536 141.875 91.3076 138.85L81.481 152.016L88.5974 160.706L95.574 160.601L102.411 151.684L99.5257 148.065C99.2459 148.799 98.9312 149.533 98.5815 150.233V150.215Z" fill="#D1D3D4"/>
</g>
<path d="M92.2692 180.534L63.6985 140.773L40.8628 146.736L70.0456 167.281L62.5619 170.585L76.043 180.534H92.2692Z" fill="#023435"/>
<path d="M92.2693 180.587L120.823 140.826L143.658 146.788L114.475 167.351L121.977 170.655L108.478 180.587H92.2693Z" fill="#023435"/>
<path d="M57.5613 138.728L74.6793 130.684L92.147 137.976L109.615 130.684L127.904 138.728L102.026 156.038L92.147 141.875L81.4985 156.038L57.5613 138.728Z" fill="#E2E3E4"/>
<path d="M114.336 114.528C114.336 114.528 123.795 105.576 125.893 97.6724C125.893 97.6724 114.72 107.744 110.821 106.677L114.318 114.528H114.336Z" fill="#150000"/>
<path d="M72.8258 117.203C72.8258 117.203 61.8451 107.796 58.8376 96.0112C58.8376 96.0112 71.357 110.472 75.2562 109.387L72.8258 117.186V117.203Z" fill="#150000"/>
<path d="M98.9311 101.694C105.138 101.781 108.513 103.914 108.513 103.914C113.951 106.485 115.35 113.461 115.35 113.461C115.35 113.461 111.608 117.605 107.027 120.543C96.693 129.111 91.9545 128.027 91.9545 128.027C86.0795 128.027 81.953 124.355 81.953 124.355L72.2837 116.784C71.0772 108.181 78.5958 103.914 78.5958 103.914C83.107 101.729 83.9113 102.026 83.9113 102.026C83.9113 102.026 90.6606 101.239 92.3042 103.914C92.3042 103.914 94.0003 101.694 98.5989 101.694" fill="#1E0500"/>
<path d="M93.1612 108.775C93.1612 108.775 88.9123 106.66 82.74 108.933C82.74 108.933 92.112 118.864 102.743 109.055C102.743 109.055 97.0429 106.397 93.1437 108.775H93.1612Z" fill="#FBBCA0"/>
</g>
</svg>
