<svg width="177" height="177" viewBox="0 0 177 177" fill="none" xmlns="http://www.w3.org/2000/svg">
<g clip-path="url(#clip0_110_466)">
<path d="M176.751 94.7486C180.202 46.0087 143.488 3.69956 94.7486 0.248589C46.0087 -3.20238 3.69956 33.5116 0.24859 82.2515C-3.20239 130.991 33.5116 173.3 82.2515 176.751C130.991 180.202 173.3 143.489 176.751 94.7486Z" fill="#7A4B35"/>
<mask id="mask0_110_466" style="mask-type:alpha" maskUnits="userSpaceOnUse" x="0" y="0" width="177" height="177">
<path d="M176.751 94.7486C180.202 46.0087 143.488 3.69956 94.7486 0.248589C46.0087 -3.20238 3.69956 33.5116 0.24859 82.2515C-3.20239 130.991 33.5116 173.3 82.2515 176.751C130.991 180.202 173.3 143.489 176.751 94.7486Z" fill="white"/>
</mask>
<g mask="url(#mask0_110_466)">
<path d="M105.005 112.88H71.1241V135.704H105.005V112.88Z" fill="#FBBCA0"/>
<g style="mix-blend-mode:multiply">
<path d="M79.3407 129.398C84.4465 131.427 90.0426 132.644 95.5373 132.695C98.6819 132.728 101.894 132.323 105.005 131.782V112.897H71.1241V124.698C73.5079 126.794 76.5511 128.282 79.3407 129.398Z" fill="#E6E7E8"/>
</g>
<path d="M125.462 70.6136C125.58 69.7851 127.034 68.4326 127.677 67.9761C129.097 66.9617 130.517 68.0099 130.94 69.3286C131.312 70.5121 131.345 71.8478 131.43 73.065C131.65 76.0575 131.176 78.9992 129.79 81.7043C128.86 83.5133 127.406 84.9842 125.682 86.1C125.682 86.1 123.822 86.9961 123.45 84.9335C123.45 84.9335 125.462 70.6135 125.462 70.5966V70.6136Z" fill="#FBBCA0"/>
<path d="M125.158 72.4056C125.242 71.8138 126.29 70.8502 126.73 70.512C127.744 69.7851 128.776 70.529 129.063 71.4757C129.334 72.3211 129.35 73.2678 129.418 74.147C129.57 76.2941 129.232 78.3905 128.235 80.3179C127.575 81.6028 126.527 82.6679 125.293 83.4625C125.293 83.4625 123.957 84.105 123.704 82.6341C123.704 82.6341 125.141 72.3887 125.141 72.3718L125.158 72.4056Z" fill="#DDA78F"/>
<path d="M49.8048 70.6136C49.6865 69.7851 48.2325 68.4326 47.5901 67.9761C46.1699 66.9617 44.7498 68.0099 44.3271 69.3286C43.9551 70.5121 43.9213 71.8478 43.8368 73.065C43.617 76.0575 44.0904 78.9992 45.4767 81.7043C46.4066 83.5133 47.8606 84.9842 49.585 86.1C49.585 86.1 51.4448 86.9961 51.8167 84.9335C51.8167 84.9335 49.8048 70.6135 49.8048 70.5966V70.6136Z" fill="#FBBCA0"/>
<path d="M50.1092 72.4056C50.0246 71.8138 48.9933 70.8502 48.5368 70.512C47.5224 69.7851 46.4911 70.529 46.2037 71.4757C45.9332 72.3211 45.9163 73.2678 45.8487 74.147C45.6965 76.2941 46.0347 78.3905 47.0321 80.3179C47.6915 81.6028 48.7397 82.6679 49.9739 83.4625C49.9739 83.4625 51.3095 84.105 51.5631 82.6341C51.5631 82.6341 50.1261 72.3887 50.1261 72.3718L50.1092 72.4056Z" fill="#DDA78F"/>
<path d="M126.595 73.3015C126.595 82.7523 124.904 92.3046 120.305 100.487C116.282 107.639 110.263 113.37 103.788 117.935C98.5296 121.638 92.8997 125.966 86.2554 125.442C79.3237 124.884 73.9305 119.169 68.8585 114.706C61.7408 108.417 56.1109 100.623 52.662 91.4423C50.5317 85.7786 49.5511 79.4048 49.5511 73.3184C49.5511 42.7682 66.7959 23.5623 88.0644 23.5623C109.333 23.5623 126.578 42.7682 126.578 73.3184L126.595 73.3015Z" fill="#FBBCA0"/>
<path d="M147.238 146.034L105.005 134.994H71.1241L28.8913 146.034C28.8913 146.034 9.31346 153.287 7.14941 176.229H168.98C166.799 153.287 147.238 146.034 147.238 146.034Z" fill="#FBBCA0"/>
<path d="M147.238 146.034L105.005 134.994H71.1241L28.8913 146.034C28.8913 146.034 9.31346 153.287 7.14941 176.229H168.98C166.799 153.287 147.238 146.034 147.238 146.034Z" fill="white"/>
<path d="M147.238 146.034L115.994 137.868L88.0815 176.246L60.4561 137.8L28.9083 146.051C28.9083 146.051 9.33043 153.304 7.16638 176.246H168.997C166.816 153.304 147.255 146.051 147.255 146.051L147.238 146.034Z" fill="#002C41"/>
<path d="M84.362 157.006L76.585 176.246H98.682L91.1078 157.006H84.362Z" fill="#FBB040"/>
<path d="M87.5572 135.366L77.6499 148.655L84.5309 157.074L87.9123 157.006L91.2767 156.956L97.8872 148.333L87.5572 135.366Z" fill="#FBB040"/>
<g style="mix-blend-mode:multiply">
<path d="M94.1678 146.913C92.8998 149.415 90.5498 152.273 87.3375 151.562C84.0238 150.835 82.5022 147.708 83.2799 144.529C84.0238 141.435 86.0188 138.849 87.1346 135.924L77.6331 148.655L84.5141 157.057L91.2599 156.956L97.8703 148.333L95.0808 144.834C94.8103 145.544 94.5059 146.254 94.1678 146.93V146.913Z" fill="#D1D3D4"/>
</g>
<path d="M49.6527 69.5483C49.6527 69.5483 55.2995 35.1434 72.9331 38.5247C72.9331 38.5247 88.876 48.4489 102.165 38.288C102.165 38.288 118.294 37.747 127.136 69.5315C127.136 69.5315 129.35 35.6167 105.005 23.5285C105.005 23.5285 82.4853 13.1478 63.2118 28.6005C63.2118 28.6005 44.9526 43.0219 49.6358 69.5315L49.6527 69.5483Z" fill="#3C2415"/>
<path d="M88.0645 176.246L60.456 137.783L38.3759 143.565L66.5931 163.431L59.3402 166.626L72.3921 176.246H88.0645Z" fill="#002136"/>
<path d="M88.0645 176.297L115.69 137.834L137.77 143.616L109.553 163.482L116.789 166.677L103.754 176.297H88.0645Z" fill="#002136"/>
<path d="M54.5049 135.805L71.0734 128.028L87.9462 135.095L104.836 128.028L122.537 135.805L97.5153 152.56L87.9462 138.865L77.65 152.56L54.5049 135.805Z" fill="#E2E3E4"/>
</g>
</g>
<defs>
<clipPath id="clip0_110_466">
<rect width="177" height="177" fill="white"/>
</clipPath>
</defs>
</svg>
