<svg width="174" height="174" viewBox="0 0 174 174" fill="none" xmlns="http://www.w3.org/2000/svg">
<g clip-path="url(#clip0_110_390)">
<path d="M171.078 106.922C182.081 60.4866 153.357 13.9242 106.922 2.92173C60.4866 -8.08074 13.9242 20.6431 2.92174 67.0782C-8.08074 113.513 20.6431 160.076 67.0783 171.078C113.513 182.081 160.076 153.357 171.078 106.922Z" fill="#003A54"/>
<mask id="mask0_110_390" style="mask-type:alpha" maskUnits="userSpaceOnUse" x="0" y="0" width="174" height="174">
<path d="M171.078 106.922C182.081 60.4866 153.357 13.9242 106.922 2.92173C60.4866 -8.08074 13.9242 20.6431 2.92174 67.0782C-8.08074 113.513 20.6431 160.076 67.0783 171.078C113.513 182.081 160.076 153.357 171.078 106.922Z" fill="white"/>
</mask>
<g mask="url(#mask0_110_390)">
<path d="M103.545 111.444H70.4554V133.735H103.545V111.444Z" fill="#FBBCA0"/>
<g style="mix-blend-mode:multiply">
<path d="M78.4802 127.576C83.4667 129.558 88.9321 130.746 94.2985 130.796C97.3697 130.829 100.507 130.433 103.545 129.904V111.461H70.4554V122.986C72.7836 125.033 75.7557 126.486 78.4802 127.576Z" fill="#E6E7E8"/>
</g>
<path d="M123.508 70.1648C123.623 69.3557 125.044 68.0348 125.671 67.589C127.058 66.5983 128.445 67.622 128.858 68.9099C129.221 70.0657 129.254 71.3702 129.337 72.559C129.551 75.4816 129.089 78.3546 127.735 80.9965C126.827 82.7633 125.407 84.1998 123.723 85.2896C123.723 85.2896 121.906 86.1647 121.543 84.1503C121.543 84.1503 123.508 70.1648 123.508 70.1483V70.1648Z" fill="#FBBCA0"/>
<path d="M123.227 71.9151C123.31 71.3372 124.333 70.396 124.763 70.0658C125.754 69.3557 126.761 70.0823 127.041 71.0069C127.306 71.8325 127.322 72.7572 127.388 73.6158C127.537 75.7128 127.207 77.7602 126.232 79.6426C125.588 80.8975 124.565 81.9377 123.359 82.7138C123.359 82.7138 122.055 83.3412 121.807 81.9047C121.807 81.9047 123.211 71.8986 123.211 71.882L123.227 71.9151Z" fill="#DDA78F"/>
<path d="M49.6342 70.1648C49.5186 69.3557 48.0986 68.0348 47.4711 67.589C46.0842 66.5983 44.6972 67.622 44.2844 68.9099C43.9211 70.0657 43.8881 71.3702 43.8055 72.559C43.5909 75.4816 44.0532 78.3546 45.4072 80.9965C46.3153 82.7633 47.7352 84.1998 49.4194 85.2896C49.4194 85.2896 51.2357 86.1647 51.599 84.1503C51.599 84.1503 49.6342 70.1648 49.6342 70.1483V70.1648Z" fill="#FBBCA0"/>
<path d="M49.9147 71.9151C49.8322 71.3372 48.825 70.396 48.3791 70.0658C47.3884 69.3557 46.3812 70.0823 46.1005 71.0069C45.8363 71.8325 45.8198 72.7572 45.7538 73.6158C45.6052 75.7128 45.9354 77.7602 46.9096 79.6426C47.5536 80.8975 48.5773 81.9377 49.7826 82.7138C49.7826 82.7138 51.0871 83.3412 51.3348 81.9047C51.3348 81.9047 49.9313 71.8986 49.9313 71.882L49.9147 71.9151Z" fill="#DDA78F"/>
<path d="M124.631 72.7901C124.631 82.0202 122.979 91.3493 118.488 99.341C114.558 106.326 108.68 111.923 102.356 116.381C97.2211 119.997 91.7227 124.224 85.2336 123.712C78.4637 123.168 73.1965 117.587 68.2429 113.227C61.2915 107.085 55.793 99.4731 52.4246 90.5072C50.3442 84.9758 49.3865 78.7508 49.3865 72.8066C49.3865 42.9698 66.2285 24.2124 87.0003 24.2124C107.772 24.2124 124.614 42.9698 124.614 72.8066L124.631 72.7901Z" fill="#FBBCA0"/>
<path d="M144.775 143.824L103.529 133.042H70.439L29.1926 143.824C29.1926 143.824 10.0719 150.907 7.95837 173.314H166.009C163.879 150.907 144.775 143.824 144.775 143.824Z" fill="#FBBCA0"/>
<path d="M144.775 143.824L103.529 133.042H70.439L29.1926 143.824C29.1926 143.824 10.0719 150.907 7.95837 173.314H166.009C163.879 150.907 144.775 143.824 144.775 143.824Z" fill="white"/>
<path d="M144.775 143.824L114.261 135.849L87.0002 173.33L60.0364 135.782L29.2255 143.84C29.2255 143.84 10.1048 150.924 7.99133 173.33H166.042C163.912 150.924 144.808 143.84 144.808 143.84L144.775 143.824Z" fill="#002C41"/>
<path d="M83.3842 154.54L75.7722 173.33H97.3697L89.9559 154.54H83.3842Z" fill="#FBB040"/>
<path d="M86.5049 133.405L76.829 146.383L83.5493 154.606L86.8351 154.54L90.1375 154.49L96.5936 146.069L86.5049 133.405Z" fill="#FBB040"/>
<g style="mix-blend-mode:multiply">
<path d="M92.9611 144.682C91.7227 147.126 89.4275 149.917 86.2903 149.223C83.054 148.513 81.5679 145.458 82.3275 142.354C83.054 139.333 85.0024 136.806 86.0922 133.95L76.8125 146.383L83.5328 154.589L90.121 154.49L96.5771 146.069L93.8527 142.651C93.5885 143.345 93.2913 144.038 92.9611 144.699V144.682Z" fill="#D1D3D4"/>
</g>
<path d="M125.159 69.1245C125.159 69.1245 119.017 97.822 98.4265 106.078C98.4265 106.078 95.8506 112.451 87.314 112.451C78.7774 112.451 76.2016 106.078 76.2016 106.078C55.5949 97.822 49.469 69.1245 49.469 69.1245C47.6858 101.24 70.7857 115.209 70.7857 115.209C83.3842 125.512 87.314 123.745 87.314 123.745C87.314 123.745 91.2438 125.512 103.842 115.209C103.842 115.209 126.728 102.198 125.159 69.1245Z" fill="#3C2415"/>
<path d="M87.0003 96.4845C87.0003 96.4845 78.4803 93.8923 76.2181 106.078C76.2181 106.078 73.8074 105.764 69.9932 102.709C69.9932 102.709 75.7063 88.4268 87.0003 96.4845Z" fill="#3C2415"/>
<path d="M87.7269 96.4845C87.7269 96.4845 96.2469 93.8923 98.509 106.078C98.509 106.078 100.92 105.764 104.734 102.709C104.734 102.709 99.0209 88.4268 87.7269 96.4845Z" fill="#3C2415"/>
<path d="M49.4691 69.1245C49.4691 69.1245 54.984 35.523 72.2058 38.8253C72.2058 38.8253 87.7764 48.5178 100.755 38.5942C100.755 38.5942 116.507 38.0658 125.143 69.108C125.143 69.108 127.306 35.9853 103.529 24.1794C103.529 24.1794 81.5349 14.0246 62.7115 29.1329C62.7115 29.1329 44.8788 43.2175 49.4525 69.108L49.4691 69.1245Z" fill="#3C2415"/>
<path d="M87.0003 173.33L60.0201 135.766L38.4557 141.413L66.0138 160.814L58.9468 163.935L71.6774 173.33H87.0003Z" fill="#002136"/>
<path d="M87.0002 173.38L113.964 135.816L135.528 141.463L107.97 160.864L115.054 163.985L102.307 173.38H87.0002Z" fill="#002136"/>
<path d="M54.2244 133.834L70.3895 126.239L86.8847 133.141L103.38 126.239L120.651 133.834L96.2139 150.197L86.8847 136.823L76.8291 150.197L54.2244 133.834Z" fill="#E2E3E4"/>
</g>
</g>
<defs>
<clipPath id="clip0_110_390">
<rect width="174" height="174" fill="white"/>
</clipPath>
</defs>
</svg>
