<svg width="173" height="173" viewBox="0 0 173 173" fill="none" xmlns="http://www.w3.org/2000/svg">
<g clip-path="url(#clip0_110_417)">
<path d="M171.787 97.713C177.98 50.6104 144.816 7.40577 97.7131 1.21295C50.6104 -4.97987 7.40589 28.1842 1.21307 75.2868C-4.97975 122.389 28.1842 165.594 75.2869 171.787C122.39 177.98 165.594 144.816 171.787 97.713Z" fill="#FBB040"/>
<mask id="mask0_110_417" style="mask-type:alpha" maskUnits="userSpaceOnUse" x="0" y="0" width="173" height="173">
<path d="M171.787 97.713C177.98 50.6104 144.816 7.40577 97.7131 1.21295C50.6104 -4.97987 7.40589 28.1842 1.21307 75.2868C-4.97975 122.389 28.1842 165.594 75.2869 171.787C122.39 177.98 165.594 144.816 171.787 97.713Z" fill="white"/>
</mask>
<g mask="url(#mask0_110_417)">
<path d="M105.881 112.967H72.9393V135.158H105.881V112.967Z" fill="#FBBCA0"/>
<g style="mix-blend-mode:multiply">
<path d="M80.9283 129.027C85.8926 130.999 91.3336 132.183 96.676 132.232C99.7335 132.265 102.857 131.87 105.881 131.344V112.983H72.9393V124.457C75.2571 126.495 78.1996 127.942 80.9283 129.027Z" fill="#E6E7E8"/>
</g>
<path d="M125.081 71.2137C125.196 70.3918 126.577 69.0603 127.185 68.6164C128.533 67.6137 129.898 68.6493 130.292 69.9479C130.637 71.115 130.67 72.4301 130.769 73.6301C130.966 76.5725 130.522 79.4656 129.207 82.1286C128.32 83.9039 126.939 85.3669 125.295 86.4683C125.295 86.4683 123.52 87.356 123.174 85.3176L125.098 71.2137H125.081Z" fill="#FBBCA0"/>
<path d="M124.785 72.9727C124.868 72.3809 125.854 71.4439 126.298 71.1151C127.268 70.4083 128.237 71.1316 128.517 72.0685C128.763 72.9069 128.796 73.8439 128.846 74.6986C128.993 76.8027 128.681 78.8739 127.728 80.7808C127.087 82.0465 126.1 83.0986 124.917 83.8876C124.917 83.8876 123.651 84.5122 123.405 83.0657L124.785 72.9727Z" fill="#DDA78F"/>
<path d="M52.9178 71.2137C52.8027 70.3918 51.4219 69.0603 50.8137 68.6164C49.4658 67.6137 48.1014 68.6493 47.7069 69.9479C47.3617 71.115 47.3288 72.4301 47.2302 73.6301C47.0165 76.5725 47.4768 79.4656 48.7918 82.1286C49.6795 83.9039 51.0603 85.3669 52.7041 86.4683C52.7041 86.4683 54.4794 87.356 54.8246 85.3176L52.9013 71.2137H52.9178Z" fill="#FBBCA0"/>
<path d="M53.1972 72.9727C53.1151 72.3809 52.1287 71.4439 51.6849 71.1151C50.7151 70.4083 49.7452 71.1316 49.4658 72.0685C49.2192 72.9069 49.1863 73.8439 49.137 74.6986C48.9891 76.8027 49.3014 78.8739 50.2548 80.7808C50.8959 82.0465 51.8822 83.0986 53.0657 83.8876C53.0657 83.8876 54.3315 84.5122 54.578 83.0657L53.1972 72.9727Z" fill="#DDA78F"/>
<path d="M126.15 73.8602C126.15 83.1642 124.539 92.5668 120.166 100.605C116.336 107.641 110.583 113.279 104.402 117.783C99.3884 121.432 94.0131 125.69 87.6844 125.164C81.0762 124.621 75.9311 118.983 71.0983 114.594C64.3093 108.413 58.9505 100.737 55.6464 91.6956C53.6081 86.1231 52.6711 79.8437 52.6711 73.8438C52.6711 43.7784 69.1257 24.8745 89.4104 24.8745C109.695 24.8745 126.15 43.7784 126.15 73.8438V73.8602Z" fill="#FBBCA0"/>
<path d="M146.944 145.202L105.881 134.468H72.9394L31.8769 145.202C31.8769 145.202 12.8579 152.254 10.7374 174.56H168.083C165.963 152.254 146.944 145.202 146.944 145.202Z" fill="#FBBCA0"/>
<path d="M146.944 145.202L105.881 134.468H72.9394L31.8769 145.202C31.8769 145.202 12.8579 152.254 10.7374 174.56H168.083C165.963 152.254 146.944 145.202 146.944 145.202Z" fill="white"/>
<path d="M62.5669 39.2579C62.5669 39.2579 74.8955 57.5864 105.898 59.707C105.898 59.707 103.301 58.5398 100.243 50.5509C100.243 50.5509 110.353 59.2467 123.158 64.885L126.1 70.852C126.1 70.852 126.084 67.811 128.895 68.337C128.895 68.337 131.245 44.4523 121.383 32.6991C121.383 32.6991 126.1 32.9292 129.141 35.5264C129.141 35.5264 124.67 26.1238 109.399 20.9622C109.399 20.9622 113.164 17.9047 119.969 20.0252C119.969 20.0252 110.961 15.8006 95.8541 16.5075C95.8541 16.5075 66.2326 15.3239 62.5669 39.2908V39.2579Z" fill="#3C2415"/>
<path d="M67.3504 43.614L52.7369 70.7041C52.7369 70.7041 51.4383 69.1424 50.8136 68.6C50.8136 68.6 50.0575 31.384 70.6709 24.332L67.3669 43.5975L67.3504 43.614Z" fill="#3C2415"/>
<path d="M146.944 145.202L116.566 137.262L89.4268 174.577L62.5669 137.196L31.8933 145.218C31.8933 145.218 12.8743 152.27 10.7538 174.577H168.1C165.979 152.27 146.96 145.218 146.96 145.218L146.944 145.202Z" fill="#414042"/>
<path d="M85.8105 155.87L78.2489 174.56H99.7336L92.3693 155.87H85.8105Z" fill="#BD1E2D"/>
<path d="M88.9171 134.829L79.2843 147.75L85.9746 155.92L89.2622 155.87L92.5335 155.821L98.9608 147.437L88.9171 134.829Z" fill="#BE1E2D"/>
<g style="mix-blend-mode:multiply">
<path d="M95.3446 146.057C94.1118 148.489 91.8269 151.268 88.7036 150.577C85.4817 149.87 84.0187 146.829 84.7585 143.739C85.4817 140.731 87.4214 138.216 88.5064 135.372L79.2681 147.75L85.9585 155.92L92.5173 155.821L98.9446 147.437L96.2323 144.035C95.9693 144.725 95.6734 145.416 95.3446 146.073V146.057Z" fill="#D1D3D4"/>
</g>
<path d="M89.4104 174.56L62.5669 137.18L41.0986 142.802L68.5339 162.117L61.4819 165.223L74.1722 174.56H89.4104Z" fill="#363436"/>
<path d="M89.4104 174.626L116.27 137.229L137.739 142.851L110.303 162.166L117.339 165.273L104.665 174.626H89.4104Z" fill="#363436"/>
<path d="M56.7808 135.257L72.8901 127.695L89.2954 134.55L105.717 127.695L122.928 135.257L98.5994 151.547L89.2954 138.232L79.2846 151.547L56.7808 135.257Z" fill="#E2E3E4"/>
</g>
</g>
<defs>
<clipPath id="clip0_110_417">
<rect width="173" height="173" fill="white"/>
</clipPath>
</defs>
</svg>
