<svg width="172" height="172" viewBox="0 0 172 172" fill="none" xmlns="http://www.w3.org/2000/svg">
    <g clip-path="url(#clip0_110_537)">
        <path d="M146.5 146.5C179.913 113.087 179.913 58.9133 146.5 25.5001C113.087 -7.91313 58.9132 -7.91311 25.5 25.5001C-7.91325 58.9133 -7.91325 113.087 25.5 146.5C58.9132 179.913 113.087 179.913 146.5 146.5Z" fill="#F5834E"/>
        <mask id="mask0_110_537" style="mask-type:alpha" maskUnits="userSpaceOnUse" x="0" y="0" width="172" height="172">
            <path d="M146.5 146.5C179.913 113.087 179.913 58.9133 146.5 25.5001C113.087 -7.91313 58.9132 -7.91311 25.5 25.5001C-7.91325 58.9133 -7.91325 113.087 25.5 146.5C58.9132 179.913 113.087 179.913 146.5 146.5Z" fill="white"/>
        </mask>
        <g mask="url(#mask0_110_537)">
            <path d="M102.377 114.171H69.6116V136.244H102.377V114.171Z" fill="#FBBCA0"/>
            <g style="mix-blend-mode:multiply">
                <path d="M77.5577 130.145C82.4955 132.107 87.9074 133.285 93.2211 133.334C96.2623 133.366 99.3688 132.974 102.377 132.451V114.171H69.6116V125.584C71.917 127.611 74.8436 129.066 77.5577 130.129V130.145Z" fill="#E6E7E8"/>
            </g>
            <path d="M120.199 73.2797C120.297 72.4786 121.638 71.1706 122.226 70.7291C123.518 69.7481 124.826 70.7618 125.218 72.0371C125.562 73.1816 125.594 74.4733 125.676 75.6505C125.872 78.5445 125.447 81.3893 124.172 84.0054C123.322 85.7548 121.981 87.1773 120.411 88.2564C120.411 88.2564 118.711 89.1229 118.368 87.1282C118.368 87.1282 120.215 73.2797 120.215 73.2634L120.199 73.2797Z" fill="#FBBCA0"/>
            <path d="M119.937 75.0292C120.019 74.4569 120.967 73.525 121.376 73.198C122.308 72.4949 123.24 73.2143 123.518 74.1299C123.763 74.9474 123.779 75.863 123.845 76.7296C123.992 78.806 123.681 80.8334 122.766 82.6973C122.161 83.94 121.196 84.97 120.068 85.7384C120.068 85.7384 118.858 86.3598 118.613 84.9373C118.613 84.9373 119.937 75.0291 119.937 75.0128V75.0292Z" fill="#DDA78F"/>
            <path d="M50.9562 73.2797C50.8581 72.4786 49.5174 71.1706 48.9288 70.7291C47.6372 69.7481 46.3292 70.7618 45.9368 72.0371C45.5934 73.1816 45.5607 74.4733 45.479 75.6505C45.2828 78.5445 45.7079 81.3893 46.9832 84.0054C47.8334 85.7548 49.1577 87.1773 50.7437 88.2564C50.7437 88.2564 52.4441 89.1229 52.7874 87.1282C52.7874 87.1282 50.9399 73.2797 50.9399 73.2634L50.9562 73.2797Z" fill="#FBBCA0"/>
            <path d="M51.2178 75.0292C51.1361 74.4569 50.1878 73.525 49.779 73.198C48.8471 72.4949 47.9151 73.2143 47.6372 74.1299C47.3919 74.9474 47.3756 75.863 47.3102 76.7296C47.163 78.806 47.4737 80.8334 48.3893 82.6973C48.9942 83.94 49.9589 84.97 51.087 85.7384C51.087 85.7384 52.2969 86.3598 52.5422 84.9373C52.5422 84.9373 51.2178 75.0291 51.2178 75.0128V75.0292Z" fill="#DDA78F"/>
            <path d="M121.245 75.8959C121.245 85.0356 119.708 94.2733 115.49 102.187C111.811 109.103 106.285 114.646 100.366 119.06C95.5591 122.641 90.4089 126.826 84.3103 126.319C77.9664 125.78 73.0287 120.254 68.3853 115.937C61.8616 109.855 56.7277 102.318 53.5558 93.4395C51.6101 87.9623 50.7109 81.7983 50.7109 75.9122C50.7109 46.3677 66.5051 27.7939 85.978 27.7939C105.451 27.7939 121.245 46.3677 121.245 75.9122V75.8959Z" fill="#FBBCA0"/>
            <path d="M143.22 146.234L102.377 135.557H69.6115L28.769 146.234C28.769 146.234 9.85208 153.248 7.74292 175.435H164.229C162.12 153.248 143.203 146.234 143.203 146.234H143.22Z" fill="#FBBCA0"/>
            <path d="M143.22 146.234L102.377 135.557H69.6115L28.769 146.234C28.769 146.234 9.85208 153.248 7.74292 175.435H164.229C162.12 153.248 143.203 146.234 143.203 146.234H143.22Z" fill="white"/>
            <path d="M143.22 146.234L113.005 138.337L86.0107 175.451L59.311 138.271L28.8018 146.25C28.8018 146.25 9.88478 153.264 7.77563 175.451H164.262C162.153 153.264 143.236 146.25 143.236 146.25L143.22 146.234Z" fill="#3C0000"/>
            <path d="M82.4137 156.845L74.8927 175.435H96.2622L88.9374 156.845H82.4137Z" fill="#14BAAB"/>
            <path d="M85.5039 135.917L75.9227 148.768L82.5772 156.894L85.8308 156.845L89.1008 156.796L95.4937 148.441L85.5039 135.917Z" fill="#14BAAB"/>
            <g style="mix-blend-mode:multiply">
                <path d="M91.8968 147.084C90.6706 149.504 88.3979 152.267 85.2914 151.58C82.0868 150.877 80.6316 147.853 81.3674 144.779C82.0868 141.787 84.0161 139.285 85.0952 136.457L75.9065 148.768L82.5609 156.894L89.0846 156.78L95.4775 148.441L92.7797 145.057C92.5181 145.743 92.2238 146.43 91.8968 147.084Z" fill="#D1D3D4"/>
            </g>
            <path d="M85.9944 175.435L59.2784 138.255L37.9252 143.847L65.2135 163.058L58.2157 166.148L70.8216 175.435H85.9944Z" fill="#270000"/>
            <path d="M85.9944 175.484L112.694 138.304L134.047 143.896L106.759 163.107L113.773 166.197L101.151 175.484H85.9944Z" fill="#270000"/>
            <path d="M53.5396 136.342L69.5463 128.821L85.8799 135.639L102.214 128.821L119.316 136.342L95.1341 152.529L85.8799 139.285L75.9227 152.529L53.5396 136.342Z" fill="#E2E3E4"/>
            <path d="M106.628 113.713C106.628 113.713 115.49 105.342 117.436 97.9519C117.436 97.9519 106.988 107.37 103.342 106.372L106.612 113.713H106.628Z" fill="#150000"/>
            <path d="M67.813 116.215C67.813 116.215 57.5452 107.419 54.733 96.3987C54.733 96.3987 66.4397 109.92 70.0857 108.906L67.813 116.215Z" fill="#150000"/>
            <path d="M92.24 101.713C98.0443 101.794 101.2 103.789 101.2 103.789C106.285 106.193 107.593 112.716 107.593 112.716C107.593 112.716 104.094 116.591 99.8101 119.338C90.1472 127.35 85.7164 126.336 85.7164 126.336C80.2228 126.336 76.3641 122.902 76.3641 122.902L67.3225 115.823C66.1944 107.779 73.2249 103.789 73.2249 103.789C77.4432 101.745 78.1953 102.007 78.1953 102.007C78.1953 102.007 84.5064 101.271 86.0434 103.773C86.0434 103.773 87.6293 101.696 91.9294 101.696" fill="#1E0500"/>
            <path d="M86.8447 108.351C86.8447 108.351 82.8715 106.372 77.1 108.498C77.1 108.498 85.8636 117.785 95.8045 108.612C95.8045 108.612 90.4744 106.127 86.8283 108.351H86.8447Z" fill="#FBBCA0"/>
            <path d="M121.556 32.3228C129.502 26.5349 128.635 17.6404 128.635 17.6404C124.008 22.7253 117.239 23.3793 117.239 23.3793C124.254 19.1774 120.771 10.4137 120.771 10.4137C118.58 15.3188 108.835 18.131 108.835 18.131C113.561 14.9754 110.618 7.79771 110.618 7.79771C107.315 13.4058 97.4394 15.8583 97.4394 15.8583C103.93 12.1795 104.617 6.91479 104.617 6.91479C98.8292 11.9997 83.0678 14.4522 83.0678 14.4522C83.0678 14.4522 65.6876 16.0381 61.3712 30.4753C48.6672 32.3065 48.5527 53.7905 49.4356 65.3827L50.2368 79.411H53.0654C51.8064 72.6911 53.0654 63.5841 53.0654 63.5841C55.011 57.0605 56.0084 53.2019 57.251 50.4714C60.2594 43.8987 64.9519 41.904 67.9439 41.3154L70.7888 41.1028C83.2312 39.2879 86.8937 48.117 86.8937 48.117C88.823 43.0321 95.3139 41.8058 95.3139 41.8058C114.231 39.2879 116.945 54.2483 116.945 54.2483L119.087 63.764C119.381 66.9359 119.888 74.2771 118.923 79.411H121.752L122.553 65.3827C122.57 64.9412 122.57 64.5651 122.553 64.2218C123.976 56.4064 125.235 43.6534 121.539 32.3228H121.556Z" fill="#150000"/>
        </g>
    </g>
    <defs>
        <clipPath id="clip0_110_537">
            <rect width="172" height="172" fill="white"/>
        </clipPath>
    </defs>
</svg>
